<?xml version="1.0" encoding="utf-8"?>
<!-- Generator: Adobe Illustrator 21.0.1, SVG Export Plug-In . SVG Version: 6.00 Build 0)  -->
<svg version="1.1" id="Calque_1" xmlns="http://www.w3.org/2000/svg" xmlns:xlink="http://www.w3.org/1999/xlink" x="0px" y="0px"
	 viewBox="0 0 432 432" style="enable-background:new 0 0 432 432;" xml:space="preserve">
<style type="text/css">
	.st0{fill:#414042;}
	.st1{fill:#DA1C5C;}
	.st2{fill:#D1D3D4;}
	.st3{fill:#E8A0C7;}
	.st4{fill:#171717;}
	.st5{fill:#8DC63F;}
	.st6{fill:#1B75BC;}
	.st7{fill:#9E1F63;}
	.st8{fill:#F15A29;}
	.st9{fill:#00A79D;}
	.st10{fill:#EF4136;}
	.st11{fill:#ADCE4D;}
	.st12{fill:#EC8C28;}
	.st13{fill:#EDB525;}
	.st14{fill:#39B54A;}
	.st15{fill:#ED1C24;}
	.st16{fill:#F7941D;}
	.st17{fill:#FFF200;}
	.st18{fill:#27AAE1;}
	.st19{fill:#2B3990;}
	.st20{fill:#662D91;}
	.st21{fill:#35203B;}
	.st22{fill:#262262;}
	.st23{fill:none;stroke:#39B54A;stroke-width:2.232;stroke-linecap:round;stroke-linejoin:round;stroke-miterlimit:10;}
	.st24{fill-rule:evenodd;clip-rule:evenodd;fill:#92278F;}
	.st25{fill:#92278F;}
	.st26{fill:#FFFFFF;stroke:#39B54A;stroke-width:2.232;stroke-miterlimit:10;}
	.st27{fill:#2BB673;}
	.st28{fill:#009444;}
	.st29{fill-rule:evenodd;clip-rule:evenodd;fill:#9E1F63;}
	.st30{fill-rule:evenodd;clip-rule:evenodd;fill:#DA1C5C;}
	.st31{fill-rule:evenodd;clip-rule:evenodd;fill:#00A79D;}
	.st32{fill-rule:evenodd;clip-rule:evenodd;fill:#D7DF23;}
</style>
<g>
	<path class="st0" d="M366.4,256.9l0.7-0.4l-0.4-0.7c-0.2-0.4-20.3-33.7-62.8-40c6.9-1,13.2-2.7,18.9-4.9c0,0,0,0,0,0
		c0.2,0,0.4-0.1,0.5-0.2c2.4-0.9,4.6-1.9,6.8-3c0.2,0,0.4-0.1,0.5-0.3c2-1,3.9-2.1,5.7-3.2c0.3,0,0.5-0.1,0.7-0.4c0,0,0,0,0,0
		c1.9-1.1,3.6-2.3,5.3-3.5c0.2,0,0.4-0.2,0.5-0.4c0,0,0,0,0-0.1c1.5-1.1,3-2.3,4.4-3.4c0.2-0.1,0.4-0.1,0.5-0.3c0,0,0-0.1,0-0.1
		c1.7-1.4,3.3-2.8,4.8-4.2c0.2-0.1,0.3-0.2,0.4-0.3c0,0,0-0.1,0-0.1c1.5-1.5,2.9-2.9,4.1-4.2c0.1-0.1,0.3-0.2,0.3-0.3
		c0,0,0-0.1,0.1-0.1c1.5-1.7,2.8-3.2,3.9-4.6c0.1,0,0.1-0.1,0.2-0.1c0,0,0-0.1,0-0.1c2.5-3.1,3.7-5.2,3.8-5.3l0.4-0.7l-0.7-0.4
		c-1.3-0.8-31.8-18-54.7-13.9c15.6-17.4,16.2-53.7,16.2-55.3l0-0.9l-0.9,0c-0.4,0-39.3,0.7-66,34.4c2.6-6.5,4.3-12.8,5.2-18.8
		c0.1-0.2,0.1-0.4,0.1-0.6c0.4-2.5,0.6-5,0.8-7.4c0.1-0.2,0.1-0.4,0-0.6c0.1-2.2,0.2-4.4,0.1-6.5c0.1-0.2,0.1-0.5,0-0.7c0,0,0,0,0,0
		c-0.1-2.2-0.2-4.3-0.4-6.3c0.1-0.2,0.1-0.5,0-0.7c0,0,0,0,0,0c-0.2-1.9-0.4-3.7-0.7-5.5c0.1-0.2,0.1-0.4,0-0.6c0,0-0.1-0.1-0.1-0.1
		c-0.4-2.2-0.8-4.3-1.3-6.2c0-0.2,0-0.4-0.1-0.5c0,0-0.1-0.1-0.1-0.1c-0.5-2-1.1-3.9-1.6-5.7c0-0.1,0-0.3-0.1-0.4
		c0,0-0.1-0.1-0.1-0.1c-0.7-2.1-1.4-4-2-5.6c0-0.1,0-0.2-0.1-0.3c0,0,0-0.1-0.1-0.1c-1.5-3.7-2.7-5.8-2.7-5.9l-0.4-0.7l-0.7,0.4
		c-1.3,0.8-31.5,18.5-39.4,40.4c-7.3-22.2-38.4-40.9-39.8-41.7l-0.7-0.4l-0.4,0.7c-0.2,0.4-19,34.4-3.2,74.4
		c-4.3-5.5-8.9-10.1-13.7-13.9c-0.1-0.2-0.3-0.3-0.4-0.4c-2-1.6-4-3-6-4.4c-0.1-0.2-0.3-0.3-0.5-0.3c-1.9-1.2-3.7-2.3-5.6-3.4
		c-0.1-0.2-0.4-0.4-0.6-0.4c0,0,0,0,0,0c-1.9-1-3.8-2-5.7-2.8c-0.1-0.2-0.4-0.3-0.6-0.3c0,0,0,0-0.1,0c-1.7-0.8-3.4-1.5-5.1-2.1
		c-0.1-0.1-0.3-0.3-0.6-0.3c0,0-0.1,0-0.1,0c-2.1-0.8-4.1-1.4-6-2c-0.1-0.1-0.3-0.2-0.5-0.2c0,0-0.1,0-0.1,0c-2-0.6-4-1.1-5.7-1.4
		c-0.1-0.1-0.3-0.1-0.4-0.1c0,0-0.1,0-0.1,0c-2.2-0.5-4.1-0.8-5.8-1c-0.1,0-0.2-0.1-0.3-0.1c0,0-0.1,0-0.1,0c-4-0.6-6.4-0.6-6.5-0.6
		l-0.9,0l0,0.9c0,1.5,0.3,36.6,15.3,54.3c-22.8-4.8-54.6,12.8-56,13.6l-0.7,0.4l0.4,0.7c0.2,0.4,20.3,33.7,62.8,40
		c-6.9,1-13.2,2.7-18.9,4.9c-0.2,0-0.4,0.1-0.5,0.2c-2.4,0.9-4.6,1.9-6.8,3c-0.2,0-0.4,0.1-0.6,0.3c-2,1-3.9,2.1-5.7,3.2
		c-0.3,0-0.5,0.1-0.7,0.4c0,0,0,0,0,0c-1.8,1.1-3.6,2.3-5.3,3.5c-0.2,0-0.4,0.2-0.6,0.4c0,0,0,0,0,0.1c-1.5,1.1-3,2.2-4.4,3.4
		c-0.2,0-0.4,0.2-0.5,0.4c0,0,0,0.1,0,0.1c-1.7,1.4-3.3,2.8-4.7,4.2c-0.2,0.1-0.3,0.2-0.4,0.3c0,0,0,0.1,0,0.1
		c-1.5,1.5-2.9,2.9-4.1,4.2c-0.1,0.1-0.2,0.2-0.3,0.3c0,0,0,0.1-0.1,0.1c-1.5,1.6-2.8,3.2-3.8,4.5c-0.1,0.1-0.2,0.1-0.2,0.2
		c0,0,0,0.1,0,0.1c-2.5,3.1-3.7,5.2-3.8,5.3l-0.4,0.7l0.7,0.4c0,0,0,0,0,0c0,0,0.1,0,0.1,0.1c2.2,1.2,26,14.5,47,14.5
		c2.6,0,5.1-0.2,7.6-0.6c-15.6,17.4-16.2,53.7-16.2,55.3l0,0.9l0.9,0c0.4,0,39.3-0.7,66-34.4c-2.6,6.5-4.3,12.8-5.2,18.8
		c-0.1,0.2-0.1,0.4-0.1,0.6c-0.4,2.5-0.6,5-0.8,7.4c-0.1,0.2-0.1,0.4,0,0.6c-0.1,2.2-0.2,4.4-0.1,6.5c-0.1,0.2-0.1,0.5,0,0.7
		c0,0,0,0,0,0c0.1,2.2,0.2,4.3,0.4,6.3c-0.1,0.2-0.1,0.5,0,0.7c0,0,0,0,0,0c0.2,1.9,0.4,3.7,0.7,5.5c-0.1,0.2-0.1,0.4,0,0.6
		c0,0,0.1,0,0.1,0.1c0.4,2.2,0.8,4.3,1.3,6.2c0,0.2,0,0.4,0.1,0.5c0,0,0.1,0.1,0.1,0.1c0.5,2.1,1.1,4,1.6,5.7c0,0.1,0,0.3,0.1,0.4
		c0,0,0.1,0.1,0.1,0.1c0.7,2.1,1.4,4,2,5.6c0,0.1,0,0.2,0.1,0.3c0,0,0,0,0.1,0.1c1.5,3.7,2.7,5.8,2.7,5.9l0.4,0.7l0.7-0.4
		c0,0,0,0,0,0c0,0,0,0,0,0c1.4-0.8,31.5-18.5,39.4-40.4c7.3,22.2,38.4,40.9,39.8,41.7l0.7,0.4l0.4-0.7c0.2-0.4,19-34.4,3.2-74.4
		c4.3,5.5,8.9,10.1,13.7,13.9c0.1,0.2,0.3,0.3,0.4,0.4c2,1.6,4,3,6,4.4c0.1,0.2,0.3,0.3,0.5,0.3c1.9,1.2,3.7,2.3,5.6,3.4
		c0.1,0.2,0.4,0.4,0.6,0.4c0,0,0,0,0,0c0,0,0,0,0,0c1.9,1,3.8,2,5.6,2.8c0.1,0.2,0.4,0.3,0.6,0.3c0,0,0,0,0,0c0,0,0,0,0,0
		c1.7,0.8,3.4,1.5,5.1,2.1c0.1,0.1,0.3,0.3,0.6,0.3c0,0,0,0,0.1,0c0,0,0.1,0,0.1,0c2.1,0.8,4.1,1.4,6,2c0.1,0.1,0.3,0.2,0.5,0.2
		c0,0,0,0,0,0c0,0,0.1,0,0.1,0c2,0.6,3.9,1.1,5.7,1.4c0.1,0.1,0.3,0.1,0.4,0.1c0,0,0,0,0,0c0,0,0.1,0,0.1,0c2.2,0.5,4.1,0.8,5.8,1
		c0.1,0,0.2,0.1,0.3,0.1c0,0,0,0,0,0c0,0,0.1,0,0.1,0c3.9,0.5,6.4,0.6,6.5,0.6h0c0,0,0,0,0,0c0,0,0,0,0,0l0.8,0l0-0.9
		c0-1.5-0.3-36.5-15.3-54.3c2.7,0.6,5.6,0.8,8.5,0.8C340.4,271.4,365.2,257.6,366.4,256.9z M262.5,345.6l-8.6-4.4
		c0-1.8,0-3.7,0.1-5.5l9.5,4.8C263.2,342.2,262.9,344,262.5,345.6z M260.9,351.9l-6.6-3.4c-0.2-1.8-0.3-3.6-0.3-5.4l8.2,4.2
		C261.7,348.9,261.3,350.4,260.9,351.9z M258.9,358l-3.7-1.9c-0.2-1.7-0.5-3.6-0.7-5.6l5.9,3C259.9,355.2,259.4,356.6,258.9,358z
		 M172.2,353.2l5.3-2.7c-0.2,2-0.4,3.9-0.7,5.6l-3,1.5C173.3,356.3,172.8,354.8,172.2,353.2z M170.4,347l7.6-3.9
		c-0.1,1.8-0.2,3.6-0.3,5.4l-6,3.1C171.3,350.1,170.9,348.6,170.4,347z M169,340.2l9-4.5c0.1,1.8,0.2,3.6,0.1,5.5l-8.1,4.2
		C169.6,343.7,169.3,342,169,340.2z M162.7,300.1c0,0,0,0.1,0,0.1c-1.5,1.4-3,2.8-4.6,4.1l-0.2-2.6c1.5-0.9,3-1.9,4.6-3.1
		L162.7,300.1z M71.2,251.6l1.9,1.2c-1.5,0.6-2.9,1.1-3.9,1.4C69.8,253.6,70.4,252.7,71.2,251.6z M75.3,246.7l5,3.2
		c-1.8,0.8-3.6,1.6-5.2,2.2l-2.8-1.8C73.1,249.2,74.2,248,75.3,246.7z M84.9,237.4l8.4,5.5c-1.5,1-3.1,2-4.7,2.8l-7.6-4.9
		C82.2,239.7,83.6,238.5,84.9,237.4z M89.8,233.5l8.7,5.4c-1.1,1-2.4,2-3.7,2.9l-8.5-5.6C87.4,235.3,88.6,234.4,89.8,233.5z
		 M95.6,229.6l7,4.6c-0.8,1.2-1.7,2.4-2.9,3.5l-8.5-5.3C92.7,231.5,94.1,230.6,95.6,229.6z M101.9,226.2l4.1,2.6
		c-1.1,1.2-1.9,2.6-2.5,3.9l-6.2-4.1C98.7,227.8,100.3,227,101.9,226.2z M109.1,222.9l2.1,1.4c-1.5,1-2.9,2.1-4,3.2l-3.5-2.2
		C105.4,224.4,107.2,223.7,109.1,222.9z M116.8,220.3l0.9,0.6c-1.8,0.8-3.5,1.6-5,2.4l-1.8-1.2C112.9,221.5,114.8,220.9,116.8,220.3
		z M103.3,207l4-2.5c1.2,1.1,2.5,2.2,4,3.2l-2.5,1.7C106.8,208.6,105,207.8,103.3,207z M96.9,203.6l6.6-4.4c0.6,1.4,1.5,2.7,2.5,3.9
		l-4.6,2.9C99.9,205.3,98.4,204.4,96.9,203.6z M90.9,199.8l8.9-5.5c1.1,1.1,2.1,2.3,2.9,3.5l-7.4,4.9
		C93.7,201.7,92.3,200.7,90.9,199.8z M85.8,196.1l9-5.9c1.3,0.9,2.5,1.9,3.7,2.9l-9.1,5.7C88.2,197.8,87,197,85.8,196.1z
		 M80.5,191.5l8.2-5.3c1.6,0.9,3.2,1.9,4.7,2.8l-8.9,5.9C83.1,193.8,81.7,192.6,80.5,191.5z M71.6,182.1l3.5-2.2
		c1.6,0.6,3.4,1.4,5.2,2.2l-5.6,3.6C73.6,184.4,72.5,183.2,71.6,182.1z M67.9,177.3c1,0.3,2.9,1,5.2,1.9l-2.6,1.7
		C69.4,179.4,68.6,178.2,67.9,177.3z M169.5,86.4l8.6,4.4c0,1.8,0,3.7-0.1,5.5l-9.5-4.8C168.8,89.8,169.1,88,169.5,86.4z
		 M171.1,80.1l6.6,3.4c0.2,1.8,0.3,3.6,0.3,5.4l-8.2-4.2C170.3,83.1,170.7,81.6,171.1,80.1z M173.2,74l3.7,1.9
		c0.2,1.7,0.5,3.6,0.7,5.6l-5.9-3C172.1,76.8,172.6,75.4,173.2,74z M259.8,78.8l-5.3,2.7c0.2-2,0.4-3.9,0.7-5.6l3-1.5
		C258.7,75.7,259.2,77.2,259.8,78.8z M261.6,85l-7.6,3.9c0.1-1.8,0.2-3.6,0.3-5.4l6-3.1C260.7,81.9,261.2,83.4,261.6,85z M263,91.8
		l-9,4.5c-0.1-1.8-0.2-3.6-0.1-5.5l8.1-4.2C262.4,88.3,262.7,90,263,91.8z M269.3,131.9c0,0,0-0.1,0-0.1c1.5-1.4,3-2.8,4.6-4.1
		l0.2,2.7c-1.5,0.9-3,1.9-4.6,3.1L269.3,131.9z M360.8,180.4l-1.9-1.2c1.5-0.6,2.9-1.1,3.9-1.4C362.2,178.4,361.6,179.3,360.8,180.4
		z M356.7,185.3l-5-3.2c1.8-0.8,3.6-1.6,5.2-2.2l2.8,1.8C358.9,182.8,357.8,184,356.7,185.3z M347.1,194.6l-8.4-5.5
		c1.5-1,3.1-2,4.7-2.8l7.6,4.9C349.8,192.3,348.4,193.5,347.1,194.6z M342.2,198.5l-8.7-5.4c1.1-1,2.4-2,3.7-2.9l8.5,5.6
		C344.6,196.7,343.4,197.6,342.2,198.5z M336.4,202.4l-7-4.6c0.8-1.2,1.7-2.4,2.9-3.5l8.5,5.3C339.3,200.5,337.9,201.4,336.4,202.4z
		 M330.1,205.8l-4.1-2.6c1.1-1.2,1.9-2.6,2.5-3.9l6.2,4.1C333.3,204.2,331.7,205,330.1,205.8z M322.9,209.1l-2.1-1.4
		c1.5-1,2.9-2.1,4-3.2l3.5,2.2C326.6,207.6,324.8,208.3,322.9,209.1z M315.2,211.7l-0.9-0.6c1.8-0.8,3.5-1.6,5-2.4l1.8,1.2
		C319.1,210.5,317.2,211.1,315.2,211.7z M328.7,225l-4,2.5c-1.2-1.1-2.5-2.2-4-3.2l2.5-1.7C325.2,223.4,327,224.2,328.7,225z
		 M335.1,228.4l-6.6,4.4c-0.6-1.4-1.5-2.7-2.5-3.9l4.6-2.9C332.1,226.7,333.6,227.6,335.1,228.4z M341.1,232.2l-8.9,5.5
		c-1.1-1.1-2.1-2.3-2.9-3.5l7.4-4.9C338.3,230.3,339.7,231.3,341.1,232.2z M346.2,235.9l-9,5.9c-1.3-0.9-2.5-1.9-3.7-2.9l9.1-5.7
		C343.8,234.2,345,235,346.2,235.9z M351.5,240.5l-8.2,5.3c-1.6-0.9-3.2-1.9-4.7-2.8l8.9-5.9C348.9,238.2,350.3,239.4,351.5,240.5z
		 M360.4,249.9l-3.5,2.2c-1.6-0.6-3.4-1.4-5.2-2.2l5.6-3.6C358.4,247.6,359.5,248.8,360.4,249.9z M364.1,254.7c-1-0.3-2.9-1-5.2-1.9
		l2.6-1.7C362.6,252.6,363.4,253.8,364.1,254.7z M355.8,253.5c-9.3-1.2-23.6-2.3-32.2,1.2c3.8-5.2,6.7-11.2,6.2-17.1
		C335.9,244.7,347.7,250.3,355.8,253.5z M319.6,256.9c-4.2,4.9-8.8,8.8-10.9,10.5c-0.5-0.8-1.6-1.3-2.7-1.7
		c5.5-4.3,20.3-17.2,17.6-28.9c-1.9-8.3-12.4-14-30.9-17.1c0.1-0.9,0.2-1.8,0.2-2.8c21,3.5,32.7,9.8,34.9,18.8
		C329.5,243,324.9,250.7,319.6,256.9C319.7,256.9,319.6,256.9,319.6,256.9L319.6,256.9z M291.7,303.7c5.3-2.6,9-8.1,11.6-14
		c1.3,9.2,9.4,21.1,15.1,28.6C311.6,312.9,300.9,305.6,291.7,303.7z M304.9,285.7c1.3-3.6,2.2-7.2,2.8-10.1c0.6,16,7.3,32.1,12,41.5
		C313.2,308.7,303.7,294.5,304.9,285.7z M264.8,325.4l-7.1-3.6c0.9-1.2,1.6-2.6,2.1-4.2l4.8,2.5
		C264.8,321.9,264.8,323.7,264.8,325.4z M253.4,355.9c-3.6-8.7-9.8-21.5-17.1-27.3c1.6,0.2,3.2,0.3,4.8,0.3c4.8,0,9.4-0.9,13.1-3.5
		C251.1,334.2,252.2,347.2,253.4,355.9z M256.9,323.3l7.9,4c0,1.8-0.1,3.5-0.3,5.2l-9.2-4.9C255.7,326,256.2,324.6,256.9,323.3z
		 M254.7,322.8c-5.3,5.1-14.3,4.9-22.3,3.5c0,0,0,0,0,0l0,0c-6.3-1.2-12-3.2-14.5-4.2c0.5-0.8,0.4-2.1,0.1-3.2
		c4.1,1.7,13.1,4.9,21.4,4.9c4.7,0,9.2-1.1,12.4-4.1c6.2-5.8,6-17.7-0.6-35.3c0.9-0.3,1.7-0.7,2.5-1.2
		C261,303,261.4,316.4,254.7,322.8z M167.7,319.9l4.3-2.2c0.5,1.5,1.3,2.9,2.2,4.2l-6.6,3.3C167.6,323.5,167.6,321.7,167.7,319.9z
		 M177.9,325.4c3.6,2.5,8.2,3.4,13,3.4c1.6,0,3.3-0.1,4.9-0.3c-7.3,5.8-13.6,18.7-17.2,27.4C179.8,347.2,180.9,334.3,177.9,325.4z
		 M177.1,322.7c-6.6-6.3-6.2-19.4,1-38.8c0.2-0.3,0.3-0.5,0.5-0.7l-0.1-0.1c0,0,0,0,0-0.1c0.8,0.4,1.7,0.7,2.5,0.9
		c-6.7,17.8-7,29.8-0.8,35.7c3.2,3,7.7,4.1,12.4,4.1c8.2,0,17.1-3.1,21.3-4.8c-0.2,1.1-0.3,2.3,0.1,3.1
		C208.2,324.3,186.6,331.8,177.1,322.7z M177.6,280.7c-1.9-1.1-3.6-2.6-5-4.4l4.5-3.3c1,1,2.1,1.9,3.4,2.6c0.1,0,0.1,0.1,0.2,0.1
		L177.6,280.7C177.6,280.7,177.6,280.7,177.6,280.7z M127.1,285.9c1.1,8.8-8.3,22.8-14.8,31.3c4.7-9.4,11.4-25.4,12-41.4
		C124.9,278.7,125.8,282.3,127.1,285.9z M140.4,303.7c-9.2,1.8-19.9,9.2-26.8,14.6c5.7-7.4,13.8-19.3,15.1-28.5
		C131.3,295.8,135,301.2,140.4,303.7z M104.2,235.7c2.2-8.9,13.7-15.1,34.1-18.5c0.3,0,0.6,0,0.9,0l0-0.1c0,0,0,0,0.1,0
		c0.1,0.9,0.3,1.8,0.5,2.7c-18.8,3.1-29.3,8.8-31.3,17.2c-2.7,11.6,12,24.5,17.5,28.8c-1.1,0.3-2.2,0.9-2.6,1.7
		C118.3,263.4,101,248.5,104.2,235.7z M104.2,196.1c-1.7-7.1,2.9-14.9,8.1-21c0,0,0,0,0,0l0,0c4.2-4.9,8.8-8.8,10.9-10.5
		c0.5,0.8,1.6,1.3,2.7,1.7c-5.5,4.3-20.3,17.2-17.6,28.9c1.9,8.3,12.4,14,30.9,17.1c-0.1,0.9-0.2,1.8-0.2,2.8
		C118.1,211.5,106.4,205.2,104.2,196.1z M140.3,128.3c-5.3,2.6-9,8.1-11.6,14c-1.3-9.2-9.4-21.1-15.1-28.6
		C120.4,119.1,131.1,126.4,140.3,128.3z M127.1,146.3c-1.3,3.6-2.2,7.2-2.8,10.1c-0.6-16-7.3-32.1-12-41.5
		C118.8,123.3,128.3,137.4,127.1,146.3z M167.2,106.6l7.1,3.6c-0.9,1.2-1.6,2.6-2.1,4.2l-4.8-2.5
		C167.2,110.1,167.2,108.3,167.2,106.6z M178.6,76.1c3.6,8.7,9.8,21.5,17.1,27.3c-6.4-0.7-13-0.2-17.9,3.2
		C180.9,97.8,179.8,84.8,178.6,76.1z M175.1,108.7l-7.9-4c0-1.8,0.1-3.5,0.3-5.2l9.2,4.9C176.3,106,175.8,107.4,175.1,108.7z
		 M177.3,109.2c5.3-5.1,14.3-4.9,22.3-3.5c0,0,0,0,0,0l0,0c6.3,1.2,12,3.2,14.5,4.2c-0.5,0.8-0.4,2.1-0.1,3.2
		c-6.5-2.6-25-9-33.8-0.8c-6.2,5.8-6,17.7,0.6,35.3c-0.9,0.3-1.7,0.7-2.5,1.2C171,129,170.6,115.6,177.3,109.2z M264.3,112.1
		l-4.3,2.3c-0.5-1.5-1.3-2.9-2.2-4.2l6.6-3.3C264.4,108.5,264.4,110.3,264.3,112.1z M264.4,104.9l-7.5,3.8c-0.7-1.3-1.2-2.7-1.6-4.2
		l8.8-4.7C264.2,101.5,264.3,103.2,264.4,104.9z M254.1,106.6c-4.9-3.3-11.5-3.8-17.9-3.1c7.3-5.8,13.6-18.7,17.2-27.4
		C252.2,84.8,251.1,97.7,254.1,106.6z M254.9,109.3c6.6,6.3,6.2,19.4-1,38.8c-0.2,0.3-0.3,0.5-0.5,0.7l0.1,0.1c0,0,0,0,0,0.1
		c-0.8-0.4-1.7-0.7-2.5-0.9c6.7-17.8,7-29.8,0.8-35.7c-8.7-8.2-27.2-1.9-33.7,0.8c0.2-1.1,0.3-2.3-0.1-3.1
		C223.8,107.7,245.4,100.2,254.9,109.3z M254.4,151.3c1.9,1.1,3.6,2.6,5,4.4l-4.5,3.3c-1-1-2.1-1.9-3.4-2.6c-0.1,0-0.1-0.1-0.2-0.1
		L254.4,151.3C254.4,151.3,254.4,151.3,254.4,151.3z M304.9,146.1c-1.1-8.8,8.3-22.8,14.8-31.3c-4.7,9.4-11.4,25.4-12,41.4
		C307.1,153.3,306.2,149.7,304.9,146.1z M291.6,128.3c9.2-1.8,19.9-9.2,26.8-14.6c-5.7,7.4-13.7,19.3-15.1,28.5
		C300.7,136.2,297,130.8,291.6,128.3z M327.8,196.3c-2.2,8.9-13.6,15.1-34.1,18.5c-0.3,0-0.6,0-0.9,0l0,0.1c0,0,0,0-0.1,0
		c-0.1-0.9-0.3-1.8-0.5-2.7c18.8-3.1,29.3-8.8,31.3-17.2c2.7-11.6-12-24.5-17.5-28.8c1.1-0.3,2.2-0.9,2.6-1.7
		C313.7,168.6,331,183.5,327.8,196.3z M260,274.1l-4.5-2.7c1-1.4,1.9-3,2.7-4.6l4.6,1C262,269.9,261.1,272.1,260,274.1z
		 M179.2,281.5l2.9-5.1c1.3,0.6,2.6,1,4,1.2l-0.1,5.4C183.6,282.9,181.3,282.4,179.2,281.5z M168.7,268.6l4.4-1.4
		c0.8,1.7,1.7,3.1,2.8,4.4l-4.3,3.2C170.4,273.1,169.4,271,168.7,268.6z M124.8,268.6c-0.2-0.3-0.1-0.3-0.1-0.4
		c0.2-0.4,1.2-0.8,2.2-1.1l-2,1.7C125,268.9,124.9,268.8,124.8,268.6z M172,157.9l4.5,2.7c-1,1.4-1.9,3-2.7,4.6l-4.6-1
		C170,162.1,170.9,159.9,172,157.9z M252.8,150.5l-2.9,5.1c-1.3-0.6-2.6-1-4-1.2l0.1-5.4C248.4,149.1,250.7,149.6,252.8,150.5z
		 M263.3,163.4l-4.4,1.4c-0.8-1.7-1.7-3.1-2.8-4.4l4.3-3.2C261.6,158.9,262.6,161,263.3,163.4z M307.2,163.4
		c0.2,0.3,0.1,0.3,0.1,0.4c-0.2,0.4-1.2,0.8-2.2,1.1l2-1.7C307,163.1,307.1,163.2,307.2,163.4z M303,264.7c-0.8-0.6-2-1.7-3.5-3.1
		c1.3-0.4,2.8-0.7,3.5-0.1C303.5,261.9,303.5,263.1,303,264.7z M272.7,268.1c-0.6,0.3-1.9-0.5-2.9-1.3c1.2-0.6,2.4-1,3.6-1.4
		C273.4,267.5,272.8,268,272.7,268.1z M267.6,270c-0.5,0.3-1.5,0.1-2.4-0.3c0.9-0.7,1.8-1.4,2.7-2C268.1,268.9,268,269.7,267.6,270z
		 M253.3,265.3c-2.6,2.5-5.5,2.4-6.5,2.4l-5.2-9.1c2.4,2,5.4,4,7.8,4c0.2,0,0.5,0,0.7-0.1c1-0.2,2.3-0.8,3-2.7
		c2.5-6.1-1.8-12.9-3.8-15.6c2.4-0.8,4.9-1.5,7.6-1.6C258.8,256.6,256,262.7,253.3,265.3z M178.4,265.3c-2.8-2.6-5.8-8.7-4.3-22.7
		c2.9-0.1,5.5,0.6,8.1,1.4c-1.9,2.6-6.4,9.7-3.5,16c0.8,1.9,2.2,2.5,3.2,2.6c0.2,0,0.4,0,0.7,0c2.5,0,5.6-2,8.1-4.1l-5.3,9.1
		C184.2,267.8,181.2,267.9,178.4,265.3z M129.1,265.2c-0.7-1.9-0.9-3.4-0.3-3.9c0.7-0.7,2.6-0.3,3.9,0.2
		C131.2,263.2,129.9,264.5,129.1,265.2z M129,167.3c0.8,0.6,2,1.7,3.5,3.1c-1.3,0.4-2.8,0.7-3.5,0.1
		C128.5,170.1,128.5,168.9,129,167.3z M159.3,163.9c0.6-0.3,1.9,0.5,2.9,1.3c-1.2,0.6-2.4,1-3.6,1.4
		C158.6,164.5,159.2,164,159.3,163.9z M164.4,162c0.5-0.3,1.5-0.1,2.4,0.3c-0.9,0.7-1.8,1.4-2.7,2C163.9,163.1,164,162.3,164.4,162z
		 M178.7,166.7c2.6-2.5,5.5-2.4,6.5-2.4l5.2,9.1c-2.6-2.2-5.9-4.4-8.5-4c-1,0.2-2.3,0.8-3,2.7c-2.5,6.1,1.8,12.9,3.8,15.6
		c-2.4,0.8-4.9,1.5-7.6,1.6C173.2,175.4,176,169.3,178.7,166.7z M257.9,189.4c-2.9,0.1-5.5-0.6-8.1-1.4c1.9-2.6,6.4-9.7,3.5-16
		c-0.8-1.9-2.2-2.5-3.2-2.6c-2.7-0.4-6,1.8-8.7,4l5.3-9.1c1-0.1,4.1-0.2,6.8,2.4C256.4,169.3,259.4,175.4,257.9,189.4z M302.9,166.8
		c0.7,1.9,0.9,3.4,0.3,3.9c-0.7,0.7-2.6,0.3-3.9-0.2C300.8,168.8,302.1,167.5,302.9,166.8z M283.7,217c0,8.6-7.4,16.7-22,24.1
		c-0.2-0.3-0.5-0.5-0.7-0.8c10.7-4.8,16.9-10.3,18.2-16.2c0.7-3.3-0.2-5.9-1-7.4l5.5,0C283.7,216.9,283.7,217,283.7,217z
		 M287.9,234.2c0,0.2-0.2,0.7-1.4,1.3c0.1-0.9,0.2-1.8,0.5-2.6C287.5,233.2,287.9,233.7,287.9,234.2z M297.7,259.9
		c-0.9-1-1.9-2.1-2.9-3.3c1.2,0,2.6,0.2,3.1,0.9C298.3,258.1,298.1,259,297.7,259.9z M293.1,254.4c-0.9-1.2-1.8-2.6-2.6-3.9
		c1.2,0.1,2.7,0.4,3.2,1.3C294,252.4,293.6,253.5,293.1,254.4z M289.2,248.1c-0.7-1.4-1.3-2.8-1.7-4.2c1.2,0.3,2.6,0.9,2.9,1.8
		C290.5,246.3,290.1,247.1,289.2,248.1z M286.8,241.5c-0.2-1.2-0.4-2.4-0.4-3.6c1.1,0.4,2.2,1.1,2.2,1.6
		C288.7,239.7,288.6,240.4,286.8,241.5z M291,259.5c-1.9-0.5-4.5-1-7.3-1.4l2.2-3.9C287.7,256.4,289.6,258.1,291,259.5z
		 M281.8,257.9c-1.3-0.1-2.6-0.2-4-0.2l4.6-8c0.7,1.1,1.5,2.2,2.3,3.2L281.8,257.9z M275.9,257.7c-1.4,0-2.9,0.1-4.3,0.3l8-13.8
		c0.5,1.3,1.2,2.6,1.9,3.8L275.9,257.7z M278.8,242.2l-9.4,16.2c-1,0.2-2,0.5-2.9,0.8c0.2-1.3,0.3-2.5,0.5-3.6l8.5-14.7
		c0.9-0.6,1.7-1.1,2.5-1.7C278.3,240.2,278.5,241.2,278.8,242.2z M266.5,244.9L266.5,244.9L266.5,244.9
		C266.5,245,266.5,244.9,266.5,244.9z M267.4,245.5c1.8-0.9,3.5-1.9,5.1-2.8l-5.2,9C267.5,248.7,267.4,246.5,267.4,245.5z
		 M266.7,243.9c0-0.8-0.4-1.7-1.2-2.1c-0.3-0.2-0.6-0.3-0.9-0.3c5.6-3,10-6.2,13.4-9.5c-0.3,1.8-0.4,3.5-0.2,5.2
		C274.7,239.5,271,241.7,266.7,243.9z M280.5,229.3c0.1-0.1,0.2-0.2,0.3-0.4l3.2,3c-1.4,1.4-2.9,2.8-4.6,4.1
		C279.4,233.8,279.7,231.5,280.5,229.3z M231.9,290.7c-0.2,0.1-0.8,0.4-2.6-0.6c0.9-0.8,1.9-1.5,2.9-2.2
		C232.4,289.1,232.4,290.3,231.9,290.7z M227.5,295.2c-0.4,0.5-1.4,0.5-2.7,0.3c0.8-1.3,1.8-2.5,2.8-3.6
		C227.9,293.1,228.1,294.5,227.5,295.2z M223.9,301.1c-0.4,0.7-1.5,0.9-2.6,0.8c0.6-1.4,1.3-2.9,2.1-4.2
		C223.9,298.8,224.4,300.3,223.9,301.1z M221,307.7c-0.3,0.6-1.2,0.9-2.1,1c0.4-1.3,0.8-2.7,1.4-4.2
		C220.9,305.6,221.4,306.9,221,307.7z M182,261c-0.8-0.1-1.4-0.7-1.9-1.6c-2.6-5.8,2.3-12.9,3.7-14.8c2.6,0.9,5.1,1.7,7.7,1.8
		c-3.9,2.1-7.8,4.8-8.6,7.1c-0.3,0.8-0.3,1.6,0.1,2.2c0.3,0.7,0.9,1.1,1.7,1.2c0.1,0,0.2,0,0.3,0c2.6,0,7.3-4,11-7.7l-2.3,3.9
		C191.5,255.6,185.4,261.5,182,261z M145.7,253.6l2.2,3.9c-2.8,0.5-5.2,1.2-7.1,1.8C142.2,257.8,144,255.9,145.7,253.6z
		 M149.7,257.2l-2.9-5.1c0.7-1,1.5-2.2,2.2-3.3l4.6,8C152.3,256.9,151,257,149.7,257.2z M155.5,256.7l-5.6-9.7
		c0.7-1.3,1.3-2.5,1.8-3.9l8,13.8C158.4,256.8,156.9,256.7,155.5,256.7z M161.9,257.4l-9.4-16.2c0.3-1,0.6-1.9,0.8-2.9
		c1,0.8,2,1.5,2.9,2.2l8.5,14.7c0,1.1,0.1,2.1,0.2,3.1C164,257.9,162.9,257.6,161.9,257.4z M159.5,242.6c2.5,1.6,4.4,2.7,5.3,3.1
		c-0.1,2-0.1,4-0.1,5.8L159.5,242.6z M165.6,245.3L165.6,245.3C165.7,245.2,165.7,245.2,165.6,245.3L165.6,245.3z M166.5,241.8
		c-0.8,0.5-1.3,1.4-1.2,2.3c-1.8-1-6.7-3.8-11.6-7.9c0.2-1.9,0.2-3.9-0.1-5.9c4.7,5.2,10.5,9.1,13.9,11.1
		C167.1,241.5,166.8,241.6,166.5,241.8z M134.2,259.9c-0.5-0.9-0.8-2-0.4-2.6c0.5-0.8,2-1,3.3-1
		C136.1,257.6,135.1,258.8,134.2,259.9z M138.6,254.1c-0.6-0.9-1.1-2-0.7-2.7c0.4-0.9,1.9-1.2,3.2-1.4
		C140.3,251.4,139.4,252.8,138.6,254.1z M142.2,247.6c-0.9-1-1.4-1.8-1.2-2.4c0.3-0.9,1.7-1.6,2.9-1.9
		C143.5,244.8,142.9,246.2,142.2,247.6z M145.2,235.1c-1.1-0.4-1.8-0.9-1.8-1.4c-0.1-0.6,0.7-1.4,1.4-2
		C145.1,232.9,145.2,234,145.2,235.1z M145.2,237.2c-0.1,1.3-0.3,2.6-0.6,3.9c-1.9-1.1-2-1.8-2-2C142.6,238.4,144,237.6,145.2,237.2
		z M148.3,214.9c0-8.6,7.4-16.7,22-24.1c0.2,0.3,0.5,0.5,0.7,0.8c-10.7,4.8-16.9,10.3-18.2,16.2c-0.7,3.3,0.2,5.9,1,7.4l-5.5,0
		C148.3,215.1,148.3,215,148.3,214.9z M144.1,197.8c0-0.2,0.2-0.7,1.4-1.3c-0.1,0.9-0.2,1.8-0.5,2.6
		C144.6,198.8,144.1,198.3,144.1,197.8z M134.3,172.1c0.9,1,1.9,2.1,2.9,3.3c-1.2,0-2.6-0.2-3.1-0.9
		C133.7,173.9,133.9,173,134.3,172.1z M138.9,177.6c0.9,1.2,1.8,2.6,2.6,3.9c-1.2-0.1-2.7-0.4-3.2-1.3
		C138,179.6,138.4,178.5,138.9,177.6z M142.8,183.9c0.7,1.4,1.3,2.8,1.7,4.2c-1.2-0.3-2.6-0.9-2.9-1.8
		C141.5,185.7,141.9,184.9,142.8,183.9z M145.2,190.5c0.2,1.2,0.4,2.4,0.4,3.6c-1.1-0.4-2.2-1.1-2.2-1.6
		C143.3,192.3,143.4,191.6,145.2,190.5z M141,172.5c1.9,0.5,4.5,1,7.3,1.4l-2.2,3.9C144.3,175.6,142.4,173.9,141,172.5z
		 M150.2,174.1c1.3,0.1,2.6,0.2,4,0.2l-4.6,8c-0.7-1.1-1.5-2.2-2.3-3.2L150.2,174.1z M156.1,174.3c1.4,0,2.9-0.1,4.3-0.3l-8,13.8
		c-0.5-1.3-1.2-2.6-1.9-3.8L156.1,174.3z M153.2,189.8l9.4-16.2c1-0.2,2-0.5,2.9-0.8c-0.2,1.3-0.3,2.5-0.5,3.6l-8.5,14.7
		c-0.9,0.6-1.7,1.1-2.5,1.7C153.7,191.8,153.5,190.8,153.2,189.8z M165.5,187.1L165.5,187.1L165.5,187.1
		C165.5,187,165.5,187.1,165.5,187.1z M164.6,186.5c-1.8,0.9-3.5,1.9-5.1,2.8l5.2-9C164.5,183.3,164.6,185.5,164.6,186.5z
		 M165.3,188.1c0,0.8,0.4,1.7,1.2,2.1c0.3,0.2,0.6,0.3,0.9,0.3c-5.6,3-10,6.2-13.4,9.5c0.3-1.8,0.4-3.5,0.2-5.2
		C157.3,192.5,161,190.3,165.3,188.1z M151.5,202.7c-0.1,0.1-0.2,0.2-0.3,0.4l-3.2-3c1.4-1.4,2.9-2.8,4.6-4.1
		C152.6,198.2,152.3,200.5,151.5,202.7z M200.1,141.3c0.2-0.1,0.8-0.4,2.6,0.6c-0.9,0.8-1.9,1.5-2.9,2.2
		C199.6,142.9,199.6,141.7,200.1,141.3z M204.5,136.8c0.4-0.5,1.4-0.5,2.7-0.3c-0.8,1.3-1.8,2.5-2.8,3.6
		C204.1,139,203.9,137.5,204.5,136.8z M208.1,130.9c0.4-0.7,1.5-0.9,2.6-0.8c-0.6,1.4-1.3,2.8-2.1,4.2
		C208.1,133.2,207.6,131.7,208.1,130.9z M211,124.3c0.3-0.6,1.2-0.9,2.1-1c-0.4,1.3-0.8,2.7-1.4,4.2
		C211.1,126.4,210.6,125.1,211,124.3z M250,171c0.8,0.1,1.4,0.7,1.9,1.6c2.6,5.8-2.3,12.9-3.7,14.8c-2.6-0.9-5.1-1.7-7.7-1.8
		c3.9-2.1,7.7-4.8,8.6-7.1c0.3-0.8,0.3-1.6-0.1-2.2c-0.3-0.7-0.9-1.1-1.7-1.2c-2.6-0.3-7.4,3.8-11.2,7.6l2.3-3.9
		C240.5,176.4,246.6,170.5,250,171z M277.5,223.9c-0.9,3.7-4.6,9.4-17.5,15.1c-1.5-2.5-2.3-5.1-2.8-7.7c0.7,0.1,1.7,0.2,2.9,0.2
		c3.9,0,9.6-0.8,12.7-5.1c1.2-1.7,1-3.1,0.7-4c-1-2.5-4.6-4.3-7.9-5.5l10.5,0C276.7,217.6,278.3,220.2,277.5,223.9z M237.1,254
		c1,3,3.1,11.3,0.9,13.9c-0.5,0.6-1.3,0.9-2.4,0.8c-6.3-0.7-10-8.5-10.9-10.6c2.1-1.8,4-3.5,5.4-5.7c-0.1,4.4,0.3,9.1,1.8,11
		c0.5,0.6,1.2,1,2,1.1c0.1,0,0.1,0,0.2,0c0.7,0,1.3-0.3,1.7-0.9c1.6-2.1,0.4-8.3-1-13.6L237.1,254z M195.1,254.1l1.7-2.8
		c-1.4,4.4-2.4,9.3-1.4,11.7c0.3,0.8,0.9,1.3,1.6,1.6c0.3,0.1,0.5,0.1,0.8,0.1c0.5,0,0.9-0.2,1.3-0.4c1.9-1.5,2.5-7,2.7-12.1
		c1.3,2.2,3.2,3.9,5.2,5.7c-1,2.5-4.4,9.8-10.5,10.6c-1.1,0.2-1.8-0.1-2.3-0.7C192,265.2,194.1,257.1,195.1,254.1z M154.5,208.2
		c0.8-3.7,4.6-9.4,17.5-15.2c1.5,2.5,2.3,5.1,2.8,7.7c-3.1-0.3-11.6-0.6-15.6,4.9c-1.2,1.7-1,3.1-0.7,4c1,2.5,4.6,4.3,7.9,5.5
		l-10.5,0C155.3,214.4,153.7,211.8,154.5,208.2z M194.9,178c-1-3-3.1-11.3-0.9-13.9c0.5-0.6,1.3-0.9,2.4-0.8
		c6.3,0.7,10,8.5,10.9,10.6c-2.1,1.8-4,3.5-5.4,5.7c0.1-4.4-0.3-9.1-1.8-11c-0.5-0.6-1.2-1-2-1.1c-0.8-0.1-1.4,0.2-1.9,0.9
		c-1.6,2.1-0.4,8.3,1,13.6L194.9,178z M236.9,177.9l-1.7,2.8c1.4-4.4,2.4-9.3,1.4-11.7c-0.3-0.8-0.9-1.3-1.6-1.6
		c-0.7-0.3-1.4-0.1-2,0.3c-1.9,1.5-2.5,7-2.7,12.1c-1.3-2.2-3.2-3.9-5.2-5.7c1-2.5,4.4-9.8,10.5-10.6c1.1-0.1,1.8,0.1,2.3,0.7
		C240,166.8,237.9,174.9,236.9,177.9z M256.8,229.5c-0.5-2.7-1-5.3-2.3-7.6c3.5,2.1,7.3,4,9.8,4c0.2,0,0.5,0,0.7-0.1
		c0.8-0.1,1.5-0.5,1.9-1.2c0.4-0.6,0.5-1.4,0.2-2.1c-1-2.4-7-4.5-12.3-5.9l4.6,0c3.1,0.6,11.3,3,12.5,6.2c0.3,0.8,0.1,1.6-0.5,2.4
		C267.7,230.5,259.1,229.8,256.8,229.5z M254.1,230c-0.4-1.1-0.8-2.2-1.3-3.2l1.5-0.6c0.3,1.1,0.5,2.3,0.8,3.6L254.1,230z
		 M223.7,256.7l-0.8-0.8c0.7-0.9,1.5-1.8,2.1-2.7l1.3,1C225.6,255.1,224.7,255.9,223.7,256.7z M208.3,256.7c-1-0.8-1.9-1.6-2.7-2.5
		l1.3-1c0.7,0.9,1.4,1.8,2.1,2.7L208.3,256.7z M198.1,262.8c-0.1,0.1-0.2,0.1-0.5,0.1c-0.2-0.1-0.4-0.2-0.6-0.6
		c-1.2-2.6,1.2-10.1,3.1-15.3C200.2,253.5,199.8,261.5,198.1,262.8z M177.9,230l-1.1-0.3c0.2-1.2,0.5-2.4,0.8-3.6l1.5,0.6
		C178.7,227.8,178.3,228.9,177.9,230z M175.2,202.5c0.5,2.7,1,5.3,2.3,7.6c-3.8-2.3-8-4.3-10.5-3.9c-0.8,0.1-1.5,0.5-1.9,1.2
		c-0.4,0.6-0.5,1.4-0.2,2.1c1,2.4,7,4.5,12.3,5.9l-4.6,0c-3.1-0.7-11.3-3-12.5-6.2c-0.3-0.8-0.1-1.6,0.5-2.4
		C164.3,201.5,172.9,202.2,175.2,202.5z M177.9,202c0.4,1.1,0.8,2.2,1.3,3.2l-1.5,0.6c-0.3-1.1-0.5-2.3-0.8-3.6L177.9,202z
		 M208.3,175.3l0.8,0.8c-0.7,0.9-1.5,1.8-2.1,2.7l-1.3-1C206.4,176.9,207.3,176.1,208.3,175.3z M223.7,175.3c1,0.8,1.9,1.6,2.7,2.5
		l-1.3,1c-0.7-0.9-1.4-1.8-2.1-2.7L223.7,175.3z M233.9,169.2c0.1-0.1,0.2-0.1,0.3-0.1c0.1,0,0.1,0,0.2,0c0.2,0.1,0.4,0.2,0.6,0.6
		c1.2,2.6-1.2,10.1-3.1,15.3C231.8,178.5,232.2,170.5,233.9,169.2z M254.1,202l1.1,0.3c-0.2,1.2-0.5,2.4-0.8,3.6l-1.5-0.6
		C253.3,204.2,253.7,203.1,254.1,202z M252.1,206.8l1.8,0.7c-0.4,1-0.8,1.9-1.4,2.7l-1.8-1.4C251.2,208.2,251.7,207.5,252.1,206.8z
		 M216,232.6c-9.2,0-16.6-7.4-16.6-16.6s7.4-16.6,16.6-16.6s16.6,7.4,16.6,16.6S225.2,232.6,216,232.6z M207.8,232.3l-3.6,8
		c-1.2-0.6-2.4-1.2-3.4-2l5.1-7.1C206.5,231.7,207.2,232,207.8,232.3z M201.9,245.4l2,0.1c0,0.9,0.2,1.7,0.4,2.5l-2.1,0.8
		C201.9,247.8,201.8,246.7,201.9,245.4z M203.9,243.8l-1.8-0.1c0.1-0.4,0.2-0.9,0.3-1.3l0.7-0.8c0.4,0.2,0.7,0.4,1.1,0.5
		C204,242.7,203.9,243.3,203.9,243.8z M205.8,241l3.6-8c0.7,0.3,1.3,0.5,2,0.7l-1.8,8.5C208.3,241.9,207,241.5,205.8,241z M213,234
		c0.7,0.1,1.4,0.2,2.1,0.2v8.7c-1.3,0-2.7-0.2-3.9-0.4L213,234z M216.8,234.2c0.7,0,1.4-0.1,2.1-0.2l1.8,8.6
		c-1.3,0.2-2.6,0.4-3.9,0.4V234.2z M222.4,242.2l-1.8-8.5c0.7-0.2,1.4-0.4,2-0.7l3.6,8C225,241.5,223.7,241.9,222.4,242.2z
		 M229.4,241.4c0.2,0.8,0.4,1.6,0.5,2.3l-1.8,0.1c0-0.5-0.1-1.1-0.2-1.7C228.4,241.9,228.9,241.6,229.4,241.4z M228.1,245.5l2-0.1
		c0.1,1.3,0,2.4-0.3,3.5l-2.1-0.8C227.9,247.2,228.1,246.4,228.1,245.5z M227.7,240.3l-3.6-8c0.6-0.3,1.3-0.7,1.9-1.1l5.1,7.1
		C230.1,239.1,228.9,239.7,227.7,240.3z M181.3,214.6c-6.4-1.5-14-3.9-14.9-5.9c-0.1-0.2-0.1-0.3,0.1-0.5c0.1-0.1,0.3-0.4,0.8-0.4
		c0.2,0,0.3,0,0.5,0C170.8,207.7,177,211.6,181.3,214.6z M166.5,223.9c-0.2-0.1-0.2-0.1-0.3-0.4c0-0.2,0-0.5,0.2-0.9
		c1.7-2.3,9.4-4.1,14.8-5C175.6,221.1,168.5,224.7,166.5,223.9z M189,216c0-0.7,0.1-1.3,0.1-2l8.7,0.9c0,0.4-0.1,0.7-0.1,1.1
		s0,0.7,0.1,1.1l-8.7,0.9C189,217.3,189,216.7,189,216z M224.2,199.7l3.6-8c1.2,0.6,2.4,1.2,3.4,2l-5.1,7.1
		C225.5,200.3,224.8,200,224.2,199.7z M230.1,186.6l-2-0.1c0-0.9-0.2-1.7-0.4-2.5l2.1-0.8C230.1,184.2,230.2,185.3,230.1,186.6z
		 M228.1,188.2l1.8,0.1c-0.1,0.4-0.2,0.9-0.3,1.3l-0.7,0.8c-0.4-0.2-0.7-0.4-1.1-0.5C228,189.3,228.1,188.7,228.1,188.2z M226.2,191
		l-3.6,8c-0.7-0.3-1.3-0.5-2-0.7l1.8-8.5C223.7,190.1,225,190.5,226.2,191z M219,198c-0.7-0.1-1.4-0.2-2.1-0.2V189
		c1.3,0,2.7,0.2,3.9,0.4L219,198z M215.2,197.8c-0.7,0-1.4,0.1-2.1,0.2l-1.8-8.6c1.3-0.2,2.6-0.4,3.9-0.4V197.8z M209.6,189.8
		l1.8,8.5c-0.7,0.2-1.4,0.4-2,0.7l-3.6-8C207,190.5,208.3,190.1,209.6,189.8z M202.6,190.6c-0.2-0.8-0.4-1.6-0.5-2.3l1.8-0.1
		c0,0.5,0.1,1.1,0.2,1.7C203.6,190.1,203.1,190.4,202.6,190.6z M203.9,186.5l-2,0.1c-0.1-1.3,0-2.4,0.3-3.5l2.1,0.8
		C204.1,184.8,203.9,185.6,203.9,186.5z M204.3,191.7l3.6,8c-0.6,0.3-1.3,0.7-1.9,1.1l-5.1-7.1C201.9,192.9,203.1,192.3,204.3,191.7
		z M234.2,214.9l8.7-0.9c0,0.7,0.1,1.3,0.1,2s-0.1,1.3-0.1,2l-8.7-0.9c0-0.4,0.1-0.7,0.1-1.1S234.3,215.3,234.2,214.9z M250.7,217.4
		c6.4,1.5,14,3.9,14.9,5.9c0.1,0.2,0.1,0.3-0.1,0.5c-0.1,0.1-0.3,0.4-0.8,0.4C261.9,224.7,255.2,220.6,250.7,217.4z M264.8,208
		c0.3,0,0.5,0,0.7,0.1c0.2,0.1,0.2,0.1,0.3,0.4c0,0.2,0,0.5-0.2,0.9c-1.7,2.3-9.4,4.1-14.8,5C255.9,211.3,262.1,208,264.8,208z
		 M249.6,210.1l1.8,1.4c-0.8,0.8-1.7,1.4-2.8,2l-0.9-1.8C248.3,211.3,249,210.7,249.6,210.1z M246.1,212.6l0.8,1.6
		c-0.4,0.2-0.8,0.3-1.3,0.4l-1.1-0.2c0-0.4,0-0.8-0.1-1.2C245.1,213,245.6,212.8,246.1,212.6z M234.1,213.3
		c-0.1-0.7-0.3-1.4-0.4-2.1l8.3-2.7c0.4,1.3,0.6,2.6,0.8,3.9L234.1,213.3z M233.1,209.6c-0.3-0.7-0.5-1.3-0.9-2l7.6-4.4
		c0.6,1.2,1.1,2.4,1.6,3.6L233.1,209.6z M231.4,206.1c-0.4-0.6-0.8-1.2-1.2-1.7l6.5-5.8c0.9,1,1.6,2.1,2.3,3.2L231.4,206.1z
		 M229,203.2c-0.5-0.5-1-1-1.6-1.4l5.1-7.1c1,0.8,2,1.7,2.9,2.6L229,203.2z M231.3,191.7c0.6-0.6,1.2-1.2,1.8-1.6l1,1.6
		c-0.5,0.3-0.9,0.7-1.3,1C232.2,192.3,231.7,192,231.3,191.7z M235.5,190.8l-1.1-1.7c1.1-0.7,2.1-1.2,3.2-1.5l0.3,2.2
		C237.1,190.1,236.3,190.4,235.5,190.8z M227.2,182.4c-0.3-0.8-0.7-1.5-1.1-2.2l1.5-1.2c0.7,0.8,1.2,1.6,1.7,2.6L227.2,182.4z
		 M226.3,189.2c-3.2-1.2-6.7-1.9-10.3-1.9s-7.1,0.7-10.3,1.9c-0.9-5.6,1.9-8.9,5.2-12.7c1.9-2.2,3.8-4.4,5.1-7.2
		c1.3,2.8,3.2,5,5.1,7.2C224.4,180.3,227.2,183.6,226.3,189.2z M204.4,179l1.5,1.2c-0.4,0.7-0.8,1.5-1.1,2.2l-2.1-0.8
		C203.2,180.6,203.8,179.8,204.4,179z M199.9,185.2c-1.9-6.3-3.7-14.1-2.3-15.8c0.1-0.1,0.2-0.2,0.4-0.2c0,0,0,0,0.1,0
		c0.2,0,0.5,0.1,0.8,0.5C200.6,171.9,200.4,179.8,199.9,185.2z M197.6,189.1l-1.1,1.7c-0.8-0.4-1.6-0.7-2.4-0.9l0.3-2.2
		C195.5,187.9,196.5,188.4,197.6,189.1z M199,190.1c0.3,0.3,0.7,0.6,1,0.9l0.3,1c-0.3,0.2-0.7,0.5-1,0.7c-0.4-0.4-0.9-0.7-1.3-1
		L199,190.1z M199.5,194.7l5.1,7.1c-0.6,0.4-1.1,0.9-1.6,1.4l-6.5-5.8C197.4,196.4,198.4,195.5,199.5,194.7z M195.4,198.6l6.5,5.8
		c-0.5,0.5-0.9,1.1-1.2,1.7l-7.6-4.4C193.8,200.7,194.5,199.6,195.4,198.6z M192.2,203.2l7.6,4.4c-0.3,0.6-0.6,1.3-0.9,2l-8.3-2.7
		C191.1,205.6,191.6,204.4,192.2,203.2z M190.1,208.5l8.3,2.7c-0.2,0.7-0.3,1.4-0.4,2.1l-8.7-0.9C189.4,211,189.7,209.7,190.1,208.5
		z M187.3,214.9c-0.8-0.2-1.6-0.4-2.3-0.7l0.8-1.6c0.5,0.2,1,0.4,1.6,0.6C187.4,213.8,187.4,214.4,187.3,214.9z M183.5,213.5
		c-1.2-0.6-2.1-1.3-2.8-2l1.8-1.4c0.6,0.6,1.2,1.1,2,1.6L183.5,213.5z M179.5,210.2c-0.6-0.8-1-1.8-1.4-2.7l1.8-0.7
		c0.4,0.7,0.8,1.4,1.4,2.1L179.5,210.2z M175.9,217c-4.5,1-9.3,2.6-10.8,4.7c-0.5,0.7-0.7,1.4-0.5,2.2c0.1,0.8,0.6,1.3,1.3,1.6
		c0.4,0.1,0.8,0.2,1.3,0.2c2.6,0,6.7-1.9,10.5-4c-1.3,2.2-1.8,4.7-2.3,7.3c-2.7,0.4-10.7,1.1-14.4-3.7c-0.7-0.8-0.8-1.6-0.6-2.4
		c1.2-3.1,9.2-5.3,12.3-5.9L175.9,217z M179.9,225.2l-1.8-0.7c0.4-1,0.8-1.9,1.4-2.7l1.8,1.4C180.8,223.8,180.3,224.5,179.9,225.2z
		 M182.4,221.9l-1.8-1.4c0.8-0.8,1.7-1.4,2.8-2l0.9,1.8C183.7,220.7,183,221.3,182.4,221.9z M185.9,219.4l-0.8-1.6
		c0.4-0.2,0.8-0.3,1.3-0.4l1.1,0.2c0,0.4,0,0.8,0.1,1.2C186.9,219,186.4,219.2,185.9,219.4z M197.9,218.7c0.1,0.7,0.3,1.4,0.4,2.1
		l-8.3,2.7c-0.4-1.3-0.6-2.6-0.8-3.9L197.9,218.7z M198.9,222.4c0.3,0.7,0.5,1.3,0.9,2l-7.6,4.4c-0.6-1.2-1.1-2.4-1.6-3.6
		L198.9,222.4z M200.6,225.9c0.4,0.6,0.8,1.2,1.2,1.7l-6.5,5.8c-0.9-1-1.6-2.1-2.3-3.2L200.6,225.9z M203,228.8c0.5,0.5,1,1,1.6,1.4
		l-5.1,7.1c-1-0.8-2-1.7-2.9-2.6L203,228.8z M200.7,240.3c-0.6,0.6-1.2,1.2-1.8,1.6l-1-1.6c0.5-0.3,0.9-0.7,1.4-1
		C199.8,239.7,200.3,240,200.7,240.3z M196.5,241.2l1.1,1.7c-1.1,0.7-2.1,1.2-3.2,1.5l-0.3-2.2C194.9,241.9,195.7,241.6,196.5,241.2
		z M204.8,249.6c0.3,0.8,0.7,1.5,1.1,2.2l-1.5,1.2c-0.7-0.8-1.2-1.6-1.7-2.6L204.8,249.6z M205.7,242.8c3.2,1.2,6.7,1.9,10.3,1.9
		s7.1-0.7,10.3-1.9c0.9,5.6-1.9,8.9-5.2,12.7c-1.9,2.2-3.8,4.4-5.1,7.2c-1.3-2.8-3.2-5-5.1-7.2C207.6,251.7,204.8,248.4,205.7,242.8
		z M227.6,253l-1.5-1.2c0.4-0.7,0.8-1.5,1.1-2.2l2.1,0.8C228.8,251.4,228.2,252.2,227.6,253z M232.1,246.8
		c1.9,6.3,3.7,14.1,2.3,15.8c-0.1,0.1-0.2,0.2-0.4,0.2c-0.2,0-0.5-0.1-0.8-0.5C231.4,260.1,231.6,252.2,232.1,246.8z M234.4,242.9
		l1.1-1.7c0.8,0.4,1.6,0.7,2.4,0.9l-0.3,2.2C236.5,244.1,235.5,243.6,234.4,242.9z M233,241.9c-0.3-0.3-0.7-0.6-1-0.9l-0.4-1
		c0.3-0.2,0.7-0.5,1-0.7c0.4,0.4,0.9,0.7,1.4,1L233,241.9z M232.5,237.3l-5.1-7.1c0.6-0.4,1.1-0.9,1.6-1.4l6.5,5.8
		C234.6,235.6,233.6,236.5,232.5,237.3z M236.6,233.4l-6.5-5.8c0.5-0.5,0.9-1.1,1.2-1.7l7.6,4.4
		C238.2,231.3,237.5,232.4,236.6,233.4z M239.8,228.8l-7.6-4.4c0.3-0.6,0.6-1.3,0.9-2l8.3,2.7C240.9,226.4,240.4,227.6,239.8,228.8z
		 M241.9,223.5l-8.3-2.7c0.2-0.7,0.3-1.4,0.4-2.1l8.7,0.9C242.6,221,242.3,222.3,241.9,223.5z M244.7,217.1c0.8,0.2,1.6,0.4,2.3,0.7
		l-0.8,1.6c-0.5-0.2-1-0.4-1.6-0.6C244.6,218.2,244.6,217.6,244.7,217.1z M248.5,218.5c1.2,0.6,2.1,1.3,2.8,2l-1.8,1.4
		c-0.6-0.6-1.2-1.1-2-1.6L248.5,218.5z M252.5,221.8c0.6,0.8,1,1.8,1.4,2.7l-1.8,0.7c-0.4-0.7-0.8-1.4-1.4-2.1L252.5,221.8z
		 M256.1,215c4.5-1,9.3-2.6,10.8-4.7c0.5-0.7,0.7-1.4,0.5-2.2c-0.1-0.8-0.6-1.3-1.3-1.6c-2.2-0.9-7.3,1.3-11.8,3.7
		c1.3-2.2,1.8-4.7,2.3-7.3c2.7-0.4,10.7-1.1,14.4,3.8c0.7,0.8,0.8,1.6,0.6,2.4c-1.2,3.1-9.2,5.3-12.3,5.9L256.1,215z M255.5,200.7
		l-0.8-0.2c0.7-2.1,1.5-4.1,2.7-6C256.4,196.5,255.9,198.6,255.5,200.7z M252.8,200.6c-1.7,4.8-3.1,8.9-8.4,10.9
		c-1.1-7.2-4.9-13.4-10.3-17.8c4.4-3.6,8.7-2.8,13.6-1.9c2.8,0.5,5.7,1.1,8.8,0.8C254.7,195.1,253.7,197.9,252.8,200.6z M247.1,190
		c-1.1-0.2-2.3-0.4-3.4-0.5l0.2-1.7c1.1,0.3,2.3,0.7,3.5,1.1L247.1,190z M242,189.4c-0.8,0-1.7,0-2.5,0.1l-0.3-2.2
		c1-0.1,2,0,3.1,0.2L242,189.4z M234.6,186.7c4.4-4.7,10.1-10,12.4-10c0.1,0,0.1,0,0.2,0c0.2,0,0.3,0.1,0.4,0.3
		c0.1,0.2,0.2,0.4,0,0.9C246.5,180.6,239.6,184.3,234.6,186.7z M221.8,174.8c-1.4-1.7-2.8-3.4-3.9-5.4c1.3,1.8,2.9,3.4,4.5,4.7
		L221.8,174.8z M210.2,174.8l-0.6-0.6c1.5-1.4,3.1-2.9,4.5-4.7C213,171.4,211.6,173.1,210.2,174.8z M192.5,189.5
		c-0.8-0.1-1.7-0.1-2.5-0.1l-0.2-1.9c1-0.2,2-0.3,3.1-0.2L192.5,189.5z M188.1,187.8l0.2,1.7c-1.1,0.1-2.3,0.3-3.4,0.5l-0.3-1.1
		C185.8,188.5,186.9,188.1,188.1,187.8z M184.3,191.8c5-0.9,9.3-1.7,13.6,1.9c-5.4,4.4-9.1,10.7-10.3,17.8c-5.3-2-6.8-6.1-8.4-10.9
		c-1-2.7-1.9-5.5-3.7-8C178.6,192.9,181.5,192.4,184.3,191.8z M177.4,200.4l-0.8,0.2c-0.4-2-0.9-4.1-1.9-6.2
		C175.9,196.3,176.6,198.4,177.4,200.4z M155.9,216.9l10.5,0c-3.3,1.2-6.8,2.9-7.7,5.4c-0.3,0.9-0.5,2.3,0.8,4c3,3.9,8.1,4.7,12,4.7
		c1.4,0,2.6-0.1,3.4-0.2c-0.5,2.5-1.1,5-2.4,7.3c-13.1-5.3-17-10.8-17.9-14.4C153.8,220.2,155.3,217.7,155.9,216.9z M176.5,231.3
		l0.8,0.2c-0.7,2.1-1.5,4.1-2.7,6C175.6,235.5,176.1,233.4,176.5,231.3z M179.2,231.4c1.7-4.8,3.1-8.9,8.4-10.9
		c1.1,7.2,4.9,13.4,10.3,17.8c-4.4,3.6-8.7,2.8-13.6,1.9c-2.8-0.5-5.7-1.1-8.8-0.8C177.3,236.9,178.3,234.1,179.2,231.4z M184.9,242
		c1.1,0.2,2.3,0.4,3.4,0.5l-0.2,1.7c-1.1-0.3-2.3-0.7-3.5-1.1L184.9,242z M190,242.6c0.2,0,0.3,0,0.5,0c0.7,0,1.3,0,2-0.1l0.3,2.2
		c-1,0.1-2,0-3.1-0.2L190,242.6z M197.4,245.3c-4.5,4.8-10.4,10.2-12.5,9.9c-0.2,0-0.3-0.1-0.4-0.3c-0.1-0.2-0.2-0.4,0-0.9
		C185.5,251.4,192.4,247.7,197.4,245.3z M210.2,257.2c1.4,1.7,2.8,3.4,3.9,5.4c-1.3-1.8-2.9-3.4-4.5-4.7L210.2,257.2z M221.8,257.2
		l0.6,0.6c-1.5,1.4-3.1,2.9-4.5,4.7C219,260.6,220.4,258.9,221.8,257.2z M247.6,255c0,0.2,0,0.3-0.2,0.4c-0.1,0.1-0.4,0.3-0.9,0.2
		c-2.9-0.3-8.2-6.1-11.7-10.3C240.6,248.5,247.3,252.8,247.6,255z M239.5,242.5c0.7,0.1,1.3,0.1,2,0.1c0.2,0,0.3,0,0.5,0l0.2,1.9
		c-1,0.2-2,0.3-3.1,0.2L239.5,242.5z M243.9,244.2l-0.2-1.7c1.1-0.1,2.3-0.3,3.4-0.5l0.3,1.1C246.2,243.5,245.1,243.9,243.9,244.2z
		 M247.7,240.2c-4.9,0.9-9.3,1.7-13.6-1.9c5.4-4.4,9.1-10.7,10.3-17.8c5.3,2,6.8,6.1,8.4,10.9c1,2.7,1.9,5.5,3.7,8
		C253.4,239.1,250.5,239.6,247.7,240.2z M254.6,231.6l0.8-0.2c0.4,2,0.9,4.1,1.9,6.2C256.1,235.7,255.4,233.6,254.6,231.6z
		 M276.1,215.1l-10.5,0c3.3-1.2,6.8-2.9,7.7-5.4c0.3-0.9,0.5-2.3-0.8-4c-4.1-5.2-12-4.9-15.4-4.5c0.5-2.5,1.1-5,2.4-7.4
		c13.1,5.3,17,10.8,17.9,14.4C278.2,211.8,276.7,214.3,276.1,215.1z M248.8,190.3l0.2-0.8c2,0.7,4.1,1.3,6.3,1.5
		C253.1,191.1,250.9,190.7,248.8,190.3z M239.2,163.2c-0.6-0.7-1.8-1.6-3.9-1.3c-6.6,0.9-10.2,8-11.6,11.1c-1.9-1.7-3.7-3.5-5.2-5.8
		c11.2-8.7,17.8-9.3,21.4-8.3c3.4,1,4.9,3.6,5.3,4.5l-5.3,9.1C240.6,169.2,240.9,165.2,239.2,163.2z M213.5,138h5.9
		c0.5,1.2,1.1,2.4,1.8,3.5h-9.3C212.5,140.4,213,139.2,213.5,138z M214.1,136.3c0.9-2.6,1.6-5.1,2-7.1c0.5,1.9,1.4,4.4,2.5,7.1
		H214.1z M211,143.3h11.2c0.7,1.2,1.6,2.4,2.4,3.5h-15.9C209.5,145.7,210.3,144.5,211,143.3z M207.2,148.5H226
		c0.7,0.8,1.4,1.5,2.2,2.1c-1.2,0.5-2.3,0.9-3.4,1.4h-17c-0.9-0.5-1.9-0.9-2.8-1.4C205.8,150,206.5,149.3,207.2,148.5z M221.2,153.7
		c-2.6,1.3-4.5,2.5-5.4,3c-1.7-1.1-3.4-2.1-5-3H221.2z M217,158c1.8-1.1,6.6-3.9,12.6-6.1c1.5,1.2,3.3,2.1,5.1,2.8
		c-6.8,1.4-13.1,4.6-16.6,6.5c0.1-0.3,0.2-0.7,0.2-1C218.4,159.2,217.8,158.4,217,158z M231.6,151.2c1.3-0.4,2.7-0.8,4.1-1.2
		l1.2,3.7C235,153.2,233.2,152.3,231.6,151.2z M233.1,144.1c-1.1-0.7-2.1-1.5-3-2.4c1.9-1.1,2.6-0.9,2.7-0.8
		C233.3,141.3,233.3,142.8,233.1,144.1z M228.4,140c-1-1.1-2-2.4-2.9-3.7c1.3-0.3,2.3-0.3,2.7,0.2
		C228.9,137.2,228.7,138.8,228.4,140z M224,134.1c-0.8-1.4-1.6-2.8-2.3-4.2c1.1-0.1,2.3,0.1,2.7,0.8C225,131.5,224.5,133,224,134.1z
		 M220.6,127.5c-0.7-1.5-1.2-3-1.7-4.3c1,0.1,2.1,0.3,2.5,1C221.8,125,221.2,126.4,220.6,127.5z M236.9,148c-2.4,0.5-4.7,1.2-6.9,2
		c-9.8-8.1-13.1-24.7-13.1-24.9l-1-5.3l-0.6,5.4c0,0.2-2.1,17.1-11.9,24.8c-2.4-1-4.6-1.8-6.8-2.4c1.1-0.4,2.1-0.8,3.1-1.4
		c0,0,0.1,0,0.1,0c0,0,0,0,0,0c10.6-5.8,14.8-19.7,16.2-26.7C218,127,224,143.3,236.9,148z M234.8,145.2c0.9-0.7,1.7-1.1,2.1-0.9
		c0.5,0.2,0.8,1.2,1,2.2C236.8,146.2,235.8,145.7,234.8,145.2z M195.1,146.2c0.1-0.7,0.3-1.3,0.7-1.5c0.1-0.1,0.7-0.2,1.8,0.6
		C196.8,145.6,196,145.9,195.1,146.2z M201.6,151c-1.9,1.2-4,2-6.4,2.4c-0.2,0-0.3-0.1-0.5-0.1l1-4.3
		C197.6,149.6,199.6,150.2,201.6,151z M203.5,151.8c3.5,1.6,7.3,3.7,11.3,6.3c-0.7,0.4-1.2,1.2-1.2,2.1c0,0.3,0.1,0.6,0.2,0.9
		c-5.4-3.3-10.4-5.6-14.9-6.9C200.5,153.6,202.1,152.8,203.5,151.8z M208.6,172.7c-1.3-2.9-5.3-10.4-12.1-11.1
		c-2.1-0.2-3.2,0.7-3.8,1.4c-1.7,2.1-1.5,6.1-0.9,9.6l-5.2-9.1c0.4-0.9,1.9-3.6,5.4-4.7c3.7-1.1,10.4-0.7,21.9,7.6
		C212.5,169,210.6,170.9,208.6,172.7z M193.5,178.9l1.6,2.9c-3.1-3.4-6.9-6.8-9.5-7c-0.8-0.1-1.6,0.1-2.2,0.6
		c-0.6,0.5-0.8,1.2-0.8,1.9c0.3,2.4,4.8,5.7,9.1,8.3c-2.5,0-5,0.8-7.5,1.6c-1.7-2.1-6.3-8.7-4-14.4c0.4-1,1-1.5,1.8-1.7
		C185.4,170.6,191.4,176.5,193.5,178.9z M197.2,186.7c-5.8-3.2-12.5-7.5-12.8-9.7c0-0.2,0-0.3,0.2-0.4c0.1-0.1,0.3-0.2,0.7-0.2
		c0.1,0,0.1,0,0.2,0C188.3,176.7,193.7,182.4,197.2,186.7z M183,189.5l0.2,0.8c-2.1,0.4-4.3,0.7-6.6,0.7
		C178.9,190.7,181,190.1,183,189.5z M151,227.2l-3.1,3.5c-1.5-1.7-2.9-3.6-4.1-5.6l4.6-2.6C149,224.1,149.9,225.7,151,227.2z
		 M151.6,229c0.5,1.9,0.6,3.9,0.5,5.9c-1.1-0.9-2.1-1.9-3.1-3L151.6,229z M148.5,216.8l5.4,0c-0.8,1.5-1.7,4-0.9,7.2
		c1.4,5.8,7.7,11,18.6,15.5c-0.4,0.5-0.8,1.1-1.3,1.6C167,239.3,150,229.5,148.5,216.8z M183.2,241.7l-0.2,0.8
		c-2-0.7-4.1-1.3-6.4-1.5C178.9,240.9,181.1,241.3,183.2,241.7z M192.8,268.8c0.5,0.6,1.5,1.4,3.1,1.4c0.3,0,0.5,0,0.8-0.1
		c6.6-0.9,10.2-8,11.6-11.1c1.9,1.7,3.7,3.5,5.2,5.8c-11.2,8.7-17.8,9.3-21.4,8.3c-3.4-1-4.9-3.6-5.3-4.5l5.3-9.1
		C191.4,262.8,191.1,266.8,192.8,268.8z M218.5,294h-5.9c-0.5-1.2-1.1-2.4-1.8-3.5h9.3C219.5,291.6,219,292.8,218.5,294z
		 M217.9,295.7c-0.9,2.6-1.6,5.1-2,7.1c-0.5-1.9-1.4-4.4-2.5-7.1H217.9z M221,288.7h-11.2c-0.7-1.2-1.6-2.4-2.4-3.5h15.9
		C222.5,286.3,221.7,287.5,221,288.7z M224.8,283.5H206c-0.7-0.8-1.4-1.5-2.2-2.1c1.2-0.5,2.3-0.9,3.4-1.4h17
		c0.9,0.5,1.8,0.9,2.8,1.4C226.2,282,225.5,282.7,224.8,283.5z M210.8,278.3c2.6-1.4,4.5-2.5,5.4-3c1.7,1.1,3.4,2.1,5,3H210.8z
		 M216.2,274.2L216.2,274.2C216.2,274.2,216.2,274.2,216.2,274.2L216.2,274.2z M215,274c-1.8,1.1-6.6,3.9-12.6,6.1
		c-1.5-1.2-3.3-2.1-5.1-2.8c6.8-1.4,13.1-4.6,16.6-6.5c-0.1,0.3-0.2,0.7-0.2,1C213.6,272.8,214.2,273.6,215,274z M200.4,280.8
		c-1.3,0.4-2.7,0.8-4.1,1.2l-1.2-3.7C197,278.8,198.8,279.7,200.4,280.8z M198.9,287.9c1.1,0.7,2.1,1.5,3,2.4
		c-1.9,1.1-2.6,0.9-2.7,0.8C198.7,290.7,198.7,289.2,198.9,287.9z M203.6,292c1,1.1,2,2.4,2.9,3.7c-1.3,0.3-2.3,0.3-2.7-0.2
		C203.1,294.8,203.3,293.2,203.6,292z M208,297.9c0.8,1.4,1.6,2.8,2.3,4.2c-1.1,0.1-2.3-0.1-2.7-0.8C207,300.5,207.5,299,208,297.9z
		 M211.4,304.5c0.7,1.5,1.2,3,1.7,4.3c-1-0.1-2.1-0.3-2.5-1C210.2,307,210.8,305.6,211.4,304.5z M195.1,284c2.4-0.5,4.7-1.2,6.9-2
		c9.8,8.1,13.1,24.7,13.1,24.9l1,5.3l0.6-5.4c0-0.2,2.1-17.1,11.9-24.8c2.4,1,4.6,1.8,6.8,2.4c-1.1,0.4-2.2,0.8-3.2,1.4
		c0,0-0.1,0-0.1,0c0,0,0,0,0,0c-10.6,5.8-14.8,19.7-16.2,26.7C214,305,208,288.7,195.1,284z M197.2,286.8c-0.9,0.7-1.7,1.1-2.1,0.9
		c-0.5-0.2-0.8-1.2-1-2.2C195.2,285.8,196.2,286.3,197.2,286.8z M236.9,285.8c-0.1,0.7-0.3,1.3-0.7,1.5c-0.2,0.1-0.7,0.2-1.8-0.6
		C235.2,286.4,236,286.1,236.9,285.8z M230.4,281c1.9-1.2,4-2.1,6.4-2.4c0.1,0,0.3,0,0.4,0.1l-1,4.3
		C234.4,282.4,232.4,281.8,230.4,281z M228.5,280.2c-3.5-1.6-7.3-3.7-11.3-6.3c0.7-0.4,1.2-1.2,1.2-2.1c0-0.3-0.1-0.6-0.2-0.9
		c5.4,3.3,10.4,5.6,15,6.9C231.5,278.3,229.9,279.2,228.5,280.2z M223.4,259.3c1.3,2.9,5.3,10.4,12.1,11.1c0.2,0,0.4,0,0.6,0
		c1.7,0,2.7-0.8,3.2-1.5c1.7-2.1,1.5-6.1,0.9-9.6l5.2,9.1c-0.4,0.9-1.9,3.6-5.4,4.7c-3.7,1.1-10.4,0.7-21.9-7.6
		C219.5,263,221.4,261.1,223.4,259.3z M238.5,253.1l-1.6-2.9c3.1,3.4,6.9,6.8,9.5,7c0.1,0,0.2,0,0.4,0c0.7,0,1.3-0.2,1.8-0.6
		c0.6-0.5,0.8-1.2,0.8-1.9c-0.3-2.4-4.8-5.7-9.1-8.3c2.5,0,5-0.8,7.5-1.6c1.7,2.1,6.3,8.7,4,14.4c-0.4,1-1,1.5-1.8,1.7
		C246.6,261.3,240.6,255.5,238.5,253.1z M249,242.5l-0.2-0.8c2.1-0.4,4.3-0.7,6.6-0.7C253.1,241.3,251,241.9,249,242.5z
		 M278.1,215.1c0.8-1.5,1.7-4,0.9-7.2c-1.4-5.8-7.7-11-18.6-15.5c0.4-0.5,0.8-1.1,1.3-1.6c3.4,1.8,20.3,11.7,21.9,24.3L278.1,215.1z
		 M286.3,178.4l-2.2-3.9c2.8-0.5,5.2-1.2,7.1-1.8C289.8,174.2,288,176.1,286.3,178.4z M282.3,174.8l2.9,5.1c-0.7,1-1.5,2.2-2.2,3.3
		l-4.6-8C279.7,175.1,281,175,282.3,174.8z M276.5,175.3l5.6,9.7c-0.7,1.3-1.3,2.5-1.8,3.9l-8-13.8
		C273.6,175.2,275.1,175.3,276.5,175.3z M270.1,174.6l9.4,16.2c-0.3,1-0.6,1.9-0.8,2.9c-1-0.8-2-1.5-2.9-2.2l-8.5-14.7
		c0-1.1-0.1-2.1-0.2-3.1C268,174.1,269.1,174.4,270.1,174.6z M272.5,189.4c-2.5-1.6-4.4-2.7-5.3-3.1c0.1-2,0.1-4,0.1-5.8
		L272.5,189.4z M266.4,186.7L266.4,186.7C266.3,186.8,266.3,186.8,266.4,186.7L266.4,186.7z M265.5,190.2c0.8-0.5,1.3-1.4,1.2-2.3
		c1.8,1,6.7,3.8,11.6,7.9c-0.2,1.9-0.2,3.9,0.1,5.8c-4.7-5.2-10.5-9.1-13.9-11.1C264.9,190.5,265.2,190.4,265.5,190.2z M279.9,197.1
		c1.1,0.9,2.1,1.9,3.1,3l-2.6,2.9C279.9,201,279.8,199.1,279.9,197.1z M281,204.8l3.1-3.5c1.5,1.7,3,3.6,4.1,5.6l-4.6,2.6
		C283,207.9,282.1,206.3,281,204.8z M297.8,172.1c0.5,0.9,0.8,2,0.4,2.6c-0.5,0.8-2.1,1-3.3,1C295.9,174.4,296.9,173.2,297.8,172.1z
		 M293.4,177.9c0.6,0.9,1.1,2,0.7,2.7c-0.4,0.9-1.9,1.2-3.2,1.4C291.7,180.6,292.6,179.2,293.4,177.9z M289.8,184.4
		c0.9,1,1.4,1.8,1.2,2.4c-0.3,0.9-1.7,1.6-2.9,1.9C288.5,187.2,289.1,185.8,289.8,184.4z M286.8,196.9c1.1,0.4,1.8,0.9,1.8,1.4
		c0.1,0.6-0.7,1.4-1.4,2C286.9,199.1,286.8,198,286.8,196.9z M286.8,194.8c0.1-1.3,0.3-2.6,0.6-3.9c1.9,1.1,2,1.8,2,2
		C289.4,193.6,288,194.4,286.8,194.8z M288,203.4c-0.2-0.5-0.3-0.9-0.5-1.4c1-0.7,2.9-2.2,2.7-3.9c-0.1-0.9-0.6-1.6-1.6-2.2
		c1.1-0.6,2.4-1.5,2.5-2.8c0.1-1.1-0.5-2.1-1.9-3c1.4-0.5,3-1.3,3.4-2.8c0.3-1.1-0.1-2.3-1.2-3.6c1.5-0.2,3.4-0.8,4.2-2.3
		c0.6-1.1,0.4-2.4-0.5-4c1.5,0,3.6-0.4,4.5-1.8c0.4-0.6,0.5-1.2,0.4-2c4.5,3.6,12.7,11.4,11.1,18.2c-1.3,5.6-9,9.6-23,11.9
		C288.2,203.6,288.1,203.5,288,203.4z M285.4,200.1c-1.6-1.8-3.4-3.5-5.2-5c2.2-12.5,14.8-23.7,15-23.8l4.1-3.6l-5,2.1
		c-0.2,0.1-15.9,6.7-27.4,2.1c-0.3-2.5-0.7-4.9-1.3-7c10.3,9,26.7,5.2,34.1,2.7C294.1,173.3,283,186.6,285.4,200.1z M290.6,168
		c0.6-1.1,1.5-2.1,2.4-2.2c0.7-0.1,1.4,0.6,1.9,1.3C293.5,167.5,292.1,167.8,290.6,168z M283.1,168.7c0.7-1,1.7-2.1,2.7-2.1
		c0,0,0,0,0,0c0.8,0,1.5,0.9,2,1.8C286.3,168.6,284.7,168.7,283.1,168.7z M275.9,168c0.9-0.9,2.1-1.8,3-1.6c0.6,0.1,1.2,0.9,1.6,2.2
		C278.9,168.6,277.4,168.4,275.9,168z M270.2,166c0.9-0.7,2-1.3,2.5-1.1c0.2,0.1,0.7,0.5,0.8,2.5C272.3,167,271.2,166.5,270.2,166z
		 M268.1,164.7c-0.7-0.5-1.4-1.1-2-1.7c0.6-0.2,1.3-0.4,1.6-0.1C267.8,162.9,268.1,163.3,268.1,164.7z M265.1,171
		c-2-1-3.8-2.4-5.3-4.3c-0.1-0.1-0.1-0.3-0.2-0.4l4.2-1.3C264.3,166.8,264.8,168.9,265.1,171z M265.3,173.1c0.4,3.9,0.5,8.2,0.2,13
		c-0.7-0.4-1.7-0.5-2.4,0c-0.3,0.2-0.5,0.4-0.7,0.6c0.2-6.4-0.3-11.8-1.5-16.4C262.3,171.4,263.7,172.3,265.3,173.1z M246.3,161.8
		c-0.9-1.4-2.6-3.5-5.8-4.4c-5.7-1.7-13.4,1.2-22.7,8.4c-0.3-0.6-0.5-1.2-0.8-1.9c3.3-2,20.3-11.8,32-6.8L246.3,161.8z M238.9,154.1
		l-1.5-4.5c2.3-0.5,4.6-0.8,6.9-0.8l-0.1,5.2C242.5,153.9,240.7,153.9,238.9,154.1z M241.1,147.3c-0.5-0.1-1-0.2-1.4-0.3
		c-0.1-1.2-0.4-3.6-2-4.3c-0.8-0.4-1.7-0.3-2.7,0.3c0.1-1.3-0.1-2.8-1.2-3.5c-0.9-0.6-2-0.6-3.6,0.2c0.3-1.4,0.3-3.2-0.8-4.4
		c-0.8-0.8-2-1.1-3.7-0.8c0.6-1.4,1.1-3.4,0.1-4.8c-0.7-1-1.9-1.5-3.7-1.5c0.7-1.3,1.5-3.3,0.7-4.8c-0.3-0.6-0.8-1.1-1.5-1.4
		c5.4-2.1,16.2-5.3,21.3-0.5c4.2,3.9,3.8,12.6-1.2,25.8C241.3,147.3,241.2,147.3,241.1,147.3z M218.2,121.1c-0.7-2.2-1.2-3.9-1.4-5
		c2.1,0.3,3.3,0.9,3.5,1.7C220.6,118.8,219.3,120.2,218.2,121.1z M213.8,120.9c-1-0.9-2.1-2.1-1.9-3c0.1-0.7,1.2-1.2,2.8-1.6
		C214.5,117.3,214.2,118.9,213.8,120.9z M209.5,123.6c-0.7,1.6,0.1,3.5,0.8,4.8c-1.8,0.1-3,0.6-3.6,1.6c-0.9,1.4-0.3,3.4,0.3,4.8
		c-1.7-0.3-2.9,0-3.7,0.9c-1,1.1-1,3-0.6,4.4c-1.6-0.7-2.7-0.7-3.6-0.1c-1,0.8-1.2,2.3-1.1,3.5c-1.1-0.6-2.1-0.7-2.9-0.3
		c-1.3,0.6-1.7,2.4-1.7,3.5c-0.2,0-0.4,0.1-0.6,0.1c-0.9-0.1-1.7-0.2-2.5-0.3c-4.7-12.8-5-21.2-0.9-25c5.2-4.8,16.4-1.3,21.6,0.7
		C210.3,122.5,209.8,122.9,209.5,123.6z M194.1,148.7l-1,4.5c-1.8-0.1-3.6-0.1-5.2,0.2l-0.6-5.3C189.4,148,191.6,148.2,194.1,148.7z
		 M215,163.9c-0.1,0.3-0.2,0.7-0.3,1c-9.5-6.9-17.3-9.5-23.1-7.7c-3.2,1-5,3.1-5.9,4.6l-2.7-4.8c0.1,0,0.1-0.1,0.2-0.1
		C190.5,152.6,201.2,155,215,163.9z M169.7,186.7c-0.2-0.3-0.5-0.5-0.8-0.7c-0.8-0.5-1.9-0.4-2.6,0.1c0-2.1-0.1-7.7,1-14
		c1.8-0.8,3.5-1.8,5-3C170.2,175.7,169.7,182.8,169.7,186.7z M167.7,170.1c0.3-1.4,0.6-2.8,1-4.2l3.8,0.8
		C171.1,168.1,169.5,169.2,167.7,170.1z M167.6,163.8c-0.8,2.3-1.4,4.7-1.8,7.1c-11.9,4.4-27.9-1-28.1-1.1l-5.1-1.8l4.4,3.2
		c0.2,0.1,13.7,10.4,15.5,22.7c-2,1.5-3.9,3.1-5.4,4.7c2.6-13.5-8.9-25.7-14.7-30.9C139.9,169.7,157,172.6,167.6,163.8z
		 M137.1,167.1c0.6-0.9,1.3-1.7,2.1-1.6c1,0,1.9,1.3,2.5,2.3C140,167.6,138.5,167.3,137.1,167.1z M144.3,168c0.5-1,1.2-1.9,2-2
		c0,0,0,0,0.1,0c1,0,2,1.1,2.7,2.1C147.5,168.1,145.9,168.1,144.3,168z M151.7,167.9c0.4-1.3,0.9-2.1,1.5-2.3
		c0.9-0.2,2.2,0.7,3.1,1.6C154.8,167.6,153.3,167.8,151.7,167.9z M132.7,175.4c1,1.4,3,1.7,4.6,1.7c-0.8,1.6-1,2.9-0.4,4
		c0.8,1.5,2.7,2,4.2,2.1c-1.1,1.3-1.4,2.5-1.1,3.6c0.5,1.5,2.1,2.3,3.5,2.7c-1.4,1-2,2-1.8,3.1c0.2,1.3,1.4,2.1,2.5,2.7
		c-1.1,0.7-1.7,1.4-1.8,2.4c-0.1,1.5,1.3,2.6,2.1,3.2c-0.1,0.2-0.1,0.4-0.2,0.6c-0.5,0.7-1.1,1.4-1.5,2
		c-13.4-2.3-20.8-6.2-22.1-11.8c-1.5-6.9,7-14.8,11.4-18.4C132.2,174.2,132.3,174.9,132.7,175.4z M146.7,201.3l3.4,3.1
		c-1,1.5-1.8,3.1-2.4,4.6l-4.9-2.2C143.8,205.1,145.1,203.2,146.7,201.3z M147.7,220.9l-4.7,2.7c-1.1-2.1-1.8-4.4-2.1-6.7h5.9
		C146.9,218.2,147.2,219.6,147.7,220.9z M144,228.6c0.2,0.5,0.3,0.9,0.5,1.4c-1,0.7-2.9,2.2-2.7,3.9c0.1,0.9,0.6,1.6,1.6,2.2
		c-1.1,0.6-2.4,1.5-2.5,2.8c-0.1,1.1,0.5,2.1,1.9,3c-1.4,0.5-3,1.3-3.4,2.8c-0.3,1.1,0.1,2.3,1.2,3.6c-1.5,0.2-3.4,0.8-4.2,2.3
		c-0.6,1.1-0.4,2.4,0.5,4c-1.5,0-3.6,0.4-4.5,1.8c-0.4,0.6-0.5,1.3-0.4,2c-4.5-3.6-12.7-11.4-11.1-18.2c1.3-5.6,9-9.6,23-11.9
		C143.8,228.4,143.9,228.5,144,228.6z M146.6,231.9c1.6,1.8,3.4,3.5,5.2,5c-2.2,12.5-14.8,23.7-15,23.8l-4.1,3.6l5-2.1
		c0.2-0.1,15.9-6.7,27.4-2.1c0.3,2.5,0.7,4.9,1.3,7c-10.3-9-26.7-5.2-34.1-2.7C137.9,258.7,149,245.4,146.6,231.9z M141.4,264
		c-0.6,1.1-1.5,2.1-2.4,2.2c-0.7,0.1-1.4-0.6-1.9-1.3C138.5,264.5,139.9,264.2,141.4,264z M149,263.2c-0.7,1-1.7,2.1-2.7,2.1
		c-0.8,0-1.5-0.9-2-1.8C145.8,263.4,147.3,263.3,149,263.2z M156.1,264c-0.9,0.9-2.1,1.8-3,1.6c-0.6-0.1-1.2-0.9-1.6-2.2
		C153.1,263.4,154.6,263.6,156.1,264z M161.8,266c-0.9,0.7-2,1.3-2.5,1.1c-0.2-0.1-0.7-0.5-0.8-2.5C159.7,265,160.8,265.5,161.8,266
		z M163.9,267.3c0.7,0.5,1.4,1.1,2,1.7c-0.6,0.2-1.3,0.4-1.6,0.1C164.2,269.1,163.9,268.7,163.9,267.3z M166.9,260.9
		c2,1,3.8,2.4,5.3,4.3c0.1,0.1,0.1,0.3,0.2,0.5l-4.2,1.3C167.7,265.2,167.2,263.1,166.9,260.9z M166.7,258.9
		c-0.4-3.9-0.5-8.2-0.2-13c0.7,0.4,1.7,0.5,2.4,0c0.3-0.2,0.5-0.4,0.7-0.6c-0.2,6.4,0.3,11.8,1.5,16.3
		C169.7,260.6,168.3,259.7,166.7,258.9z M185.7,270.2c0.9,1.4,2.6,3.5,5.8,4.4c1.1,0.3,2.2,0.5,3.4,0.5c5.2,0,11.7-3,19.3-8.9
		c0.3,0.6,0.5,1.2,0.8,1.9c-3.3,2-20.3,11.8-32,6.8L185.7,270.2z M190.5,278c0.9,0,1.8-0.1,2.7-0.1l1.5,4.5
		c-2.3,0.5-4.6,0.8-6.9,0.8l0.1-5.2C188.7,278,189.6,278,190.5,278z M190.9,284.7c0.5,0.1,1,0.2,1.5,0.3c0.1,1.2,0.4,3.6,2,4.3
		c0.8,0.4,1.7,0.3,2.7-0.3c-0.1,1.3,0.1,2.8,1.2,3.5c0.9,0.6,2.1,0.6,3.6-0.2c-0.3,1.4-0.3,3.2,0.8,4.4c0.8,0.8,2,1.1,3.7,0.8
		c-0.6,1.4-1.1,3.4-0.1,4.8c0.7,1,1.9,1.5,3.7,1.5c-0.7,1.3-1.5,3.3-0.7,4.8c0.3,0.6,0.8,1.1,1.5,1.4c-5.4,2.1-16.2,5.3-21.3,0.5
		c-4.2-3.9-3.8-12.6,1.2-25.8C190.7,284.7,190.8,284.7,190.9,284.7z M213.8,310.9c0.7,2.2,1.2,3.9,1.4,5c-2.1-0.3-3.3-0.9-3.5-1.7
		C211.4,313.2,212.7,311.8,213.8,310.9z M218.2,311.1c1,0.9,2.1,2.1,1.9,3c-0.1,0.7-1.2,1.2-2.8,1.6
		C217.5,314.7,217.8,313.1,218.2,311.1z M222.5,308.4c0.7-1.6-0.1-3.5-0.8-4.8c1.8-0.1,3-0.6,3.6-1.6c0.9-1.4,0.3-3.4-0.3-4.8
		c1.7,0.3,2.9,0,3.7-0.9c1-1.1,1-3,0.6-4.4c1.6,0.7,2.7,0.7,3.6,0.1c1-0.8,1.2-2.3,1.1-3.5c1.1,0.6,2.1,0.7,2.9,0.3
		c1.3-0.6,1.7-2.4,1.7-3.5c0.2,0,0.4-0.1,0.6-0.1v0c0.8,0.1,1.6,0.2,2.4,0.3c4.8,12.8,5,21.2,0.9,25c-5.2,4.8-16.4,1.3-21.6-0.7
		C221.7,309.5,222.2,309.1,222.5,308.4z M237.9,283.3l1-4.5c0.6,0,1.2,0.1,1.8,0.1c1.2,0,2.3-0.1,3.4-0.3l0.6,5.3
		C242.6,284,240.4,283.8,237.9,283.3z M217,268.1c0.1-0.3,0.2-0.7,0.3-1c7.6,5.5,14,8.2,19.3,8.2c1.4,0,2.6-0.2,3.8-0.6
		c3.2-1,5-3.1,5.9-4.6l2.7,4.8c-0.1,0-0.1,0.1-0.2,0.1C241.5,279.4,230.8,277,217,268.1z M262.3,245.3c0.2,0.3,0.5,0.5,0.8,0.7
		c0.8,0.5,1.9,0.4,2.6-0.1c0,2.1,0.1,7.7-1,14c-1.8,0.8-3.5,1.8-5,3C261.9,256.3,262.3,249.2,262.3,245.3z M264.3,261.9
		c-0.3,1.4-0.6,2.8-1,4.2l-3.8-0.8C260.9,263.9,262.5,262.8,264.3,261.9z M264.4,268.2c0.8-2.3,1.4-4.7,1.8-7.1
		c11.9-4.4,27.9,1,28.1,1.1l5.1,1.8l-4.3-3.2c-0.2-0.1-13.7-10.4-15.5-22.7c2-1.5,3.9-3.1,5.4-4.7c-2.6,13.5,8.9,25.7,14.7,30.9
		C292.1,262.3,275,259.4,264.4,268.2z M294.9,264.9c-0.6,0.9-1.3,1.7-2.1,1.6c-1,0-1.9-1.3-2.5-2.3
		C292,264.4,293.5,264.7,294.9,264.9z M287.7,264c-0.5,1-1.2,1.9-2,2c-1,0.1-2.1-1-2.8-2.1C284.5,263.9,286.1,263.9,287.7,264z
		 M280.3,264.1c-0.4,1.3-0.9,2.1-1.5,2.3c-0.9,0.2-2.2-0.7-3.1-1.6C277.2,264.4,278.7,264.2,280.3,264.1z M299.3,256.6
		c-1-1.4-3-1.7-4.6-1.7c0.8-1.6,1-2.9,0.4-4c-0.8-1.5-2.7-2-4.2-2.1c1.1-1.3,1.4-2.5,1.1-3.6c-0.5-1.5-2.1-2.3-3.5-2.7
		c1.4-1,2-2,1.8-3.1c-0.2-1.3-1.4-2.1-2.5-2.7c1.1-0.7,1.7-1.4,1.8-2.4c0.1-1.5-1.3-2.6-2.1-3.2c0.1-0.2,0.1-0.4,0.2-0.6
		c0.5-0.7,1.1-1.4,1.5-2c13.4,2.3,20.8,6.2,22.1,11.8c1.5,6.9-7,14.8-11.4,18.4C299.8,257.8,299.7,257.1,299.3,256.6z M285.3,230.7
		l-3.4-3.1c1-1.5,1.8-3.1,2.4-4.6l4.9,2.2C288.2,226.9,286.9,228.8,285.3,230.7z M284.3,211.1l4.7-2.7c1.1,2.1,1.8,4.4,2.1,6.7h-5.9
		C285.1,213.8,284.8,212.4,284.3,211.1z M289.2,205.2c14.2-2.4,22.2-6.8,23.6-13c1.7-7.5-6.4-15.5-11.2-19.5c1,0,2.1-0.1,2.8-0.8
		c0.9-0.9,1.1-2.3,0.5-4.3c5.2,4.1,19.6,16.5,17,27.2c-1.8,7.6-11.9,13-30.1,15.9C291.2,208.8,290.3,206.9,289.2,205.2z
		 M297.3,166.5c0.3-1.3,0.8-2.8,1.6-3.1c0.6-0.2,1.7,0.4,2.8,1.6C300.7,165.4,299.2,165.9,297.3,166.5z M292.8,164.1
		c-1.7,0.1-3,1.8-3.7,3.1c-0.9-1.5-2-2.3-3.2-2.3c-1.7,0-3.1,1.4-4,2.6c-0.6-1.6-1.5-2.5-2.6-2.7c-1.5-0.3-3,0.7-4.1,1.6
		c-0.2-1.7-0.8-2.7-1.7-3.1c-1.2-0.5-2.5,0.1-3.6,0.8c0-1.3-0.4-2.2-1.2-2.7c-1.2-0.8-2.9-0.2-3.9,0.2c-0.1-0.1-0.3-0.3-0.4-0.4
		c-0.3-0.8-0.6-1.6-1-2.3c8.7-10.5,15.8-14.9,21.2-13.2c6.8,2.1,9.3,13.5,10.2,19.1C294.1,164.3,293.5,164.1,292.8,164.1z
		 M260.6,189.1c-0.3,0.1-0.7,0.1-1,0.2c1.2-11.7-0.5-19.7-4.9-23.8c-2.5-2.3-5.2-2.8-6.9-2.8l2.8-4.8c0.1,0,0.1,0.1,0.2,0.1
		C258.2,162.2,261.5,172.7,260.6,189.1z M243.3,147.2c5-13.5,5.2-22.6,0.5-26.9c-5.7-5.2-16.6-2.2-22.5,0c0.6-0.9,0.9-1.8,0.7-2.8
		c-0.3-1.2-1.4-2.1-3.4-2.6c6.2-2.5,24.1-8.6,32-1.1c5.7,5.4,5.3,16.8-1.3,34C247.3,147.3,245.3,147.1,243.3,147.2z M216.2,113.3
		l-0.5-2.5c0,0,0.1-0.1,0.3-0.1c0,0,0,0,0,0c0.3,0,0.3,0.1,0.4,0.1C216.6,111.2,216.5,112.2,216.2,113.3z M210.2,117.6
		c-0.2,1,0.2,1.9,0.7,2.7c-5.8-2.2-17-5.4-22.7-0.1c-4.7,4.3-4.6,13.1,0.2,26.2c-2.1,0-4,0.3-5.9,0.8c-6.4-16.9-6.8-28.2-1.1-33.6
		c8-7.5,26.1-1.2,32.2,1.2C211.6,115.4,210.5,116.3,210.2,117.6z M185.6,148.3l0.6,5.5c-1.4,0.4-2.7,0.9-3.9,1.6
		c-0.1,0-0.1,0.1-0.2,0.1l-2.9-5.1c0,0,0.1,0,0.1-0.1C181.1,149.3,183.3,148.6,185.6,148.3z M181.5,157.9l2.7,4.7
		c-1.7,0.1-4.3,0.6-6.7,2.8c-4.3,4.1-5.7,12.2-4.1,23.9c-0.7-0.1-1.3-0.1-2-0.3C171.3,185.2,171.4,165.6,181.5,157.9z M169.1,159.9
		c-0.3,0.4-0.6,0.7-0.9,1.1c-1.1-0.5-3.3-1.4-4.7-0.4c-0.7,0.5-1.1,1.3-1.1,2.5c-1.1-0.7-2.5-1.3-3.6-0.8c-1,0.4-1.5,1.5-1.7,3.2
		c-1.1-0.9-2.7-1.9-4.2-1.5c-1.1,0.3-2,1.2-2.5,2.8c-0.9-1.2-2.4-2.6-4.1-2.5c-1.2,0.1-2.3,0.9-3.2,2.4c-0.8-1.3-2.1-2.9-3.8-3
		c-0.7,0-1.3,0.2-2,0.6c0.9-5.7,3.5-16.6,10.2-18.7c5.5-1.7,12.8,3,21.8,13.9C169.2,159.7,169.1,159.8,169.1,159.9z M129.9,165.4
		c1.3-1.6,2.5-2.4,3.2-2.2c1,0.3,1.6,2.1,1.8,3.5C132.7,166.2,130.9,165.7,129.9,165.4z M127.9,171.8c0.7,0.7,1.7,0.8,2.7,0.8
		c-4.8,3.9-13.1,12-11.4,19.6c1.4,6.2,9,10.5,22.8,12.9c-1,1.8-1.8,3.6-2.3,5.5c-17.9-2.9-27.8-8.3-29.6-15.8
		c-2.5-10.7,12.1-23.3,17.2-27.3C126.7,169.5,126.9,170.9,127.9,171.8z M140.8,215c0-2.2,0.5-4.4,1.3-6.6l5.1,2.2
		c-0.4,1.4-0.6,2.8-0.6,4.2c0,0.1,0,0.1,0,0.2h-5.9C140.8,215.1,140.8,215.1,140.8,215z M142.8,226.8c-14.2,2.4-22.2,6.8-23.6,13
		c-1.7,7.5,6.4,15.5,11.2,19.5c-1,0-2.1,0.1-2.8,0.8c-0.9,0.9-1.1,2.3-0.5,4.3c-5.2-4.1-19.6-16.5-17-27.2
		c1.8-7.6,11.9-13,30.1-15.9C140.8,223.2,141.7,225.1,142.8,226.8z M134.7,265.5c-0.3,1.3-0.8,2.8-1.6,3.1c-0.6,0.2-1.7-0.4-2.8-1.6
		C131.3,266.6,132.8,266.1,134.7,265.5z M139.2,267.9c1.7-0.1,3-1.8,3.7-3.1c0.9,1.5,2,2.3,3.2,2.3c1.7,0,3.1-1.4,4-2.6
		c0.6,1.6,1.5,2.5,2.6,2.7c1.5,0.3,3-0.7,4.1-1.6c0.2,1.7,0.8,2.7,1.7,3.1c1.2,0.5,2.5-0.1,3.6-0.8c0,1.3,0.4,2.2,1.2,2.7
		c0.4,0.3,0.9,0.4,1.5,0.4c0.9,0,1.8-0.4,2.4-0.6c0.1,0.1,0.3,0.3,0.4,0.4c0.3,0.8,0.6,1.6,1,2.3c-8.7,10.5-15.8,14.9-21.2,13.2
		c-6.8-2.1-9.3-13.5-10.2-19.1C137.9,267.7,138.5,267.9,139.2,267.9z M171.4,242.9c0.3-0.1,0.7-0.1,1-0.2
		c-1.2,11.7,0.5,19.7,4.9,23.8c2.5,2.3,5.2,2.8,6.9,2.8l-2.8,4.8c-0.1,0-0.1-0.1-0.2-0.1C173.9,269.8,170.5,259.3,171.4,242.9z
		 M187.8,284.8c0.3,0,0.6,0,1,0c-5,13.5-5.2,22.6-0.5,27c2.3,2.1,5.5,2.9,8.9,2.9c4.9,0,10.1-1.6,13.6-2.9c-0.6,0.9-0.9,1.8-0.7,2.8
		c0.3,1.2,1.4,2.1,3.4,2.6c-6.2,2.5-24.1,8.6-32,1.1c-5.7-5.4-5.3-16.8,1.3-34C184.4,284.7,186.1,284.8,187.8,284.8z M215.8,318.7
		l0.5,2.5c0,0-0.1,0.1-0.3,0.1c-0.3,0-0.4-0.1-0.4-0.1C215.4,320.8,215.5,319.8,215.8,318.7z M221.8,314.4c0.2-1-0.2-1.9-0.7-2.7
		c3.5,1.3,8.8,3,13.9,3c3.4,0,6.6-0.8,8.9-2.9c4.7-4.3,4.6-13.1-0.2-26.2c0,0,0,0,0,0c2.1,0,4-0.3,5.9-0.8
		c6.4,16.9,6.8,28.2,1.1,33.6c-8,7.5-26.1,1.2-32.2-1.2C220.4,316.6,221.5,315.7,221.8,314.4z M246.4,283.7l-0.6-5.5
		c1.4-0.4,2.7-0.9,3.9-1.6c0.1,0,0.1-0.1,0.2-0.1l2.9,5.1c0,0-0.1,0-0.1,0.1C250.9,282.7,248.7,283.4,246.4,283.7z M250.5,274.1
		l-2.7-4.7c1.7-0.1,4.3-0.5,6.7-2.8c4.3-4.1,5.7-12.2,4.1-23.9c0.7,0.1,1.3,0.1,2,0.3C260.7,246.8,260.6,266.4,250.5,274.1z
		 M262.9,272.1c0.3-0.4,0.6-0.7,0.9-1.1c0.7,0.4,1.9,0.9,3.1,0.9c0.6,0,1.2-0.1,1.6-0.5c0.7-0.5,1.1-1.3,1.1-2.5
		c1.1,0.7,2.5,1.3,3.6,0.8c1-0.4,1.5-1.5,1.7-3.2c1.1,0.9,2.6,1.9,4.2,1.5c1.1-0.3,2-1.2,2.5-2.8c0.9,1.2,2.4,2.6,4.1,2.5
		c1.2-0.1,2.3-0.9,3.2-2.4c0.8,1.3,2.1,2.9,3.8,3c0.7,0,1.3-0.2,2-0.6c-0.9,5.7-3.5,16.6-10.2,18.7c-5.5,1.7-12.8-3-21.8-13.9
		C262.8,272.3,262.9,272.2,262.9,272.1z M302.1,266.6c-1.3,1.6-2.5,2.4-3.2,2.2c-1-0.3-1.6-2.1-1.8-3.5
		C299.3,265.8,301.1,266.3,302.1,266.6z M304.1,260.2c-0.7-0.7-1.7-0.8-2.7-0.8c4.8-3.9,13.1-12,11.4-19.6
		c-1.4-6.2-9-10.5-22.8-12.9c1-1.8,1.8-3.6,2.3-5.5c17.9,2.9,27.8,8.3,29.6,15.8c2.5,10.7-12.1,23.3-17.2,27.3
		C305.3,262.5,305.1,261.1,304.1,260.2z M291.2,217c0,2.2-0.5,4.4-1.3,6.6l-5.1-2.2c0.4-1.4,0.6-2.8,0.6-4.2c0-0.1,0-0.1,0-0.2h5.9
		C291.2,216.9,291.2,216.9,291.2,217z M298.4,161.8c-0.9,0.3-1.6,1.1-2,2c-1-6.1-3.8-17.4-11.3-19.7c-6-1.9-13.6,2.6-22.6,13.2
		c-1-1.8-2.3-3.4-3.6-4.7c11.5-14,21.1-20,28.5-17.7c10.5,3.2,14.1,22,15,28.5C300.9,161.9,299.6,161.4,298.4,161.8z M177.7,151.4
		l2.9,5.1c-1.1,0.8-2.1,1.8-3.1,2.8l-4.7-2.8C174.2,154.5,175.8,152.8,177.7,151.4z M170,158c-9.2-11.1-17-15.8-23.1-13.9
		c-7.4,2.3-10.2,13.3-11.3,19.5c-0.5-0.9-1.1-1.7-2.1-2c-1.2-0.3-2.5,0.2-4,1.6c1-6.6,4.6-25.2,15-28.3c7.5-2.3,17.2,3.8,28.8,18.1
		C172.1,154.5,171,156.2,170,158z M124.7,163.6c0-0.1,0-0.1,0.1-0.3c0.1-0.3,0.2-0.3,0.3-0.3c0,0,0,0,0,0c0.5,0,1.3,0.6,2,1.4
		L124.7,163.6z M133.6,270.2c0.9-0.3,1.6-1.1,2-2c1,6.1,3.8,17.4,11.3,19.7c0.9,0.3,1.8,0.4,2.8,0.4c5.5,0,12.2-4.6,19.8-13.7
		c1,1.8,2.3,3.4,3.6,4.7c-11.5,14-21.1,20-28.5,17.7c-10.5-3.2-14.1-22-15-28.5C131.1,270.1,132.4,270.6,133.6,270.2z M254.3,280.6
		l-2.9-5.1c1.1-0.8,2.1-1.8,3.1-2.8l4.7,2.8C257.8,277.5,256.2,279.2,254.3,280.6z M262,274c7.9,9.5,14.7,14.3,20.3,14.3
		c1,0,1.9-0.1,2.8-0.4c7.4-2.3,10.2-13.3,11.3-19.5c0.5,0.9,1.1,1.7,2.1,2c1.2,0.3,2.5-0.2,4-1.6c-1,6.6-4.6,25.2-15,28.3
		c-7.5,2.3-17.2-3.8-28.8-18.1C259.9,277.5,261,275.8,262,274z M307.3,268.4c0,0.1,0,0.1-0.1,0.3c-0.1,0.3-0.2,0.3-0.3,0.3
		c-0.5,0.1-1.3-0.6-2.1-1.4L307.3,268.4z M319.1,223.4c-1.5-0.9-3.2-1.7-5-2.5l1.3-0.9c0,0,0.1-0.1,0.1-0.1c2,0.6,3.9,1.2,5.8,1.9
		L319.1,223.4z M312.6,220c-0.1,0.1-0.2,0.1-0.2,0.2c-2.7-1.1-5.8-2-9.2-2.9c3.6,0.5,7,1.2,10.3,2.1L312.6,220z M312.4,211.8
		c0,0.1,0.1,0.1,0.1,0.2l0.5,0.3c-1.9,0.5-3.8,0.9-5.8,1.3C309.1,213,310.8,212.4,312.4,211.8z M329.8,194.3
		c0.4-5.9-2.5-11.9-6.3-17c8.7,3.5,23,2.4,32.3,1.2C347.7,181.7,336,187.3,329.8,194.3z M320.9,173.9c-2.5-2.9-5.1-5.5-7.3-7.4
		c14.1,7.5,31.5,9.7,41.9,10.3C344.8,178.2,327.9,179.3,320.9,173.9z M324.9,108.8c-0.4,8.7-2.9,37-15.5,51.4
		C308.6,138,321.6,114.3,324.9,108.8z M319.4,110.7l-0.2-3.1c1.8-0.3,3.3-0.4,4.4-0.5C322.8,107.9,321.3,109.2,319.4,110.7z
		 M317.7,112c-1.4,1.1-2.9,2.2-4.5,3.4l-0.3-6.6c1.7-0.4,3.2-0.7,4.6-0.9L317.7,112z M311.6,116.6c-1.4,1-3,2-4.5,3l-0.4-9.2
		c1.6-0.5,3.1-0.9,4.6-1.2L311.6,116.6z M305.4,120.6c-1.6,0.9-3.2,1.8-4.8,2.6l-0.6-10.6c1.7-0.6,3.4-1.2,5-1.7L305.4,120.6z
		 M299,124c-1.5,0.7-2.9,1.3-4.4,1.7l-0.4-10.8c1.4-0.6,2.7-1.2,4.1-1.7L299,124z M292.9,126.2c-1.5,0.4-3,0.7-4.5,0.7l-0.5-8.8
		c1.6-0.9,3.1-1.6,4.6-2.4L292.9,126.2z M286.8,127c-1.5-0.1-3.1-0.1-4.7,0.2l-0.2-5.4c1.5-1,3-1.9,4.5-2.8L286.8,127z M280.4,127.6
		c-1.5,0.4-3.1,1.1-4.8,1.9l-0.2-3.1c1.6-1.3,3.2-2.4,4.8-3.5L280.4,127.6z M289.1,129.1c7,2.1,11.5,9.9,14.2,17.6c0,0,0,0,0,0l0,0
		c2.1,6.1,3.2,12,3.6,14.7c-1,0-2,0.7-2.8,1.5c-1-6.9-4.7-26.2-16.2-29.7c-8.2-2.5-18.3,3.7-30.3,18.2c-0.7-0.6-1.5-1.1-2.3-1.6
		C268.8,133.5,280.2,126.5,289.1,129.1z M260.6,130.4c0.1,0,0.1,0,0.2,0l0.5-0.2c-0.5,1.9-1.1,3.8-1.8,5.7
		C260,134,260.3,132.1,260.6,130.4z M261.9,128l-1,0.5c0.2-2,0.4-3.8,0.4-5.5l1.9-0.9C262.8,123.9,262.4,125.9,261.9,128z
		 M263.5,119.9l-2.3,1.1c-0.1-1.8-0.4-3.5-0.8-5.1l3.7-1.9C264,116,263.8,117.9,263.5,119.9z M263.9,98l-9,4.8
		c-0.3-1.5-0.5-3-0.7-4.6l9.2-4.6C263.5,95,263.7,96.5,263.9,98z M255.5,73.9c0.3-1.6,0.5-3,0.7-4.1c0.4,0.8,0.8,1.8,1.3,3
		L255.5,73.9z M231.9,104.1c-3.8,0.7-7.3,1.7-10.1,2.6c13.6-8.5,24.2-22.4,29.9-31.2C247.7,85.5,240.2,100.8,231.9,104.1z
		 M199.9,104.1c-8.2-3.5-15.6-18.6-19.7-28.4c5.8,8.7,16.3,22.6,29.9,31.1C207.3,105.8,203.7,104.8,199.9,104.1z M177.8,98.1
		c-0.2,1.6-0.4,3.2-0.7,4.6l-9.5-5.1c0.2-1.5,0.3-3,0.5-4.4L177.8,98.1z M171.7,116c-0.4,1.6-0.7,3.2-0.8,5.1l-2.8-1.3
		c-0.3-2-0.5-4-0.7-5.9L171.7,116z M170.9,123c0,1.7,0.1,3.6,0.4,5.5l-1.4-0.7c0,0-0.1,0-0.1,0c-0.5-2-0.9-4-1.2-6L170.9,123z
		 M171.2,130.4c0.1,0,0.2,0.1,0.3,0.1c0.5,2.9,1.2,6,2.1,9.4c-1.4-3.4-2.5-6.7-3.3-9.9L171.2,130.4z M176.5,150l0.1-0.1
		c0,0,0,0,0,0.1c-0.7,0.5-1.4,1.1-2.1,1.7c-12-14.7-22.3-21-30.5-18.5c-11.5,3.5-15.2,22.6-16.2,29.6c-0.8-0.8-1.8-1.4-2.8-1.4
		c1-6.3,5.3-28.7,17.9-32.4c8.8-2.6,19.9,4.3,33.1,20.3C176.3,149.5,176.4,149.8,176.5,150z M162.6,133.4c-1.6-1.2-3.1-2.2-4.6-3.1
		l0.2-2.1c1.5,1.3,3,2.7,4.5,4.1L162.6,133.4z M156.4,129.4c-1.6-0.8-3.2-1.5-4.8-1.9l0.2-4.2c1.6,1.1,3.2,2.3,4.8,3.5L156.4,129.4z
		 M149.9,127.1c-1.6-0.3-3.2-0.4-4.7-0.2l0.4-7.4c1.5,0.8,3,1.7,4.5,2.7L149.9,127.1z M143.5,127c-1.4-0.1-2.9-0.3-4.5-0.7l0.3-10
		c1.5,0.7,3.1,1.5,4.6,2.3L143.5,127z M137.4,125.7c-1.4-0.5-2.9-1.1-4.4-1.7l0.6-10.2c1.3,0.5,2.7,1.1,4.1,1.7L137.4,125.7z
		 M131.4,123.2c-1.6-0.8-3.2-1.7-4.8-2.6l0.4-9.1c1.6,0.5,3.3,1,5,1.7L131.4,123.2z M124.9,119.6c-1.6-1-3.1-2-4.5-3l0.3-6.7
		c1.5,0.3,3,0.7,4.6,1.2L124.9,119.6z M118.8,115.4c-1.6-1.2-3.1-2.3-4.5-3.4l0.2-3.4c1.4,0.2,2.9,0.5,4.6,0.8L118.8,115.4z
		 M112.6,110.7c-1.3-1-2.4-1.9-3.2-2.7c0.9,0.1,2,0.2,3.3,0.4L112.6,110.7z M122.7,160.1c-11.8-14.3-14.2-40.5-14.6-49.7
		C112.3,118,123.3,139.6,122.7,160.1z M111,174c-7.1,5.3-23.9,4.2-34.5,2.8c10.4-0.6,27.7-2.8,41.8-10.3
		C116.2,168.5,113.5,171,111,174z M76.2,178.5c9.3,1.2,23.6,2.3,32.2-1.2c-3.8,5.2-6.7,11.2-6.2,17.1
		C96.1,187.3,84.3,181.7,76.2,178.5z M112.9,208.6c1.5,0.9,3.2,1.7,5,2.5l-1.3,0.9c0,0-0.1,0.1-0.1,0.1c-2-0.6-3.9-1.2-5.8-1.9
		L112.9,208.6z M119.4,212c0.1-0.1,0.2-0.1,0.2-0.2c2.7,1.1,5.8,2,9.2,2.9c-3.6-0.5-7-1.2-10.3-2.1L119.4,212z M119.6,220.2
		c0-0.1-0.1-0.1-0.1-0.2l-0.5-0.3c1.9-0.5,3.8-0.9,5.8-1.3C122.9,219,121.2,219.6,119.6,220.2z M102.2,237.7
		c-0.4,5.9,2.5,11.9,6.3,17.1c-8.7-3.5-23-2.4-32.3-1.2C84.3,250.3,96,244.7,102.2,237.7z M111.1,258.1c2.5,2.9,5.1,5.5,7.3,7.4
		c-14.2-7.5-31.5-9.7-42-10.3C87.2,253.8,104.1,252.7,111.1,258.1z M107.1,323.2c0.4-8.7,2.9-37,15.5-51.4
		C123.4,294,110.4,317.7,107.1,323.2z M112.6,321.3l0.2,3.1c-1.8,0.3-3.3,0.4-4.4,0.5C109.2,324.1,110.7,322.8,112.6,321.3z
		 M114.3,320c1.4-1.1,2.9-2.2,4.5-3.4l0.3,6.6c-1.7,0.4-3.2,0.7-4.6,0.9L114.3,320z M120.4,315.4c1.4-1,3-2,4.5-3l0.4,9.2
		c-1.6,0.5-3.1,0.9-4.6,1.2L120.4,315.4z M126.6,311.4c1.6-0.9,3.2-1.8,4.8-2.6l0.6,10.6c-1.7,0.6-3.4,1.2-5,1.7L126.6,311.4z
		 M133,308c1.5-0.7,2.9-1.3,4.4-1.7l0.4,10.8c-1.4,0.6-2.7,1.2-4.1,1.7L133,308z M139.1,305.8c1.5-0.4,3-0.7,4.5-0.7l0.5,8.8
		c-1.6,0.9-3.1,1.6-4.6,2.4L139.1,305.8z M145.2,305c0.5,0,0.9,0.1,1.4,0.1c1.1,0,2.1-0.1,3.3-0.3l0.2,5.4c-1.5,1-3,1.9-4.5,2.8
		L145.2,305z M151.6,304.4c1.5-0.4,3.1-1.1,4.8-1.9l0.2,3.1c-1.6,1.3-3.2,2.4-4.8,3.5L151.6,304.4z M142.9,302.9
		c-7-2.1-11.5-9.9-14.2-17.6c0,0,0,0,0,0l0,0c-2.1-6.1-3.2-12-3.6-14.7c1,0,2-0.7,2.8-1.5c1,6.9,4.7,26.2,16.2,29.7
		c1.2,0.4,2.4,0.5,3.6,0.5c7.5,0,16.4-6.3,26.6-18.8c0.7,0.6,1.5,1.1,2.3,1.6C163.2,298.5,151.8,305.5,142.9,302.9z M171.4,301.6
		c-0.1,0-0.1,0-0.2,0.1l-0.5,0.2c0.5-1.9,1.1-3.8,1.8-5.7C172,298.1,171.7,299.9,171.4,301.6z M170.1,304l1-0.5
		c-0.2,2-0.4,3.8-0.4,5.5l-1.9,0.9C169.2,308.1,169.6,306.1,170.1,304z M168.5,312l2.3-1.1c0.1,1.8,0.4,3.5,0.8,5.1l-3.7,1.9
		C168,316,168.2,314,168.5,312z M167.6,327l7.5-3.8c0.7,1.3,1.2,2.7,1.6,4.2l-8.8,4.7C167.8,330.5,167.7,328.8,167.6,327z
		 M168.1,334l9-4.8c0.3,1.5,0.5,3,0.7,4.6l-9.1,4.6C168.5,337,168.3,335.5,168.1,334z M176.5,358.1c-0.3,1.6-0.5,3-0.7,4.1
		c-0.4-0.8-0.8-1.8-1.3-3L176.5,358.1z M200.1,327.9c3.8-0.7,7.3-1.7,10.1-2.6c-13.6,8.5-24.2,22.4-29.9,31.2
		C184.3,346.5,191.8,331.2,200.1,327.9z M232.1,327.9c8.2,3.5,15.6,18.6,19.7,28.4c-5.8-8.7-16.3-22.6-29.9-31.1
		C224.7,326.2,228.3,327.2,232.1,327.9z M254.2,333.9c0.2-1.6,0.4-3.2,0.7-4.6l9.5,5.1c-0.2,1.5-0.3,3-0.5,4.4L254.2,333.9z
		 M260.3,316c0.4-1.6,0.7-3.2,0.8-5.1l2.8,1.3c0.3,2,0.5,4,0.7,5.9L260.3,316z M261.1,309c0-1.7-0.1-3.6-0.4-5.5l1.4,0.7
		c0,0,0.1,0,0.1,0c0.5,2,0.9,4,1.2,6L261.1,309z M260.8,301.6c-0.1,0-0.2-0.1-0.3-0.1c-0.5-2.9-1.2-6-2.1-9.4
		c1.4,3.4,2.5,6.7,3.3,9.9L260.8,301.6z M255.5,282l-0.1,0.1c0,0,0,0,0-0.1c0.7-0.5,1.4-1.1,2.1-1.7c10.3,12.6,19.3,19,26.9,19
		c1.3,0,2.5-0.2,3.6-0.5c11.5-3.5,15.2-22.6,16.2-29.6c0.8,0.8,1.8,1.4,2.8,1.4c-1,6.3-5.2,28.7-17.9,32.4
		c-8.8,2.6-19.9-4.3-33.1-20.3C255.7,282.5,255.6,282.2,255.5,282z M269.4,298.6c1.6,1.2,3.1,2.2,4.6,3.1l-0.2,2.1
		c-1.5-1.3-3-2.7-4.5-4.1L269.4,298.6z M275.6,302.6c1.6,0.8,3.2,1.5,4.8,1.9l-0.2,4.2c-1.6-1.1-3.2-2.3-4.8-3.5L275.6,302.6z
		 M282.1,304.9c1.1,0.2,2.1,0.3,3.2,0.3c0.5,0,1-0.1,1.5-0.1l-0.4,7.4c-1.5-0.8-3-1.7-4.5-2.7L282.1,304.9z M288.5,305
		c1.4,0.1,2.9,0.3,4.5,0.7l-0.3,10c-1.5-0.7-3.1-1.5-4.6-2.3L288.5,305z M294.6,306.3c1.4,0.5,2.9,1.1,4.4,1.7l-0.6,10.2
		c-1.3-0.5-2.7-1.1-4.1-1.7L294.6,306.3z M300.6,308.8c1.6,0.8,3.2,1.7,4.8,2.6l-0.4,9.1c-1.6-0.5-3.3-1-5-1.7L300.6,308.8z
		 M307.1,312.4c1.6,1,3.1,2,4.5,3l-0.3,6.7c-1.5-0.3-3-0.7-4.6-1.2L307.1,312.4z M313.2,316.6c1.6,1.2,3.1,2.3,4.5,3.4l-0.2,3.4
		c-1.4-0.2-2.9-0.5-4.6-0.8L313.2,316.6z M319.4,321.3c1.3,1,2.4,1.9,3.2,2.7c-0.9-0.1-2-0.2-3.3-0.4L319.4,321.3z M309.3,271.9
		c11.8,14.3,14.2,40.5,14.6,49.7C319.7,314,308.7,292.4,309.3,271.9z M321,258c7.1-5.3,23.9-4.2,34.5-2.8
		c-10.4,0.6-27.7,2.8-41.9,10.3C315.8,263.5,318.5,261,321,258z M356.1,245.1l-6.2,4c-1.6-0.7-3.2-1.5-4.8-2.4l7.7-5
		C354,242.9,355.1,244,356.1,245.1z M352.2,190l-7.2-4.6c1.6-0.9,3.3-1.7,4.8-2.4l5.7,3.6C354.5,187.7,353.4,188.8,352.2,190z
		 M361.4,175.3c-8.7-0.1-32.9-1.4-50.3-12.2C329.4,160,353.2,171.1,361.4,175.3z M267.7,133.4l0.1,1c0,0.1,0,0.2,0.1,0.3
		c-2.3,1.8-4.6,4-7.1,6.5C263,138.4,265.3,135.8,267.7,133.4z M253.5,69.7c-4.5,7.5-17.7,27.8-35.7,37.5
		C224.2,89.8,245.7,74.7,253.5,69.7z M214.4,107.3c-19.6-10.5-33.6-33.6-36.8-39.2C184.9,72.8,208.2,89.1,214.4,107.3z M175.5,68.4
		c0.2,1.1,0.6,3,1,5.5l-2.7-1.4C174.4,70.8,175,69.4,175.5,68.4z M168.3,138.3c-1.4-1.3-2.8-2.6-4.2-3.7c0-0.1,0.1-0.1,0.1-0.2
		l0-0.6C165.6,135.2,167,136.7,168.3,138.3z M121,163c-18.9,11.7-45.9,12.3-52.3,12.3C76.4,171.3,102.2,159.3,121,163z M75.9,186.9
		l6.2-4c1.6,0.7,3.2,1.5,4.8,2.4l-7.7,5C78,189.1,76.9,188,75.9,186.9z M79.8,242l7.2,4.6c-1.6,0.9-3.3,1.7-4.8,2.4l-5.7-3.6
		C77.5,244.3,78.6,243.2,79.8,242z M70.6,256.7c8.7,0.1,32.9,1.4,50.3,12.2C102.6,272,78.8,260.9,70.6,256.7z M164.3,298.6l-0.1-1
		c0-0.1,0-0.2-0.1-0.3c2.3-1.9,4.6-4,7.1-6.5C169,293.6,166.7,296.2,164.3,298.6z M178.5,362.3c4.5-7.5,17.7-27.8,35.7-37.5
		C207.8,342.2,186.3,357.3,178.5,362.3z M217.6,324.7c19.6,10.5,33.6,33.6,36.8,39.2C247.1,359.2,223.8,342.9,217.6,324.7z
		 M256.5,363.6c-0.2-1.1-0.6-3-1-5.5l2.7,1.4C257.6,361.2,257,362.6,256.5,363.6z M263.6,293.7c1.4,1.4,2.8,2.6,4.2,3.7
		c0,0.1-0.1,0.1-0.1,0.2l0,0.6C266.3,296.8,265,295.3,263.6,293.7z M311,269c18.9-11.7,45.9-12.3,52.3-12.3
		C355.6,260.7,329.8,272.7,311,269z"/>
	<path class="st0" d="M223.9,114.9c-1.6,0-1.6,2.4,0,2.4C225.5,117.3,225.5,114.9,223.9,114.9z"/>
	<path class="st0" d="M228.9,113.6c-1.6,0-1.6,2.4,0,2.4C230.5,116,230.5,113.6,228.9,113.6z"/>
	<path class="st0" d="M234.3,112.2c-1.6,0-1.6,2.4,0,2.4C235.9,114.6,235.9,112.2,234.3,112.2z"/>
	<path class="st0" d="M240.6,112.8c-1.6,0-1.6,2.4,0,2.4C242.2,115.2,242.2,112.8,240.6,112.8z"/>
	<path class="st0" d="M246,114.9c-1.6,0-1.6,2.4,0,2.4C247.5,117.3,247.5,114.9,246,114.9z"/>
	<path class="st0" d="M248.8,120.8c1.6,0,1.6-2.4,0-2.4C247.3,118.4,247.3,120.8,248.8,120.8z"/>
	<path class="st0" d="M249.9,126c1.6,0,1.6-2.4,0-2.4C248.3,123.5,248.3,126,249.9,126z"/>
	<path class="st0" d="M249.9,129.2c-1.6,0-1.6,2.4,0,2.4C251.5,131.6,251.5,129.2,249.9,129.2z"/>
	<path class="st0" d="M249.4,134.5c-1.6,0-1.6,2.4,0,2.4C250.9,136.9,250.9,134.5,249.4,134.5z"/>
	<path class="st0" d="M248.1,139.6c-1.6,0-1.6,2.4,0,2.4C249.7,142,249.7,139.6,248.1,139.6z"/>
	<path class="st0" d="M246.9,143.8c-1.6,0-1.6,2.4,0,2.4C248.4,146.3,248.4,143.8,246.9,143.8z"/>
	<path class="st0" d="M208.1,117.3c1.6,0,1.6-2.4,0-2.4C206.5,114.9,206.5,117.3,208.1,117.3z"/>
	<path class="st0" d="M203.1,116c1.6,0,1.6-2.4,0-2.4C201.5,113.6,201.5,116,203.1,116z"/>
	<path class="st0" d="M197.7,114.6c1.6,0,1.6-2.4,0-2.4C196.1,112.2,196.1,114.6,197.7,114.6z"/>
	<path class="st0" d="M191.4,115.2c1.6,0,1.6-2.4,0-2.4C189.8,112.8,189.8,115.2,191.4,115.2z"/>
	<path class="st0" d="M186,114.9c-1.6,0-1.6,2.4,0,2.4C187.6,117.3,187.6,114.9,186,114.9z"/>
	<path class="st0" d="M183.2,120.8c1.6,0,1.6-2.4,0-2.4C181.6,118.4,181.6,120.8,183.2,120.8z"/>
	<path class="st0" d="M182.1,126c1.6,0,1.6-2.4,0-2.4C180.5,123.5,180.5,126,182.1,126z"/>
	<path class="st0" d="M182.1,129.2c-1.6,0-1.6,2.4,0,2.4C183.7,131.6,183.7,129.2,182.1,129.2z"/>
	<path class="st0" d="M182.6,134.5c-1.6,0-1.6,2.4,0,2.4C184.2,136.9,184.2,134.5,182.6,134.5z"/>
	<path class="st0" d="M183.9,139.6c-1.6,0-1.6,2.4,0,2.4C185.4,142,185.4,139.6,183.9,139.6z"/>
	<path class="st0" d="M185.1,146.3c1.6,0,1.6-2.4,0-2.4C183.6,143.8,183.6,146.3,185.1,146.3z"/>
	<path class="st0" d="M306.4,171.7c-1.6,0-1.6,2.4,0,2.4C308,174.1,308,171.7,306.4,171.7z"/>
	<path class="st0" d="M310.1,175.4c-1.6,0-1.6,2.4,0,2.4C311.7,177.8,311.7,175.4,310.1,175.4z"/>
	<path class="st0" d="M314,179.3c-1.6,0-1.6,2.4,0,2.4C315.6,181.8,315.6,179.3,314,179.3z"/>
	<path class="st0" d="M316.7,187.5c1.6,0,1.6-2.4,0-2.4C315.1,185.1,315.1,187.5,316.7,187.5z"/>
	<path class="st0" d="M317.5,190.8c-1.6,0-1.6,2.4,0,2.4C319,193.2,319,190.8,317.5,190.8z"/>
	<path class="st0" d="M315.9,195c-1.6,0-1.6,2.4,0,2.4C317.5,197.5,317.5,195,315.9,195z"/>
	<path class="st0" d="M312,198.5c-1.6,0-1.6,2.4,0,2.4C313.5,200.9,313.5,198.5,312,198.5z"/>
	<path class="st0" d="M307.1,201.3c-1.6,0-1.6,2.4,0,2.4C308.7,203.8,308.7,201.3,307.1,201.3z"/>
	<path class="st0" d="M302.2,203.5c-1.6,0-1.6,2.4,0,2.4C303.8,206,303.8,203.5,302.2,203.5z"/>
	<path class="st0" d="M297.2,205c-1.6,0-1.6,2.4,0,2.4C298.8,207.4,298.8,205,297.2,205z"/>
	<path class="st0" d="M292.9,206.1c-1.6,0-1.6,2.4,0,2.4C294.4,208.5,294.4,206.1,292.9,206.1z"/>
	<path class="st0" d="M298.5,160.4c1.6,0,1.6-2.4,0-2.4C297,158,297,160.4,298.5,160.4z"/>
	<path class="st0" d="M297.2,155.4c1.6,0,1.6-2.4,0-2.4C295.6,153,295.6,155.4,297.2,155.4z"/>
	<path class="st0" d="M295.7,150.1c1.6,0,1.6-2.4,0-2.4C294.1,147.6,294.1,150.1,295.7,150.1z"/>
	<path class="st0" d="M292.1,144.9c1.6,0,1.6-2.4,0-2.4C290.5,142.5,290.5,144.9,292.1,144.9z"/>
	<path class="st0" d="M287.5,138.9c-1.6,0-1.6,2.4,0,2.4C289.1,141.3,289.1,138.9,287.5,138.9z"/>
	<path class="st0" d="M283.1,138.2c-1.6,0-1.6,2.4,0,2.4C284.6,140.6,284.6,138.2,283.1,138.2z"/>
	<path class="st0" d="M278.1,139.8c-1.6,0-1.6,2.4,0,2.4C279.7,142.2,279.7,139.8,278.1,139.8z"/>
	<path class="st0" d="M273.2,142.6c-1.6,0-1.6,2.4,0,2.4C274.8,145.1,274.8,142.6,273.2,142.6z"/>
	<path class="st0" d="M268.8,145.8c-1.6,0-1.6,2.4,0,2.4C270.4,148.2,270.4,145.8,268.8,145.8z"/>
	<path class="st0" d="M265.1,149.3c-1.6,0-1.6,2.4,0,2.4C266.6,151.8,266.6,149.3,265.1,149.3z"/>
	<path class="st0" d="M262,152.6c-1.6,0-1.6,2.4,0,2.4C263.6,155,263.6,152.6,262,152.6z"/>
	<path class="st0" d="M298.5,274c1.6,0,1.6-2.4,0-2.4C297,271.6,297,274,298.5,274z"/>
	<path class="st0" d="M297.2,279c1.6,0,1.6-2.4,0-2.4C295.6,276.6,295.6,279,297.2,279z"/>
	<path class="st0" d="M295.7,284.4c1.6,0,1.6-2.4,0-2.4C294.1,281.9,294.1,284.4,295.7,284.4z"/>
	<path class="st0" d="M292.1,289.5c1.6,0,1.6-2.4,0-2.4C290.5,287.1,290.5,289.5,292.1,289.5z"/>
	<path class="st0" d="M287.5,293.1c1.6,0,1.6-2.4,0-2.4C285.9,290.7,285.9,293.1,287.5,293.1z"/>
	<path class="st0" d="M283.1,293.8c1.6,0,1.6-2.4,0-2.4C281.5,291.4,281.5,293.8,283.1,293.8z"/>
	<path class="st0" d="M278.1,292.2c1.6,0,1.6-2.4,0-2.4C276.5,289.8,276.5,292.2,278.1,292.2z"/>
	<path class="st0" d="M273.2,289.4c1.6,0,1.6-2.4,0-2.4C271.6,286.9,271.6,289.4,273.2,289.4z"/>
	<path class="st0" d="M268.8,286.2c1.6,0,1.6-2.4,0-2.4C267.3,283.8,267.3,286.2,268.8,286.2z"/>
	<path class="st0" d="M265.1,280.2c-1.6,0-1.6,2.4,0,2.4C266.6,282.7,266.6,280.2,265.1,280.2z"/>
	<path class="st0" d="M262,277c-1.6,0-1.6,2.4,0,2.4C263.6,279.4,263.6,277,262,277z"/>
	<path class="st0" d="M306.4,260.3c1.6,0,1.6-2.4,0-2.4C304.9,257.9,304.9,260.3,306.4,260.3z"/>
	<path class="st0" d="M310.1,256.6c1.6,0,1.6-2.4,0-2.4C308.5,254.2,308.5,256.6,310.1,256.6z"/>
	<path class="st0" d="M314,252.7c1.6,0,1.6-2.4,0-2.4C312.4,250.2,312.4,252.7,314,252.7z"/>
	<path class="st0" d="M316.7,244.5c-1.6,0-1.6,2.4,0,2.4C318.2,246.9,318.2,244.5,316.7,244.5z"/>
	<path class="st0" d="M317.5,241.2c1.6,0,1.6-2.4,0-2.4C315.9,238.8,315.9,241.2,317.5,241.2z"/>
	<path class="st0" d="M315.9,237c1.6,0,1.6-2.4,0-2.4C314.3,234.5,314.3,237,315.9,237z"/>
	<path class="st0" d="M312,231.1c-1.6,0-1.6,2.4,0,2.4C313.5,233.5,313.5,231.1,312,231.1z"/>
	<path class="st0" d="M307.1,228.2c-1.6,0-1.6,2.4,0,2.4C308.7,230.7,308.7,228.2,307.1,228.2z"/>
	<path class="st0" d="M302.2,226c-1.6,0-1.6,2.4,0,2.4C303.8,228.5,303.8,226,302.2,226z"/>
	<path class="st0" d="M297.2,224.6c-1.6,0-1.6,2.4,0,2.4C298.8,227,298.8,224.6,297.2,224.6z"/>
	<path class="st0" d="M292.9,223.5c-1.6,0-1.6,2.4,0,2.4C294.4,225.9,294.4,223.5,292.9,223.5z"/>
	<path class="st0" d="M208.1,317.1c1.6,0,1.6-2.4,0-2.4C206.5,314.7,206.5,317.1,208.1,317.1z"/>
	<path class="st0" d="M203.1,318.4c1.6,0,1.6-2.4,0-2.4C201.5,316,201.5,318.4,203.1,318.4z"/>
	<path class="st0" d="M197.7,319.8c1.6,0,1.6-2.4,0-2.4C196.1,317.4,196.1,319.8,197.7,319.8z"/>
	<path class="st0" d="M191.4,319.2c1.6,0,1.6-2.4,0-2.4C189.8,316.8,189.8,319.2,191.4,319.2z"/>
	<path class="st0" d="M186,317.1c1.6,0,1.6-2.4,0-2.4C184.5,314.7,184.5,317.1,186,317.1z"/>
	<path class="st0" d="M183.2,311.2c-1.6,0-1.6,2.4,0,2.4C184.7,313.6,184.7,311.2,183.2,311.2z"/>
	<path class="st0" d="M182.1,306c-1.6,0-1.6,2.4,0,2.4C183.7,308.5,183.7,306,182.1,306z"/>
	<path class="st0" d="M182.1,302.8c1.6,0,1.6-2.4,0-2.4C180.5,300.4,180.5,302.8,182.1,302.8z"/>
	<path class="st0" d="M182.6,297.5c1.6,0,1.6-2.4,0-2.4C181.1,295.1,181.1,297.5,182.6,297.5z"/>
	<path class="st0" d="M183.9,292.4c1.6,0,1.6-2.4,0-2.4C182.3,290,182.3,292.4,183.9,292.4z"/>
	<path class="st0" d="M185.1,288.2c1.6,0,1.6-2.4,0-2.4C183.6,285.7,183.6,288.2,185.1,288.2z"/>
	<path class="st0" d="M223.9,314.7c-1.6,0-1.6,2.4,0,2.4C225.5,317.1,225.5,314.7,223.9,314.7z"/>
	<path class="st0" d="M228.9,316c-1.6,0-1.6,2.4,0,2.4C230.5,318.4,230.5,316,228.9,316z"/>
	<path class="st0" d="M234.3,317.4c-1.6,0-1.6,2.4,0,2.4C235.9,319.8,235.9,317.4,234.3,317.4z"/>
	<path class="st0" d="M240.6,316.8c-1.6,0-1.6,2.4,0,2.4C242.2,319.2,242.2,316.8,240.6,316.8z"/>
	<path class="st0" d="M246,317.1c1.6,0,1.6-2.4,0-2.4C244.4,314.7,244.4,317.1,246,317.1z"/>
	<path class="st0" d="M248.8,311.2c-1.6,0-1.6,2.4,0,2.4C250.4,313.6,250.4,311.2,248.8,311.2z"/>
	<path class="st0" d="M249.9,306c-1.6,0-1.6,2.4,0,2.4C251.5,308.5,251.5,306,249.9,306z"/>
	<path class="st0" d="M249.9,302.8c1.6,0,1.6-2.4,0-2.4C248.3,300.4,248.3,302.8,249.9,302.8z"/>
	<path class="st0" d="M249.4,297.5c1.6,0,1.6-2.4,0-2.4C247.8,295.1,247.8,297.5,249.4,297.5z"/>
	<path class="st0" d="M248.1,292.4c1.6,0,1.6-2.4,0-2.4C246.6,290,246.6,292.4,248.1,292.4z"/>
	<path class="st0" d="M246.9,285.7c-1.6,0-1.6,2.4,0,2.4C248.4,288.2,248.4,285.7,246.9,285.7z"/>
	<path class="st0" d="M125.6,260.3c1.6,0,1.6-2.4,0-2.4C124,257.9,124,260.3,125.6,260.3z"/>
	<path class="st0" d="M121.9,256.6c1.6,0,1.6-2.4,0-2.4C120.3,254.2,120.3,256.6,121.9,256.6z"/>
	<path class="st0" d="M118,252.7c1.6,0,1.6-2.4,0-2.4C116.4,250.2,116.4,252.7,118,252.7z"/>
	<path class="st0" d="M115.3,244.5c-1.6,0-1.6,2.4,0,2.4C116.9,246.9,116.9,244.5,115.3,244.5z"/>
	<path class="st0" d="M114.5,241.2c1.6,0,1.6-2.4,0-2.4C113,238.8,113,241.2,114.5,241.2z"/>
	<path class="st0" d="M116.1,237c1.6,0,1.6-2.4,0-2.4C114.5,234.5,114.5,237,116.1,237z"/>
	<path class="st0" d="M120,233.5c1.6,0,1.6-2.4,0-2.4C118.5,231.1,118.5,233.5,120,233.5z"/>
	<path class="st0" d="M124.9,230.7c1.6,0,1.6-2.4,0-2.4C123.3,228.2,123.3,230.7,124.9,230.7z"/>
	<path class="st0" d="M129.8,228.5c1.6,0,1.6-2.4,0-2.4C128.2,226,128.2,228.5,129.8,228.5z"/>
	<path class="st0" d="M134.8,227c1.6,0,1.6-2.4,0-2.4C133.2,224.6,133.2,227,134.8,227z"/>
	<path class="st0" d="M139.1,225.9c1.6,0,1.6-2.4,0-2.4C137.6,223.5,137.6,225.9,139.1,225.9z"/>
	<path class="st0" d="M133.5,271.6c-1.6,0-1.6,2.4,0,2.4C135,274,135,271.6,133.5,271.6z"/>
	<path class="st0" d="M134.8,276.6c-1.6,0-1.6,2.4,0,2.4C136.4,279,136.4,276.6,134.8,276.6z"/>
	<path class="st0" d="M136.3,281.9c-1.6,0-1.6,2.4,0,2.4C137.9,284.4,137.9,281.9,136.3,281.9z"/>
	<path class="st0" d="M139.9,287.1c-1.6,0-1.6,2.4,0,2.4C141.5,289.5,141.5,287.1,139.9,287.1z"/>
	<path class="st0" d="M144.5,293.1c1.6,0,1.6-2.4,0-2.4C142.9,290.7,142.9,293.1,144.5,293.1z"/>
	<path class="st0" d="M148.9,293.8c1.6,0,1.6-2.4,0-2.4C147.4,291.4,147.4,293.8,148.9,293.8z"/>
	<path class="st0" d="M153.9,292.2c1.6,0,1.6-2.4,0-2.4C152.3,289.8,152.3,292.2,153.9,292.2z"/>
	<path class="st0" d="M158.8,289.4c1.6,0,1.6-2.4,0-2.4C157.2,286.9,157.2,289.4,158.8,289.4z"/>
	<path class="st0" d="M163.2,286.2c1.6,0,1.6-2.4,0-2.4C161.6,283.8,161.6,286.2,163.2,286.2z"/>
	<path class="st0" d="M166.9,282.7c1.6,0,1.6-2.4,0-2.4C165.4,280.2,165.4,282.7,166.9,282.7z"/>
	<path class="st0" d="M170,279.4c1.6,0,1.6-2.4,0-2.4C168.4,277,168.4,279.4,170,279.4z"/>
	<path class="st0" d="M133.5,158c-1.6,0-1.6,2.4,0,2.4C135,160.4,135,158,133.5,158z"/>
	<path class="st0" d="M134.8,153c-1.6,0-1.6,2.4,0,2.4C136.4,155.4,136.4,153,134.8,153z"/>
	<path class="st0" d="M136.3,147.6c-1.6,0-1.6,2.4,0,2.4C137.9,150.1,137.9,147.6,136.3,147.6z"/>
	<path class="st0" d="M139.9,142.5c-1.6,0-1.6,2.4,0,2.4C141.5,144.9,141.5,142.5,139.9,142.5z"/>
	<path class="st0" d="M144.5,138.9c-1.6,0-1.6,2.4,0,2.4C146.1,141.3,146.1,138.9,144.5,138.9z"/>
	<path class="st0" d="M148.9,138.2c-1.6,0-1.6,2.4,0,2.4C150.5,140.6,150.5,138.2,148.9,138.2z"/>
	<path class="st0" d="M153.9,139.8c-1.6,0-1.6,2.4,0,2.4C155.5,142.2,155.5,139.8,153.9,139.8z"/>
	<path class="st0" d="M158.8,142.6c-1.6,0-1.6,2.4,0,2.4C160.4,145.1,160.4,142.6,158.8,142.6z"/>
	<path class="st0" d="M163.2,145.8c-1.6,0-1.6,2.4,0,2.4C164.7,148.2,164.7,145.8,163.2,145.8z"/>
	<path class="st0" d="M166.9,151.8c1.6,0,1.6-2.4,0-2.4C165.4,149.3,165.4,151.8,166.9,151.8z"/>
	<path class="st0" d="M170,155c1.6,0,1.6-2.4,0-2.4C168.4,152.6,168.4,155,170,155z"/>
	<path class="st0" d="M125.6,171.7c-1.6,0-1.6,2.4,0,2.4C127.1,174.1,127.1,171.7,125.6,171.7z"/>
	<path class="st0" d="M121.9,175.4c-1.6,0-1.6,2.4,0,2.4C123.5,177.8,123.5,175.4,121.9,175.4z"/>
	<path class="st0" d="M118,179.3c-1.6,0-1.6,2.4,0,2.4C119.6,181.8,119.6,179.3,118,179.3z"/>
	<path class="st0" d="M115.3,187.5c1.6,0,1.6-2.4,0-2.4C113.8,185.1,113.8,187.5,115.3,187.5z"/>
	<path class="st0" d="M114.5,190.8c-1.6,0-1.6,2.4,0,2.4C116.1,193.2,116.1,190.8,114.5,190.8z"/>
	<path class="st0" d="M116.1,195c-1.6,0-1.6,2.4,0,2.4C117.7,197.5,117.7,195,116.1,195z"/>
	<path class="st0" d="M120,200.9c1.6,0,1.6-2.4,0-2.4C118.5,198.5,118.5,200.9,120,200.9z"/>
	<path class="st0" d="M124.9,203.8c1.6,0,1.6-2.4,0-2.4C123.3,201.3,123.3,203.8,124.9,203.8z"/>
	<path class="st0" d="M129.8,206c1.6,0,1.6-2.4,0-2.4C128.2,203.5,128.2,206,129.8,206z"/>
	<path class="st0" d="M134.8,207.4c1.6,0,1.6-2.4,0-2.4C133.2,205,133.2,207.4,134.8,207.4z"/>
	<path class="st0" d="M139.1,208.5c1.6,0,1.6-2.4,0-2.4C137.6,206.1,137.6,208.5,139.1,208.5z"/>
	<path class="st0" d="M223.5,101.9c1.6,0,1.6-2.4,0-2.4C222,99.4,222,101.9,223.5,101.9z"/>
	<path class="st0" d="M228.9,95.7c1.6,0,1.6-2.4,0-2.4C227.4,93.3,227.4,95.7,228.9,95.7z"/>
	<path class="st0" d="M233.6,90.7c1.6,0,1.6-2.4,0-2.4C232,88.2,232,90.7,233.6,90.7z"/>
	<path class="st0" d="M238.8,85.8c1.6,0,1.6-2.4,0-2.4C237.3,83.4,237.3,85.8,238.8,85.8z"/>
	<path class="st0" d="M244,80.5c1.6,0,1.6-2.4,0-2.4C242.4,78,242.4,80.5,244,80.5z"/>
	<path class="st0" d="M208.5,101.9c1.6,0,1.6-2.4,0-2.4C206.9,99.4,206.9,101.9,208.5,101.9z"/>
	<path class="st0" d="M203.1,95.7c1.6,0,1.6-2.4,0-2.4C201.5,93.3,201.5,95.7,203.1,95.7z"/>
	<path class="st0" d="M198.4,90.7c1.6,0,1.6-2.4,0-2.4C196.8,88.2,196.8,90.7,198.4,90.7z"/>
	<path class="st0" d="M193.2,85.8c1.6,0,1.6-2.4,0-2.4C191.6,83.4,191.6,85.8,193.2,85.8z"/>
	<path class="st0" d="M188,80.5c1.6,0,1.6-2.4,0-2.4C186.4,78,186.4,80.5,188,80.5z"/>
	<path class="st0" d="M319.7,166.1c1.6,0,1.6-2.4,0-2.4C318.1,163.6,318.1,166.1,319.7,166.1z"/>
	<path class="st0" d="M327.7,167.7c1.6,0,1.6-2.4,0-2.4C326.1,165.2,326.1,167.7,327.7,167.7z"/>
	<path class="st0" d="M334.4,169.2c1.6,0,1.6-2.4,0-2.4C332.8,166.8,332.8,169.2,334.4,169.2z"/>
	<path class="st0" d="M341.2,171.3c1.6,0,1.6-2.4,0-2.4C339.6,168.9,339.6,171.3,341.2,171.3z"/>
	<path class="st0" d="M348.4,173.1c1.6,0,1.6-2.4,0-2.4C346.9,170.7,346.9,173.1,348.4,173.1z"/>
	<path class="st0" d="M312.1,150.6c-1.6,0-1.6,2.4,0,2.4C313.7,153,313.7,150.6,312.1,150.6z"/>
	<path class="st0" d="M314.7,142.8c-1.6,0-1.6,2.4,0,2.4C316.3,145.3,316.3,142.8,314.7,142.8z"/>
	<path class="st0" d="M316.8,136.3c-1.6,0-1.6,2.4,0,2.4C318.3,138.7,318.3,136.3,316.8,136.3z"/>
	<path class="st0" d="M318.4,129.3c-1.6,0-1.6,2.4,0,2.4C319.9,131.7,319.9,129.3,318.4,129.3z"/>
	<path class="st0" d="M320.4,122.2c-1.6,0-1.6,2.4,0,2.4C322,124.6,322,122.2,320.4,122.2z"/>
	<path class="st0" d="M312.1,281.4c1.6,0,1.6-2.4,0-2.4C310.6,279,310.6,281.4,312.1,281.4z"/>
	<path class="st0" d="M314.7,289.2c1.6,0,1.6-2.4,0-2.4C313.2,286.7,313.2,289.2,314.7,289.2z"/>
	<path class="st0" d="M316.8,295.7c1.6,0,1.6-2.4,0-2.4C315.2,293.3,315.2,295.7,316.8,295.7z"/>
	<path class="st0" d="M318.4,302.7c1.6,0,1.6-2.4,0-2.4C316.8,300.3,316.8,302.7,318.4,302.7z"/>
	<path class="st0" d="M320.4,309.8c1.6,0,1.6-2.4,0-2.4C318.9,307.4,318.9,309.8,320.4,309.8z"/>
	<path class="st0" d="M319.7,265.9c-1.6,0-1.6,2.4,0,2.4C321.2,268.4,321.2,265.9,319.7,265.9z"/>
	<path class="st0" d="M327.7,264.3c-1.6,0-1.6,2.4,0,2.4C329.2,266.8,329.2,264.3,327.7,264.3z"/>
	<path class="st0" d="M334.4,262.8c-1.6,0-1.6,2.4,0,2.4C336,265.2,336,262.8,334.4,262.8z"/>
	<path class="st0" d="M341.2,260.7c-1.6,0-1.6,2.4,0,2.4C342.8,263.1,342.8,260.7,341.2,260.7z"/>
	<path class="st0" d="M348.4,258.9c-1.6,0-1.6,2.4,0,2.4C350,261.3,350,258.9,348.4,258.9z"/>
	<path class="st0" d="M208.5,330.1c-1.6,0-1.6,2.4,0,2.4C210,332.6,210,330.1,208.5,330.1z"/>
	<path class="st0" d="M203.1,336.3c-1.6,0-1.6,2.4,0,2.4C204.6,338.7,204.6,336.3,203.1,336.3z"/>
	<path class="st0" d="M198.4,341.3c-1.6,0-1.6,2.4,0,2.4C200,343.8,200,341.3,198.4,341.3z"/>
	<path class="st0" d="M193.2,346.2c-1.6,0-1.6,2.4,0,2.4C194.7,348.6,194.7,346.2,193.2,346.2z"/>
	<path class="st0" d="M188,351.5c-1.6,0-1.6,2.4,0,2.4C189.6,354,189.6,351.5,188,351.5z"/>
	<path class="st0" d="M223.5,330.1c-1.6,0-1.6,2.4,0,2.4C225.1,332.6,225.1,330.1,223.5,330.1z"/>
	<path class="st0" d="M228.9,336.3c-1.6,0-1.6,2.4,0,2.4C230.5,338.7,230.5,336.3,228.9,336.3z"/>
	<path class="st0" d="M233.6,341.3c-1.6,0-1.6,2.4,0,2.4C235.2,343.8,235.2,341.3,233.6,341.3z"/>
	<path class="st0" d="M238.8,346.2c-1.6,0-1.6,2.4,0,2.4C240.4,348.6,240.4,346.2,238.8,346.2z"/>
	<path class="st0" d="M244,351.5c-1.6,0-1.6,2.4,0,2.4C245.6,354,245.6,351.5,244,351.5z"/>
	<path class="st0" d="M112.3,265.9c-1.6,0-1.6,2.4,0,2.4C113.9,268.4,113.9,265.9,112.3,265.9z"/>
	<path class="st0" d="M104.3,264.3c-1.6,0-1.6,2.4,0,2.4C105.9,266.8,105.9,264.3,104.3,264.3z"/>
	<path class="st0" d="M97.6,262.8c-1.6,0-1.6,2.4,0,2.4C99.2,265.2,99.2,262.8,97.6,262.8z"/>
	<path class="st0" d="M90.8,260.7c-1.6,0-1.6,2.4,0,2.4C92.4,263.1,92.4,260.7,90.8,260.7z"/>
	<path class="st0" d="M83.6,258.9c-1.6,0-1.6,2.4,0,2.4C85.1,261.3,85.1,258.9,83.6,258.9z"/>
	<path class="st0" d="M119.9,281.4c1.6,0,1.6-2.4,0-2.4C118.3,279,118.3,281.4,119.9,281.4z"/>
	<path class="st0" d="M117.3,289.2c1.6,0,1.6-2.4,0-2.4C115.7,286.7,115.7,289.2,117.3,289.2z"/>
	<path class="st0" d="M115.2,295.7c1.6,0,1.6-2.4,0-2.4C113.7,293.3,113.7,295.7,115.2,295.7z"/>
	<path class="st0" d="M113.6,302.7c1.6,0,1.6-2.4,0-2.4C112.1,300.3,112.1,302.7,113.6,302.7z"/>
	<path class="st0" d="M111.6,309.8c1.6,0,1.6-2.4,0-2.4C110,307.4,110,309.8,111.6,309.8z"/>
	<path class="st0" d="M119.9,150.6c-1.6,0-1.6,2.4,0,2.4C121.4,153,121.4,150.6,119.9,150.6z"/>
	<path class="st0" d="M117.3,142.8c-1.6,0-1.6,2.4,0,2.4C118.8,145.3,118.8,142.8,117.3,142.8z"/>
	<path class="st0" d="M115.2,136.3c-1.6,0-1.6,2.4,0,2.4C116.8,138.7,116.8,136.3,115.2,136.3z"/>
	<path class="st0" d="M113.6,129.3c-1.6,0-1.6,2.4,0,2.4C115.2,131.7,115.2,129.3,113.6,129.3z"/>
	<path class="st0" d="M111.6,122.2c-1.6,0-1.6,2.4,0,2.4C113.1,124.6,113.1,122.2,111.6,122.2z"/>
	<path class="st0" d="M112.3,166.1c1.6,0,1.6-2.4,0-2.4C110.8,163.6,110.8,166.1,112.3,166.1z"/>
	<path class="st0" d="M104.3,167.7c1.6,0,1.6-2.4,0-2.4C102.8,165.2,102.8,167.7,104.3,167.7z"/>
	<path class="st0" d="M97.6,169.2c1.6,0,1.6-2.4,0-2.4C96,166.8,96,169.2,97.6,169.2z"/>
	<path class="st0" d="M90.8,171.3c1.6,0,1.6-2.4,0-2.4C89.2,168.9,89.2,171.3,90.8,171.3z"/>
	<path class="st0" d="M83.6,173.1c1.6,0,1.6-2.4,0-2.4C82,170.7,82,173.1,83.6,173.1z"/>
</g>
</svg>
