<?xml version="1.0" encoding="utf-8"?>
<!-- Generator: Adobe Illustrator 21.0.1, SVG Export Plug-In . SVG Version: 6.00 Build 0)  -->
<svg version="1.1" id="Calque_1" xmlns="http://www.w3.org/2000/svg" xmlns:xlink="http://www.w3.org/1999/xlink" x="0px" y="0px"
	 viewBox="0 0 432 432" style="enable-background:new 0 0 432 432;" xml:space="preserve">
<style type="text/css">
	.st0{fill:#414042;}
	.st1{fill:#DA1C5C;}
	.st2{fill:#D1D3D4;}
	.st3{fill:#E8A0C7;}
	.st4{fill:#171717;}
	.st5{fill:#8DC63F;}
	.st6{fill:#1B75BC;}
	.st7{fill:#9E1F63;}
	.st8{fill:#F15A29;}
	.st9{fill:#00A79D;}
	.st10{fill:#EF4136;}
	.st11{fill:#ADCE4D;}
	.st12{fill:#EC8C28;}
	.st13{fill:#EDB525;}
	.st14{fill:#39B54A;}
	.st15{fill:#ED1C24;}
	.st16{fill:#F7941D;}
	.st17{fill:#FFF200;}
	.st18{fill:#27AAE1;}
	.st19{fill:#2B3990;}
	.st20{fill:#662D91;}
	.st21{fill:#35203B;}
	.st22{fill:#262262;}
	.st23{fill:none;stroke:#39B54A;stroke-width:2.232;stroke-linecap:round;stroke-linejoin:round;stroke-miterlimit:10;}
	.st24{fill-rule:evenodd;clip-rule:evenodd;fill:#92278F;}
	.st25{fill:#92278F;}
	.st26{fill:#FFFFFF;stroke:#39B54A;stroke-width:2.232;stroke-miterlimit:10;}
	.st27{fill:#2BB673;}
	.st28{fill:#009444;}
	.st29{fill-rule:evenodd;clip-rule:evenodd;fill:#9E1F63;}
	.st30{fill-rule:evenodd;clip-rule:evenodd;fill:#DA1C5C;}
	.st31{fill-rule:evenodd;clip-rule:evenodd;fill:#00A79D;}
	.st32{fill-rule:evenodd;clip-rule:evenodd;fill:#D7DF23;}
</style>
<g>
	<path class="st0" d="M367.2,216c0-6-1-11.5-2.4-16.4c0,0,0-0.1,0-0.1c0-0.1-0.1-0.1-0.1-0.1c-1.3-4.5-2.9-8.3-4.5-11.5
		c0,0,0-0.1,0-0.1c0-0.1-0.1-0.1-0.1-0.1c-2.4-4.8-4.6-7.9-5.4-8.8c0.1-1.2,0.5-5,0.2-10.4c0,0,0-0.1,0-0.1c0,0,0,0,0-0.1
		c-0.2-3.6-0.7-7.8-1.9-12.3c0,0,0-0.1,0-0.1c0,0,0,0,0-0.1c-1.2-4.9-3.2-10.2-6.2-15.4c-3-5.2-6.6-9.5-10.2-13c0,0,0,0,0-0.1
		c0,0-0.1,0-0.1,0c-3.4-3.2-6.8-5.8-9.8-7.8c0,0,0,0,0-0.1c0,0-0.1,0-0.1,0c-4.5-2.9-8-4.5-9.1-5c-0.5-1.1-2-4.6-5-9.1
		c0,0,0-0.1,0-0.1c0,0,0,0-0.1,0c-2-3-4.6-6.4-7.8-9.8c0,0,0,0,0-0.1c0,0,0,0-0.1,0c-3.5-3.6-7.8-7.2-13-10.2
		c-5.2-3-10.5-4.9-15.4-6.2c0,0,0,0,0,0c0,0-0.1,0-0.1,0c-4.5-1.1-8.8-1.7-12.3-1.9c0,0,0,0-0.1,0c0,0-0.1,0-0.1,0
		c-5.3-0.3-9.2,0.1-10.4,0.2c-0.9-0.7-4.1-3-8.8-5.4c0,0-0.1-0.1-0.1-0.1c0,0-0.1,0-0.1,0c-3.2-1.6-7.1-3.2-11.5-4.5
		c-0.1,0-0.1-0.1-0.1-0.1c0,0-0.1,0-0.1,0c-4.9-1.4-10.4-2.4-16.4-2.4s-11.5,1-16.4,2.4c0,0-0.1,0-0.1,0c-0.1,0-0.1,0.1-0.1,0.1
		c-4.5,1.3-8.3,2.9-11.5,4.5c0,0-0.1,0-0.1,0c0,0-0.1,0.1-0.1,0.1c-4.8,2.4-7.9,4.6-8.8,5.4c-1.2-0.1-5-0.5-10.4-0.2
		c0,0-0.1,0-0.1,0c0,0,0,0-0.1,0c-3.6,0.2-7.8,0.7-12.4,1.9c0,0-0.1,0-0.1,0c0,0,0,0,0,0c-4.9,1.2-10.2,3.2-15.4,6.2
		c-5.2,3-9.5,6.6-13,10.2c0,0,0,0-0.1,0c0,0,0,0.1,0,0.1c-3.2,3.4-5.8,6.8-7.8,9.8c0,0,0,0-0.1,0c0,0,0,0.1,0,0.1
		c-2.9,4.5-4.5,8-5,9.1c-1.1,0.5-4.6,2.1-9.1,5c0,0-0.1,0-0.1,0c0,0,0,0,0,0.1c-3,2-6.4,4.6-9.8,7.8c0,0-0.1,0-0.1,0c0,0,0,0,0,0.1
		c-3.6,3.5-7.2,7.8-10.2,13c-3,5.2-4.9,10.5-6.2,15.4c0,0,0,0,0,0.1c0,0,0,0.1,0,0.1c-1.1,4.5-1.7,8.8-1.9,12.3c0,0,0,0,0,0.1
		c0,0,0,0.1,0,0.1c-0.3,5.3,0.1,9.2,0.2,10.4c-0.7,0.9-3,4.1-5.4,8.8c0,0-0.1,0.1-0.1,0.1c0,0,0,0.1,0,0.1
		c-1.6,3.2-3.2,7.1-4.5,11.5c0,0.1-0.1,0.1-0.1,0.1c0,0,0,0.1,0,0.1c-1.4,4.9-2.4,10.4-2.4,16.4s1,11.5,2.4,16.4c0,0,0,0.1,0,0.1
		c0,0.1,0.1,0.1,0.1,0.1c1.3,4.5,2.9,8.3,4.5,11.5c0,0,0,0.1,0,0.1c0,0.1,0.1,0.1,0.1,0.1c2.4,4.8,4.6,7.9,5.4,8.8
		c-0.1,1.2-0.5,5-0.2,10.4c0,0,0,0.1,0,0.1c0,0,0,0,0,0.1c0.2,3.6,0.7,7.8,1.9,12.3c0,0,0,0.1,0,0.1c0,0,0,0,0,0.1
		c1.2,4.9,3.2,10.2,6.2,15.4c3,5.2,6.6,9.5,10.2,13c0,0,0,0,0,0.1c0,0,0.1,0,0.1,0c3.4,3.2,6.8,5.8,9.8,7.8c0,0,0,0,0,0.1
		c0,0,0.1,0,0.1,0c4.5,2.9,8,4.5,9.1,5c0.5,1.1,2,4.6,5,9.1c0,0,0,0.1,0,0.1c0,0,0,0,0.1,0c2,3,4.6,6.4,7.8,9.8c0,0,0,0.1,0,0.1
		c0,0,0,0,0.1,0c3.5,3.6,7.8,7.2,13,10.2c5.2,3,10.5,4.9,15.4,6.2c0,0,0,0,0.1,0c0,0,0.1,0,0.1,0c4.5,1.1,8.8,1.7,12.3,1.9
		c0,0,0.1,0,0.1,0c0,0,0.1,0,0.1,0c0,0,0.1,0,0.1,0c1.4,0.1,2.7,0.1,3.8,0.1c3.3,0,5.6-0.2,6.4-0.3c0.9,0.7,4.1,3,8.8,5.4
		c0,0,0.1,0.1,0.1,0.1c0,0,0.1,0,0.1,0c3.2,1.6,7.1,3.2,11.5,4.5c0.1,0,0.1,0.1,0.1,0.1c0,0,0.1,0,0.1,0c4.9,1.4,10.4,2.4,16.4,2.4
		s11.5-1,16.4-2.4c0,0,0.1,0,0.1,0c0.1,0,0.1-0.1,0.1-0.1c4.5-1.3,8.3-2.9,11.5-4.5c0,0,0.1,0,0.1,0c0,0,0.1-0.1,0.1-0.1
		c4.8-2.4,7.9-4.6,8.8-5.4c0.9,0.1,3.1,0.3,6.4,0.3c1.2,0,2.5,0,3.8-0.1c0,0,0.1,0,0.1,0c0,0,0.1,0,0.1,0c0,0,0.1,0,0.1,0
		c3.6-0.2,7.8-0.7,12.3-1.9c0,0,0.1,0,0.1,0c0,0,0,0,0.1,0c4.9-1.2,10.2-3.2,15.4-6.2c5.2-3,9.5-6.6,13-10.2c0,0,0,0,0.1,0
		c0,0,0,0,0-0.1c3.2-3.4,5.8-6.8,7.8-9.8c0,0,0,0,0.1,0c0,0,0-0.1,0-0.1c2.9-4.5,4.5-8,5-9.1c1.1-0.5,4.6-2.1,9.1-5c0,0,0.1,0,0.1,0
		c0,0,0,0,0-0.1c3-2,6.4-4.6,9.8-7.8c0,0,0.1,0,0.1,0c0,0,0,0,0-0.1c3.6-3.5,7.2-7.8,10.2-13c3-5.2,4.9-10.5,6.2-15.4c0,0,0,0,0-0.1
		c0,0,0-0.1,0-0.1c1.1-4.5,1.7-8.8,1.9-12.3c0,0,0,0,0-0.1c0,0,0-0.1,0-0.1c0.3-5.3-0.1-9.2-0.2-10.4c0.7-0.9,3-4.1,5.4-8.8
		c0,0,0.1-0.1,0.1-0.1c0,0,0-0.1,0-0.1c1.6-3.2,3.2-7.1,4.5-11.5c0-0.1,0.1-0.1,0.1-0.1c0,0,0-0.1,0-0.1
		C366.2,227.5,367.2,222,367.2,216z M363.4,230.8l-9.1-6l11-7.1C365.1,222.4,364.4,226.8,363.4,230.8z M290.3,344.7l-11.4-5.9
		c2.1-0.9,4.1-1.9,6.2-3.1c2.1-1.2,4-2.5,5.8-3.9L290.3,344.7z M275.1,349.7l-6-7.9c2.1-0.5,4.3-1.1,6.5-1.8L275.1,349.7z
		 M252.5,352.2l-6.9-6.3c2.3-1.4,3.8-2.5,4.5-3c0.8,0.1,2.7,0.3,5.3,0.3L252.5,352.2z M243,357.3l-7.2-6.7c2.8-1,5.2-2.2,7.3-3.3
		L243,357.3z M231.7,361.3l-5.3-8.1c2.3-0.4,4.5-1,6.5-1.7L231.7,361.3z M216,364.6l-6.9-10.8c2.2,0.3,4.5,0.5,6.9,0.5
		s4.7-0.2,6.9-0.5L216,364.6z M199.1,351.5c2,0.6,4.2,1.2,6.5,1.7l-5.3,8.1L199.1,351.5z M189,347.3c2.1,1.1,4.5,2.2,7.3,3.3
		l-7.2,6.7L189,347.3z M179.5,352.2l-2.9-8.9c2.7,0,4.6-0.2,5.3-0.3c0.6,0.5,2.2,1.6,4.5,3L179.5,352.2z M156.4,340
		c2.2,0.8,4.4,1.4,6.5,1.8l-6,7.9L156.4,340z M141.7,87.3l11.4,5.9c-2.1,0.9-4.1,1.9-6.2,3.1c-2.1,1.2-4,2.5-5.8,3.9L141.7,87.3z
		 M156.9,82.3l6,7.9c-2.1,0.5-4.3,1-6.5,1.8L156.9,82.3z M179.5,79.8l6.9,6.3c-2.3,1.4-3.8,2.5-4.5,3c-0.8-0.1-2.7-0.3-5.3-0.3
		L179.5,79.8z M189,74.7l7.2,6.7c-2.8,1-5.2,2.2-7.3,3.3L189,74.7z M200.3,70.7l5.3,8.1c-2.3,0.4-4.5,1-6.5,1.7L200.3,70.7z
		 M216,67.4l6.9,10.8c-2.2-0.3-4.5-0.5-6.9-0.5s-4.7,0.2-6.9,0.5L216,67.4z M232.9,80.5c-2-0.6-4.2-1.2-6.5-1.7l5.3-8.1L232.9,80.5z
		 M243,84.7c-2.1-1.1-4.5-2.2-7.3-3.3l7.2-6.7L243,84.7z M252.5,79.8l2.9,8.9c-2.7,0-4.5,0.2-5.3,0.3c-0.6-0.5-2.2-1.6-4.5-3
		L252.5,79.8z M275.6,92c-2.2-0.8-4.4-1.4-6.5-1.8l6-7.9L275.6,92z M341.7,248.6c-3.1-1.6-5.9-3.2-8.4-4.7
		c3.4-6.2,7.4-15.9,7.4-27.8c0,0,0,0,0,0c0,0,0,0,0,0s0,0,0,0c0,0,0,0,0,0c0-11.8-3.9-21.5-7.4-27.8c2.5-1.6,5.2-3.2,8.4-4.7
		c2.1,2.8,10.7,15.6,10.7,32.6S343.7,245.7,341.7,248.6z M351.8,263.3l-9.4,2.9c0.5-2.9,0.7-5.6,0.8-7.9L351.8,263.3z M334.1,284.2
		c-8.5,14.7-22.3,21.4-25.5,22.8c-1.9-2.9-3.5-5.7-4.9-8.3c6.1-3.6,14.3-10.1,20.3-20.4c0,0,0,0,0,0c0,0,0,0,0,0c0,0,0,0,0,0
		c0,0,0,0,0,0c5.9-10.2,7.3-20.5,7.5-27.8c2.9-0.1,6.1-0.1,9.6,0.1C341.5,254.1,342.6,269.5,334.1,284.2z M284.2,334.1
		c-14.7,8.5-30.1,7.4-33.5,7c-0.2-3.5-0.2-6.7-0.1-9.6c7.1-0.1,17.5-1.5,27.8-7.5c0,0,0,0,0,0c0,0,0,0,0,0
		c10.2-5.9,16.6-14.1,20.4-20.3c2.6,1.4,5.4,2.9,8.3,4.9C305.6,311.7,298.8,325.6,284.2,334.1z M216,352.4
		c-16.9,0-29.7-8.6-32.6-10.7c1.6-3.1,3.2-5.9,4.7-8.3c6.2,3.4,15.9,7.4,27.8,7.4c11.8,0,21.5-3.9,27.8-7.4c1.6,2.5,3.2,5.2,4.7,8.4
		C245.7,343.7,233,352.4,216,352.4z M147.8,334.1c-14.7-8.5-21.4-22.3-22.8-25.5c2.9-1.9,5.7-3.5,8.3-4.9
		c3.6,6.1,10.1,14.4,20.4,20.3c0,0,0,0,0,0c0,0,0,0,0,0c0,0,0,0,0,0c0,0,0,0,0,0c10.2,5.8,20.5,7.3,27.7,7.5
		c0.1,2.9,0.1,6.1-0.1,9.6C177.9,341.5,162.5,342.6,147.8,334.1z M97.9,284.2c-8.5-14.7-7.4-30.1-7-33.5c3.5-0.2,6.7-0.2,9.6-0.1
		c0.1,7.1,1.5,17.4,7.5,27.8l0,0c0,0,0,0,0,0c0,0,0,0,0,0c0,0,0,0,0,0c5.9,10.2,14.1,16.6,20.3,20.4c-1.4,2.6-2.9,5.4-4.9,8.3
		C120.3,305.6,106.4,298.8,97.9,284.2z M88.8,258.2c0.1,2.3,0.3,5,0.8,7.9l-9.4-2.9L88.8,258.2z M79.6,216
		c0-16.9,8.6-29.7,10.7-32.6c3.1,1.6,5.9,3.2,8.3,4.7c-3.4,6.2-7.4,15.9-7.4,27.8c0,0,0,0,0,0c0,0,0,0,0,0s0,0,0,0c0,0,0,0,0,0
		c0,11.8,3.9,21.5,7.4,27.8c-2.5,1.6-5.2,3.2-8.4,4.7C88.3,245.7,79.6,232.9,79.6,216z M80.2,168.7l9.4-2.9
		c-0.5,2.9-0.7,5.6-0.8,7.9L80.2,168.7z M97.9,147.8c8.5-14.7,22.3-21.4,25.5-22.8c1.9,2.9,3.5,5.7,4.9,8.3
		c-6.1,3.6-14.3,10.1-20.3,20.4c0,0,0,0,0,0c0,0,0,0,0,0c-5.9,10.2-7.3,20.6-7.5,27.8c-2.9,0.1-6.1,0.1-9.6-0.1
		C90.5,177.9,89.4,162.5,97.9,147.8z M147.8,97.9c14.7-8.5,30.1-7.4,33.5-7c0.2,3.5,0.2,6.7,0.1,9.6c-7.1,0.1-17.5,1.5-27.8,7.5
		c0,0,0,0,0,0c0,0,0,0,0,0c-10.2,5.9-16.6,14.1-20.4,20.3c-2.6-1.4-5.4-2.9-8.3-4.9C126.4,120.3,133.1,106.4,147.8,97.9z M216,79.6
		c16.9,0,29.7,8.6,32.6,10.7c-1.6,3.1-3.2,5.9-4.7,8.3c-6.2-3.4-15.9-7.4-27.8-7.4c0,0,0,0,0,0c0,0,0,0,0,0c0,0,0,0,0,0c0,0,0,0,0,0
		c-11.8,0-21.5,3.9-27.8,7.4c-1.6-2.5-3.2-5.2-4.7-8.4C186.3,88.3,199,79.6,216,79.6z M284.2,97.9c14.7,8.5,21.4,22.3,22.8,25.5
		c-2.9,1.9-5.7,3.5-8.3,4.9c-3.6-6.1-10.1-14.3-20.4-20.3c0,0,0,0,0,0c0,0,0,0,0,0c0,0,0,0,0,0c0,0,0,0,0,0
		c-10.2-5.9-20.6-7.3-27.8-7.5c-0.1-2.9-0.1-6.1,0.1-9.6C254.1,90.5,269.5,89.4,284.2,97.9z M334.1,147.8c8.5,14.7,7.4,30.1,7,33.5
		c-3.5,0.2-6.7,0.2-9.6,0.1c-0.1-7.1-1.5-17.5-7.5-27.8c0,0,0,0,0,0c0,0,0,0,0,0c-5.9-10.2-14.1-16.6-20.3-20.4
		c1.4-2.6,2.9-5.4,4.9-8.3C311.7,126.4,325.6,133.2,334.1,147.8z M343.2,173.8c-0.1-2.3-0.3-5-0.8-7.9l9.4,2.9L343.2,173.8z
		 M300.3,274.4c3.2,0.3,6.4,0.4,9.6,0.4c2.1,0,4.1-0.1,6.2-0.2c0.1,0,0.2,0,0.2-0.1c0.1,0,0.1,0,0.2-0.1c0.1-0.1,0.2-0.2,0.3-0.3
		c0.1-0.1,0.1-0.3,0.1-0.4c0,0,0-0.1,0-0.1c0-0.1,0-0.2-0.1-0.3c0,0,0,0,0-0.1c-2.3-4.7-5.1-9.2-8.1-13.5c5.2,3.4,14,10.4,13.5,17.5
		C316.3,281.3,305.9,277.2,300.3,274.4z M296.7,275c3.1,3.1,8.5,10.3,5.6,20.9C297.4,285.6,296.7,278.2,296.7,275z M216,338.7
		c-6.4-3.2-8-14.3-8.4-20.5c2.2,4.8,4.8,9.5,7.7,13.8c0,0,0,0,0.1,0c0.1,0.1,0.1,0.1,0.2,0.2c0,0,0.1,0,0.1,0.1
		c0.1,0.1,0.3,0.1,0.4,0.1s0.3,0,0.4-0.1c0,0,0.1,0,0.1-0.1c0.1-0.1,0.2-0.1,0.2-0.2c0,0,0,0,0.1,0c2.9-4.3,5.4-9,7.7-13.8
		C224,324.4,222.4,335.6,216,338.7z M109.7,277.3c-0.4-7.1,8.4-14.1,13.5-17.5c-3,4.3-5.8,8.9-8.1,13.5c0,0,0,0,0,0.1
		c0,0.1-0.1,0.2-0.1,0.3c0,0,0,0.1,0,0.1c0,0.1,0,0.3,0.1,0.4c0.1,0.1,0.2,0.3,0.3,0.3c0.1,0,0.1,0,0.2,0.1c0.1,0,0.1,0.1,0.2,0.1
		c2,0.1,4.1,0.2,6.2,0.2c3.2,0,6.4-0.2,9.6-0.4C126.1,277.2,115.7,281.3,109.7,277.3z M131.7,157.6c-5.3-0.5-10.6-0.6-15.7-0.2
		c0,0,0,0-0.1,0c-0.1,0-0.2,0-0.3,0.1c0,0-0.1,0-0.1,0c-0.1,0.1-0.2,0.2-0.3,0.3c-0.1,0.1-0.1,0.3-0.1,0.4c0,0,0,0.1,0,0.1
		c0,0.1,0,0.2,0.1,0.3c0,0,0,0,0,0.1c2.3,4.7,5.1,9.2,8.1,13.5c-5.2-3.4-14-10.4-13.5-17.5C115.7,150.7,126.1,154.8,131.7,157.6z
		 M135.3,157c-3.1-3.1-8.5-10.3-5.6-20.9C134.6,146.4,135.3,153.8,135.3,157z M216,93.3c6.4,3.2,8,14.3,8.4,20.5
		c-2.2-4.8-4.8-9.5-7.7-13.8c0,0,0,0,0,0c-0.2-0.2-0.4-0.4-0.7-0.4s-0.6,0.1-0.7,0.4c0,0,0,0,0,0c-2.9,4.3-5.4,9-7.7,13.8
		c0.1-1.9,0.4-4.3,0.8-6.8C209.3,101.9,211.4,95.5,216,93.3z M322.3,154.7c0.4,7.1-8.4,14.1-13.5,17.5c3-4.3,5.8-8.9,8.1-13.5
		c0,0,0,0,0-0.1c0-0.1,0.1-0.2,0.1-0.3c0,0,0-0.1,0-0.1c0-0.1,0-0.3-0.1-0.4c-0.1-0.1-0.2-0.2-0.3-0.3c0,0-0.1,0-0.1-0.1
		c-0.1,0-0.2-0.1-0.3-0.1c0,0,0,0-0.1,0c-5.2-0.4-10.5-0.2-15.7,0.2C305.9,154.8,316.3,150.7,322.3,154.7z M314.3,170.4
		c0.3,0.9,0.6,1.7,0.8,2.6c-1.6-0.1-3.1-0.1-4.5,0.1C311.9,172.3,313.1,171.4,314.3,170.4z M317.2,173.3c-0.4-1.4-0.8-2.7-1.3-4.1
		c1.4-1.2,2.7-2.5,3.9-3.9c1.2,3.1,2.1,6.3,2.8,9.7C320.7,174.1,318.9,173.6,317.2,173.3z M259.2,263.5c-2.3-0.8-4-1.4-5.1-1.8
		c0.3-0.2,0.6-0.5,0.9-0.8c0.3,0,1.8,0,4.1,0C259.2,261.7,259.2,262.6,259.2,263.5z M237.2,278.3c0.4-1.8,0.6-3.3,0.8-4.4
		c0.1,0.3,0.2,0.5,0.3,0.6c0,0,0,0,0,0c0.1,0.2,0.2,0.3,0.3,0.5c0,0,0,0,0,0.1c0,0,0,0,0.1,0.1c1,1.4,2.2,2.5,3.7,3.2
		c0.1,0,0.1,0.1,0.2,0.1c1.3,0.6,2.8,1,4.3,1c1.7,0,3.4-0.4,4.9-1.3c2.3-1.3,3.9-3.4,4.6-6c0.2-0.6,0.2-1.1,0.3-1.7c0,0,0,0,0,0
		c0-0.1,0-0.3,0-0.4c0.1-1.5-0.2-3-0.9-4.5c0-0.1,0-0.2-0.1-0.3c0,0-0.1-0.1-0.1-0.1c-0.1-0.2-0.1-0.3-0.2-0.5
		c-0.1-0.1-0.2-0.4-0.4-0.6c1.1,0.4,2.6,0.9,4.3,1.5c0.5,9.8,2.1,24.6,6.5,36.8C257.4,292.3,245.4,283.6,237.2,278.3z M216,315.7
		c-2.7-15-10.5-31.1-14.9-39.1c1.8-1.1,3.1-1.8,3.5-2c0.6,0.1,1.2,0.2,1.8,0.3c-0.2,1.5-0.3,2.5-0.3,3c0,0.2,0,0.3,0.1,0.5
		c0,0,0,0.1,0,0.1c0,0.1,0,0.3,0.1,0.4c0.2,1.6,0.7,3,1.5,4.3c0,0,0,0,0,0.1c0,0.1,0.1,0.2,0.2,0.2c0,0,0,0,0,0
		c1.8,2.5,4.7,4.2,8.1,4.2s6.3-1.7,8.1-4.2c0,0,0,0,0,0c0.1-0.1,0.1-0.1,0.2-0.2c0,0,0,0,0-0.1c0.8-1.3,1.3-2.7,1.5-4.3
		c0-0.1,0.1-0.2,0.1-0.4c0,0,0-0.1,0-0.1c0-0.2,0.1-0.3,0.1-0.5c0-0.5-0.1-1.5-0.3-3c0.6-0.1,1.2-0.2,1.8-0.3c0.4,0.2,1.6,0.9,3.5,2
		C226.5,284.6,218.7,300.6,216,315.7z M166.2,302.3c4.4-12.3,6-27,6.5-36.8c1.7-0.6,3.1-1.1,4.3-1.5c-0.2,0.2-0.3,0.4-0.4,0.6
		c-0.1,0.2-0.1,0.3-0.2,0.5c0,0-0.1,0.1-0.1,0.1c-0.1,0.1-0.1,0.2-0.1,0.4c-0.6,1.4-0.9,3-0.9,4.5c0,0,0,0,0,0.1c0,0.1,0,0.2,0,0.3
		c0,0,0,0,0,0c0.3,3.1,2,6,4.9,7.7c1.5,0.9,3.2,1.3,4.9,1.3c1.5,0,3-0.4,4.3-1c0.1,0,0.1,0,0.2-0.1c1.4-0.7,2.7-1.8,3.7-3.2
		c0,0,0,0,0.1-0.1c0,0,0,0,0-0.1c0.1-0.2,0.2-0.3,0.3-0.5c0.1-0.2,0.2-0.4,0.3-0.6c0.2,1.2,0.5,2.7,0.8,4.4
		C186.6,283.6,174.6,292.3,166.2,302.3z M172.8,168.5c2.3,0.8,4,1.4,5.1,1.8c-0.3,0.2-0.6,0.5-0.9,0.8c-0.3,0-1.8,0-4.1,0
		C172.8,170.3,172.8,169.4,172.8,168.5z M194.8,153.7c-0.4,1.8-0.6,3.3-0.8,4.4c-0.1-0.3-0.2-0.5-0.3-0.6c0,0,0,0,0,0
		c-0.1-0.2-0.2-0.3-0.3-0.4c0,0,0-0.1,0-0.1c-0.1-0.1-0.2-0.2-0.2-0.3c-0.9-1.3-2.1-2.3-3.4-3c0,0,0,0-0.1,0
		c-0.1-0.1-0.2-0.1-0.2-0.1c0,0,0,0,0,0c-2.8-1.3-6.2-1.3-9.1,0.4c-2.9,1.7-4.6,4.6-4.9,7.7c0,0,0,0,0,0c0,0.1,0,0.2,0,0.3
		c0,0,0,0,0,0.1c-0.1,1.5,0.2,3,0.9,4.5c0,0.1,0.1,0.2,0.1,0.3c0,0,0.1,0,0.1,0.1c0.1,0.2,0.1,0.3,0.2,0.5c0.1,0.2,0.2,0.4,0.4,0.6
		c-1.1-0.4-2.6-0.9-4.3-1.5c-0.5-9.8-2.1-24.6-6.5-36.8C174.6,139.7,186.6,148.4,194.8,153.7z M216,116.3
		c2.7,15,10.5,31.1,14.9,39.1c-1.8,1.1-3.1,1.8-3.5,2c-0.6-0.1-1.2-0.2-1.8-0.3c0.2-1.5,0.3-2.5,0.3-3c0-0.2,0-0.3-0.1-0.5
		c0,0,0-0.1,0-0.1c0-0.1,0-0.3-0.1-0.4c-0.2-1.6-0.7-3-1.5-4.3c0,0,0,0,0-0.1c0-0.1-0.1-0.2-0.2-0.2c0,0,0,0,0,0
		c-1.8-2.5-4.7-4.2-8.1-4.2s-6.3,1.7-8.1,4.2c0,0,0,0,0,0c-0.1,0.1-0.1,0.1-0.2,0.2c0,0,0,0,0,0.1c-0.8,1.3-1.3,2.7-1.5,4.3
		c0,0.1-0.1,0.2-0.1,0.4c0,0,0,0.1,0,0.1c0,0.2-0.1,0.3-0.1,0.5c0,0.5,0.1,1.5,0.3,3c-0.6,0.1-1.2,0.2-1.8,0.3
		c-0.4-0.2-1.6-0.9-3.5-2C205.5,147.4,213.3,131.4,216,116.3z M265.8,129.7c-4.4,12.3-6,27-6.5,36.8c-1.7,0.6-3.1,1.1-4.3,1.5
		c0.2-0.2,0.3-0.4,0.4-0.6c0,0,0,0,0,0c0.1-0.2,0.1-0.3,0.2-0.5c0,0,0.1,0,0.1-0.1c0.1-0.1,0.1-0.2,0.1-0.3c0.6-1.4,0.9-2.9,0.9-4.5
		c0-0.1,0-0.3,0-0.4v0c-0.1-0.6-0.1-1.1-0.3-1.7c-0.7-2.5-2.3-4.7-4.6-6c-2.9-1.7-6.3-1.7-9.1-0.4c0,0,0,0,0,0
		c-0.1,0-0.2,0.1-0.2,0.1c0,0,0,0-0.1,0c-1.3,0.7-2.5,1.7-3.4,3c-0.1,0.1-0.2,0.2-0.2,0.3c0,0,0,0.1,0,0.1c-0.1,0.1-0.2,0.3-0.3,0.4
		c-0.1,0.1-0.2,0.4-0.3,0.6c-0.2-1.2-0.5-2.7-0.8-4.4C245.4,148.4,257.4,139.7,265.8,129.7z M259.1,171c-2.3,0.1-3.8,0-4.1,0
		c-0.3-0.3-0.6-0.5-0.9-0.8c1.1-0.4,2.8-1,5.1-1.8C259.2,169.4,259.2,170.3,259.1,171z M259.1,259.1c-0.8,0-1.4,0-2,0
		c0.7-0.6,1.3-1.3,2-2C259.1,257.7,259.1,258.3,259.1,259.1z M172.9,172.9c0.8,0,1.4,0,2,0c-0.7,0.6-1.3,1.3-2,2
		C172.9,174.3,172.9,173.7,172.9,172.9z M265.3,178.3l8,13.8c-0.3,0.2-1,0.5-2.1,1c-2-4.8-4.6-9.3-7.8-13.5
		C264.2,179,264.9,178.6,265.3,178.3z M269.6,177.1l6.9,11.9c-0.4,0.8-1,1.5-1.6,2.1l-7.8-13.6C267.8,177.2,268.7,177.1,269.6,177.1
		z M277.3,186.8l-5.4-9.3c1.8,0.6,3.5,1.8,4.5,3.6C277.5,182.8,277.7,184.8,277.3,186.8z M273.7,216c0,31.8-25.9,57.7-57.7,57.7
		c-31.8,0-57.7-25.9-57.7-57.7s25.9-57.7,57.7-57.7C247.8,158.3,273.7,184.2,273.7,216z M283.7,210.6c1.3,1.4,2.1,3.3,2.1,5.4
		s-0.8,3.9-2.1,5.4V210.6z M281.8,222.9c-0.8,0.4-1.6,0.8-2.5,1v-15.7c0.9,0.2,1.7,0.5,2.5,1V222.9z M277.5,224
		c-0.4,0-1.1-0.1-2.4-0.2c0.3-2.6,0.5-5.2,0.5-7.8s-0.2-5.2-0.5-7.8c1.3-0.1,2-0.2,2.4-0.2V224z M276.4,250.9c-1,1.7-2.6,3-4.5,3.6
		l5.4-9.3C277.7,247.2,277.5,249.2,276.4,250.9z M269.6,254.9c-0.9,0-1.8-0.1-2.6-0.4l7.8-13.6c0.7,0.6,1.2,1.3,1.6,2.1L269.6,254.9
		z M265.3,253.7c-0.4-0.3-1-0.7-1.9-1.4c3.2-4.1,5.8-8.7,7.8-13.5c1,0.4,1.7,0.8,2.1,1L265.3,253.7z M240.9,274.8l13.6-7.8
		c0.3,0.8,0.4,1.7,0.4,2.6l-11.9,6.9C242.2,276,241.5,275.5,240.9,274.8z M254.5,272c-0.6,1.9-1.9,3.5-3.6,4.5
		c-1.7,1-3.7,1.3-5.7,0.9L254.5,272z M239.8,273.3c-0.2-0.4-0.5-1.1-1-2.1c4.8-2,9.3-4.6,13.5-7.8c0.7,0.9,1.1,1.5,1.4,1.9
		L239.8,273.3z M221.4,283.7c-1.4,1.3-3.3,2.1-5.4,2.1s-3.9-0.8-5.4-2.1H221.4z M222.9,281.8h-13.7c-0.4-0.8-0.8-1.6-1-2.5h15.7
		C223.7,280.3,223.3,281.1,222.9,281.8z M208,277.5c0-0.4,0.1-1.1,0.2-2.4c5.2,0.7,10.4,0.7,15.6,0c0.1,1.3,0.2,2,0.2,2.4H208z
		 M189,276.5l-11.9-6.9c0-0.9,0.1-1.8,0.4-2.6l13.6,7.8C190.5,275.5,189.8,276,189,276.5z M186.8,277.3c-1.9,0.4-4,0.1-5.7-0.9
		c-1.8-1-3-2.7-3.6-4.5L186.8,277.3z M192.2,273.3l-13.8-8c0.3-0.4,0.7-1,1.4-1.9c4.1,3.2,8.7,5.8,13.5,7.8
		C192.6,272.3,192.3,272.9,192.2,273.3z M166.7,253.7l-8-13.8c0.3-0.2,1-0.5,2.1-1c2,4.8,4.6,9.3,7.8,13.5
		C167.6,253.1,167,253.5,166.7,253.7z M162.4,254.9l-6.9-11.9c0.4-0.8,1-1.5,1.6-2.1l7.8,13.6C164.2,254.8,163.3,254.9,162.4,254.9z
		 M154.7,245.2l5.4,9.3c-1.9-0.6-3.5-1.9-4.5-3.6C154.5,249.1,154.3,247.1,154.7,245.2z M148.3,221.4c-1.3-1.4-2.1-3.3-2.1-5.4
		s0.8-3.9,2.1-5.4V221.4z M150.2,209.1c0.8-0.4,1.6-0.8,2.5-1v15.7c-0.9-0.2-1.7-0.5-2.5-1V209.1z M154.5,208c0.4,0,1.1,0.1,2.4,0.2
		c-0.3,2.6-0.5,5.2-0.5,7.8s0.2,5.2,0.5,7.8c-1.3,0.1-2,0.2-2.4,0.2V208z M155.6,181.1c1-1.7,2.6-3,4.5-3.6l-5.4,9.3
		C154.3,184.8,154.5,182.8,155.6,181.1z M162.4,177.1C162.4,177.1,162.5,177.1,162.4,177.1c0.9,0,1.8,0.2,2.6,0.4l-7.8,13.6
		c-0.7-0.6-1.2-1.3-1.6-2.1L162.4,177.1z M166.7,178.3c0.3,0.2,0.9,0.6,1.9,1.4c-3.2,4.1-5.8,8.7-7.8,13.5c-1.2-0.5-1.8-0.8-2.1-1
		L166.7,178.3z M191.1,157.2l-13.6,7.8c-0.3-0.9-0.4-1.7-0.4-2.6l11.9-6.9C189.8,156,190.5,156.5,191.1,157.2z M177.5,160
		c0.6-1.8,1.8-3.5,3.6-4.5c1.2-0.7,2.6-1.1,4-1.1c0.6,0,1.1,0.1,1.7,0.2L177.5,160z M192.2,158.7c0.2,0.4,0.5,1,1,2.1
		c-4.8,2-9.3,4.6-13.5,7.8c-0.7-0.9-1.1-1.5-1.4-1.9L192.2,158.7z M210.6,148.3c1.4-1.3,3.3-2.1,5.4-2.1s3.9,0.8,5.4,2.1H210.6z
		 M209.1,150.2h13.7c0.4,0.8,0.8,1.6,1,2.5h-15.7C208.3,151.7,208.7,150.9,209.1,150.2z M224,154.5c0,0.4-0.1,1.1-0.2,2.4
		c-2.6-0.3-5.2-0.5-7.8-0.5s-5.2,0.2-7.8,0.5c-0.1-1.3-0.2-2-0.2-2.4H224z M243,155.5l11.9,6.9c0,0.9-0.1,1.8-0.4,2.6l-13.6-7.8
		C241.5,156.5,242.2,156,243,155.5z M245.2,154.7c1.9-0.4,4-0.1,5.7,0.9c1.7,1,3,2.6,3.6,4.5L245.2,154.7z M239.8,158.7l13.8,8
		c-0.2,0.3-0.6,0.9-1.4,1.9c-4.1-3.2-8.7-5.8-13.5-7.8C239.3,159.9,239.6,159.1,239.8,158.7z M158.1,201.9c-0.3-0.5-0.6-1-1-1.7
		c0.6-0.4,1.2-0.7,1.7-1C158.6,200.1,158.3,201,158.1,201.9z M158.8,232.7c-0.5-0.3-1.1-0.6-1.7-1c0.4-0.6,0.7-1.2,1-1.7
		C158.3,231,158.6,231.9,158.8,232.7z M172.9,257.1c0.6,0.7,1.3,1.3,2,2c-0.6,0-1.2,0-2,0C172.9,258.3,172.9,257.7,172.9,257.1z
		 M273.9,230.1c0.3,0.5,0.6,1,1,1.7c-0.6,0.4-1.2,0.7-1.7,1C273.4,231.9,273.7,231,273.9,230.1z M273.2,199.3c0.5,0.3,1.1,0.6,1.7,1
		c-0.4,0.6-0.7,1.2-1,1.7C273.7,201,273.4,200.1,273.2,199.3z M259.1,174.9c-0.6-0.7-1.3-1.3-2-2c0.6,0,1.2,0,2,0
		C259.1,173.7,259.1,174.3,259.1,174.9z M236.5,160.1c-0.4-0.1-0.7-0.3-1.1-0.4c-0.2-0.4-0.9-1.6-2-3.5c0.7-0.4,1.4-0.9,2.1-1.3
		C236,157.1,236.3,158.9,236.5,160.1z M232.7,158.8c-0.9-0.3-1.7-0.5-2.6-0.7c0.5-0.3,1-0.6,1.7-1
		C232.1,157.8,232.4,158.3,232.7,158.8z M201.9,158.1c-0.9,0.2-1.8,0.5-2.6,0.7c0.3-0.5,0.6-1.1,1-1.7
		C200.9,157.5,201.4,157.8,201.9,158.1z M196.6,159.7c-0.4,0.1-0.7,0.2-1.1,0.4c0.2-1.1,0.5-2.9,1-5.2c0.8,0.5,1.5,0.9,2.1,1.3
		C197.6,158.1,196.9,159.3,196.6,159.7z M171.1,177c-0.4,0.4-0.8,0.9-1.2,1.4c-1.2-0.9-2.1-1.5-2.5-1.7c0,0,0,0,0,0
		c-0.2-0.1-0.3-0.1-0.5-0.2c0,0-0.1-0.1-0.1-0.1c-0.1-0.1-0.2-0.1-0.3-0.1c-1.4-0.6-2.9-0.9-4.5-0.9c-0.1,0-0.3,0-0.4,0c0,0,0,0,0,0
		c-0.6,0.1-1.1,0.1-1.7,0.3c-2.5,0.7-4.7,2.3-6,4.6c-1.3,2.3-1.7,4.9-1,7.5c0.2,0.6,0.4,1.2,0.7,1.7c0,0.1,0.1,0.2,0.1,0.2
		c0.7,1.4,1.7,2.5,3,3.4c0.1,0.1,0.2,0.2,0.3,0.2c0,0,0.1,0,0.1,0c0.2,0.1,0.3,0.2,0.5,0.3c0.4,0.3,1.4,0.7,2.7,1.3
		c-0.2,0.6-0.4,1.1-0.6,1.7c-0.4,0.2-1.6,0.9-3.5,2c-4.8-7.8-14.8-22.6-26.4-32.4c14.3,5.2,32.2,6.4,41.3,6.7
		C171.1,175.2,171.1,176.6,171.1,177z M157.5,204.6c-0.1,0.4-0.1,0.8-0.2,1.2c-0.9-0.7-2.3-1.9-4.1-3.5c0.8-0.4,1.5-0.8,2.2-1.2
		C156.6,203,157.3,204.2,157.5,204.6z M154.9,206.2c-0.3,0-0.5,0-0.7,0c-0.2,0-0.3,0-0.5,0.1c0,0-0.1,0-0.1,0c-0.1,0-0.3,0-0.4,0.1
		c-1.6,0.2-3,0.7-4.3,1.5c0,0,0,0-0.1,0c-0.1,0-0.2,0.1-0.2,0.2c0,0,0,0,0,0c-2.5,1.8-4.2,4.7-4.2,8.1s1.7,6.3,4.2,8.1c0,0,0,0,0,0
		c0.1,0.1,0.2,0.1,0.2,0.2c0,0,0,0,0.1,0c1.3,0.8,2.7,1.3,4.3,1.5c0.1,0,0.2,0.1,0.4,0.1c0,0,0.1,0,0.1,0c0.2,0,0.3,0.1,0.5,0.1
		c0.2,0,0.4,0,0.7,0c-0.9,0.8-2.1,1.8-3.4,3c-8.7-4.4-22.3-10.5-35.1-12.8c12.8-2.3,26.4-8.3,35.1-12.8
		C152.8,204.4,154,205.4,154.9,206.2z M157.3,226.2c0.1,0.4,0.1,0.8,0.2,1.2c-0.2,0.4-0.9,1.6-2,3.5c-0.7-0.4-1.4-0.8-2.2-1.2
		C155,228.1,156.4,227,157.3,226.2z M159.7,235.4c0.2,0.6,0.4,1.1,0.6,1.7c-1.4,0.6-2.3,1-2.7,1.3c0,0,0,0,0,0
		c-0.2,0.1-0.3,0.2-0.4,0.3c0,0-0.1,0-0.1,0c-0.1,0.1-0.2,0.1-0.3,0.2c-1.3,0.9-2.3,2.1-3,3.4c-0.1,0.1-0.1,0.2-0.1,0.2
		c-0.3,0.6-0.5,1.1-0.7,1.7c-0.7,2.5-0.3,5.2,1,7.5c1.3,2.3,3.4,3.9,6,4.6c0.6,0.2,1.2,0.2,1.9,0.3c0,0,0.1,0,0.1,0c0,0,0,0,0.1,0
		c0.2,0,0.4,0,0.6,0c1.5,0,2.9-0.4,4.3-1c0,0,0,0,0.1,0c0,0,0,0,0,0c0.2-0.1,0.4-0.2,0.5-0.3c0.4-0.3,1.3-0.8,2.5-1.7
		c0.4,0.5,0.8,0.9,1.2,1.4c0,0.3,0,1.8,0,4.1c-9.2,0.3-27,1.5-41.3,6.7c11.7-9.8,21.6-24.6,26.5-32.5
		C158.1,234.4,159.3,235.1,159.7,235.4z M172.9,261c2.3-0.1,3.8,0,4.1,0c0.3,0.3,0.6,0.5,0.9,0.8c-1.1,0.4-2.8,1-5.1,1.8
		C172.8,262.6,172.8,261.7,172.9,261z M195.5,271.9c0.4,0.1,0.7,0.3,1.1,0.4c0.2,0.4,0.9,1.6,2,3.5c-0.7,0.4-1.4,0.9-2.1,1.3
		C196,274.9,195.7,273.1,195.5,271.9z M199.3,273.2c0.9,0.3,1.7,0.5,2.6,0.7c-0.5,0.3-1,0.6-1.7,1
		C199.9,274.2,199.6,273.7,199.3,273.2z M230.1,273.9c0.9-0.2,1.8-0.5,2.6-0.7c-0.3,0.5-0.6,1.1-1,1.7
		C231.1,274.5,230.6,274.2,230.1,273.9z M235.4,272.3c0.4-0.1,0.7-0.2,1.1-0.4c-0.2,1.1-0.5,2.9-1,5.2c-0.8-0.5-1.5-0.9-2.1-1.3
		C234.4,273.9,235.1,272.7,235.4,272.3z M260.9,255c0.4-0.4,0.8-0.9,1.2-1.4c1.2,0.9,2.1,1.5,2.5,1.7c0.2,0.1,0.4,0.2,0.5,0.3
		c0,0,0,0,0,0c0,0,0.1,0,0.1,0c1.4,0.7,2.8,1,4.3,1c0.2,0,0.4,0,0.5,0c0,0,0,0,0.1,0c0,0,0.1,0,0.1,0c3.1-0.2,6.1-1.9,7.8-4.9
		c1.7-2.9,1.7-6.3,0.4-9.1c0,0,0,0,0,0c0-0.1-0.1-0.2-0.1-0.3c0,0,0,0,0-0.1c-0.7-1.3-1.7-2.5-3-3.4c-0.1-0.1-0.2-0.2-0.3-0.2
		c0,0-0.1,0-0.1,0c-0.1-0.1-0.3-0.2-0.4-0.3c-0.4-0.3-1.3-0.7-2.7-1.3c0.2-0.6,0.4-1.1,0.6-1.7c0.4-0.2,1.6-0.9,3.5-2
		c4.8,7.8,14.8,22.6,26.5,32.5c-14.4-5.2-32.2-6.4-41.3-6.7C260.9,256.8,260.9,255.4,260.9,255z M274.5,227.4
		c0.1-0.4,0.1-0.8,0.2-1.2c0.9,0.7,2.3,1.9,4.1,3.5c-0.8,0.4-1.5,0.8-2.2,1.2C275.4,229,274.7,227.8,274.5,227.4z M277.1,225.8
		c0.3,0,0.5,0,0.7,0c0.2,0,0.3,0,0.5-0.1c0,0,0.1,0,0.1,0c0.1,0,0.3,0,0.4-0.1c1.6-0.2,3-0.7,4.3-1.5c0,0,0,0,0.1,0
		c0.1,0,0.2-0.1,0.2-0.2c0,0,0,0,0,0c2.5-1.8,4.2-4.7,4.2-8.1s-1.7-6.3-4.2-8.1c0,0,0,0,0,0c-0.1-0.1-0.2-0.1-0.2-0.2c0,0,0,0-0.1,0
		c-1.3-0.8-2.7-1.3-4.3-1.5c-0.1,0-0.2-0.1-0.4-0.1c0,0-0.1,0-0.1,0c-0.2,0-0.3-0.1-0.5-0.1c-0.2,0-0.4,0-0.7,0
		c0.9-0.8,2.1-1.8,3.4-3c8.7,4.4,22.3,10.5,35.1,12.8c-12.8,2.3-26.4,8.3-35.1,12.8C279.2,227.6,278,226.6,277.1,225.8z
		 M274.7,205.8c-0.1-0.4-0.1-0.8-0.2-1.2c0.2-0.4,0.9-1.6,2-3.5c0.7,0.4,1.4,0.8,2.2,1.2C277,203.9,275.6,205,274.7,205.8z
		 M272.3,196.6c-0.2-0.6-0.4-1.1-0.6-1.7c1.4-0.6,2.3-1,2.7-1.3c0.2-0.1,0.3-0.2,0.4-0.3c0,0,0.1,0,0.1,0c0.1-0.1,0.2-0.1,0.3-0.2
		c1.3-0.9,2.3-2.1,3-3.4c0.1-0.1,0.2-0.2,0.2-0.3c0,0,0,0,0,0c0.2-0.5,0.5-1.1,0.6-1.6c0.7-2.5,0.3-5.2-1-7.5
		c-1.7-2.9-4.6-4.6-7.7-4.9c0,0,0,0,0,0c-0.1,0-0.2,0-0.3,0c0,0-0.1,0-0.1,0c-1.5-0.1-3,0.2-4.5,0.9c-0.1,0-0.2,0.1-0.3,0.1
		c0,0-0.1,0.1-0.1,0.1c-0.2,0.1-0.3,0.1-0.5,0.2c-0.4,0.3-1.3,0.8-2.5,1.7c-0.4-0.5-0.8-0.9-1.2-1.4c0-0.3,0-1.8,0-4.1
		c9.2-0.3,27-1.5,41.3-6.7c-11.7,9.8-21.6,24.6-26.4,32.4C273.9,197.6,272.7,196.9,272.3,196.6z M261,171c0-1,0.1-2,0.1-3.1
		c1.7-0.6,3.7-1.2,5.9-1.8c1.2,0.2,6.6,0.9,13.9,0.9c5.5,0,11.9-0.4,18.5-1.7C285.9,169.6,269.6,170.7,261,171z M265.9,164.4
		c-1.7,0.5-3.2,1-4.6,1.4c0.5-9,1.9-22.1,5.5-33.2C263.9,147,265.4,161,265.9,164.4z M236.8,151.7c-0.3-1.5-0.7-3-1.1-4.7
		c3.2-1.3,16.1-7,27.1-16.7C254.9,139,244.3,146.8,236.8,151.7z M235.1,152.8c-0.9,0.6-1.8,1.2-2.6,1.7
		c-4.1-7.6-11.2-22.2-14.2-36.1c5,14.7,14.1,26.7,15.4,28.4C234.3,149,234.7,151,235.1,152.8z M199.5,154.5
		c-0.8-0.5-1.7-1.1-2.6-1.7c0.4-1.8,0.8-3.8,1.4-6c1.4-1.7,10.5-13.7,15.5-28.4C210.7,132.3,203.6,146.9,199.5,154.5z M195.2,151.7
		c-7.6-5-18.1-12.7-26-21.4c11,9.6,23.9,15.4,27.1,16.7C195.9,148.7,195.5,150.3,195.2,151.7z M170.7,165.9c-1.4-0.5-3-0.9-4.6-1.4
		c0.4-3.5,2-17.5-0.9-31.8C168.8,143.8,170.2,156.8,170.7,165.9z M170.9,167.9c0.1,1.1,0.1,2.2,0.1,3.1c-8.6-0.3-24.8-1.4-38.4-5.8
		c6.6,1.3,13,1.7,18.5,1.7c7.2,0,12.6-0.7,13.9-0.9C167.1,166.7,169.1,167.3,170.9,167.9z M154.5,199.5c-0.8,0.4-1.8,0.9-2.8,1.4
		c-1.4-1.2-2.9-2.6-4.5-4.2c-0.8-2.1-6.6-15.9-16.9-27.6C140.9,178.7,150,192.2,154.5,199.5z M146.4,198.6c1.3,1.2,2.5,2.3,3.6,3.3
		c-8.1,4.1-20.1,9.4-31.6,11.8C132.2,209,143.6,200.7,146.4,198.6z M150,230.1c-1.1,1-2.3,2.1-3.6,3.3c-2.8-2.1-14.2-10.4-28-15.1
		C129.9,220.8,141.9,226.1,150,230.1z M151.7,231c1,0.5,1.9,1,2.8,1.4c-4.5,7.3-13.6,20.8-24.2,30.3c10.3-11.7,16.1-25.5,16.9-27.6
		C148.9,233.7,150.4,232.3,151.7,231z M171,261c0,1-0.1,2-0.1,3.1c-1.7,0.6-3.7,1.2-5.9,1.8c-2.2-0.3-17.1-2.2-32.3,0.8
		C146.2,262.4,162.4,261.3,171,261z M166.1,267.6c1.7-0.5,3.2-1,4.6-1.4c-0.5,9-1.9,22.1-5.6,33.3C168.1,285,166.6,271,166.1,267.6z
		 M195.2,280.3c0.3,1.5,0.7,3,1.1,4.7c-3.2,1.3-16.1,7-27.1,16.7C177.1,293,187.7,285.2,195.2,280.3z M196.9,279.2
		c0.9-0.6,1.8-1.2,2.6-1.7c4.1,7.6,11.2,22.2,14.2,36.1c-5-14.7-14.1-26.7-15.4-28.4C197.7,283,197.3,281,196.9,279.2z M232.5,277.5
		c0.8,0.5,1.7,1.1,2.6,1.7c-0.4,1.8-0.8,3.8-1.4,6c-1.4,1.7-10.5,13.7-15.5,28.4C221.3,299.7,228.4,285.1,232.5,277.5z M236.8,280.3
		c7.6,5,18.1,12.7,26,21.4c-11-9.7-23.9-15.4-27.1-16.7C236.1,283.3,236.5,281.7,236.8,280.3z M261.3,266.1c1.4,0.5,3,0.9,4.6,1.4
		c-0.4,3.4-2,17.5,0.9,31.8C263.2,288.2,261.8,275.2,261.3,266.1z M261.1,264.1c-0.1-1.1-0.1-2.2-0.1-3.1c8.6,0.3,24.8,1.4,38.4,5.8
		c-15.2-3.1-30.2-1.1-32.3-0.8C264.9,265.3,262.9,264.7,261.1,264.1z M277.5,232.5c0.8-0.4,1.8-0.9,2.8-1.4c1.4,1.2,2.9,2.6,4.5,4.2
		c0.8,2.1,6.6,15.9,16.9,27.6C291.1,253.3,282,239.8,277.5,232.5z M285.6,233.4c-1.3-1.2-2.5-2.3-3.6-3.3
		c8.1-4.1,20.1-9.4,31.6-11.8C299.8,223,288.4,231.3,285.6,233.4z M282,201.9c1.1-1,2.3-2.1,3.6-3.3c2.8,2.1,14.2,10.4,28,15.1
		C302.1,211.2,290.1,205.9,282,201.9z M280.3,201c-1-0.5-1.9-1-2.8-1.4c4.5-7.3,13.6-20.8,24.2-30.3c-10.3,11.7-16.1,25.5-16.9,27.6
		C283.1,198.3,281.6,199.7,280.3,201z M302.8,151.6c0.6,0.6,1.3,1.3,1.9,2c-1.5,0.6-2.9,1.2-4.2,1.8
		C301.3,154.3,302.1,153,302.8,151.6z M306.5,152.9c-0.9-1.1-2.1-2.3-2.9-3.2c0.6-1.6,1.1-3.4,1.3-5.4c2.6,2.2,4.9,4.7,7,7.2
		C310,151.9,308.2,152.4,306.5,152.9z M302.3,136.1c2.9,10.6-2.5,17.8-5.6,20.9C296.7,153.8,297.4,146.4,302.3,136.1z M312.5,159
		c-14.1,6.7-32.1,6.3-40.6,5.6C283.3,161.6,298.3,158.6,312.5,159z M267.3,160.2c-0.7-8.5-1.1-26.6,5.6-40.7
		C273.4,133.7,270.4,148.7,267.3,160.2z M278.4,127.4c0.7,0.6,1.4,1.2,2,1.8c-1.4,0.7-2.7,1.5-3.8,2.3
		C277.2,130.3,277.8,128.9,278.4,127.4z M295.9,129.7c-10.3,4.8-17.7,5.6-20.9,5.6C278.1,132.2,285.3,126.8,295.9,129.7z
		 M282.3,128.4c-1-1-2-1.9-3.2-2.9c0.6-1.7,1.1-3.5,1.4-5.4c2.6,2.1,5,4.4,7.3,7C285.7,127.3,283.9,127.8,282.3,128.4z M277.3,109.7
		c4,5.9-0.1,16.3-2.9,21.9c0.4-5.2,0.6-10.5,0.2-15.7c0,0,0,0,0-0.1c0-0.1,0-0.2-0.1-0.3c0,0,0-0.1-0.1-0.1
		c-0.1-0.1-0.2-0.2-0.3-0.3c-0.1-0.1-0.3-0.1-0.4-0.1c0,0-0.1,0-0.1,0c-0.1,0-0.2,0-0.3,0.1c0,0,0,0-0.1,0c-4.7,2.3-9.2,5-13.5,8.1
		c2.1-3.1,5.4-7.5,9.3-10.4c0,0,0,0,0,0C271.7,110.8,274.5,109.5,277.3,109.7z M259,116.8c0.8,0.2,1.8,0.5,2.6,0.8
		c-1,1.3-1.9,2.5-2.7,3.6C259,119.9,259.1,118.4,259,116.8z M262.9,116.1c-1.3-0.5-2.9-1-4.1-1.3c-0.3-1.7-0.8-3.5-1.6-5.3
		c3.3,0.6,6.6,1.6,9.6,2.8C265.4,113.5,264.1,114.8,262.9,116.1z M256.4,124.6c-1.6-2.8-4.7-9.5-5.6-20.9
		C258.6,111.4,257.5,120.3,256.4,124.6z M271.1,118.4c-8.9,12.8-24.7,21.5-32.4,25.2C247.1,135.2,258.5,125.2,271.1,118.4z
		 M217.1,103.9c7.5,12.1,12.4,26.6,15.4,38C227.7,134.9,218.3,119.4,217.1,103.9z M226.2,112.5c-0.1-1.4-0.3-2.9-0.5-4.5
		c0.9,0.2,1.8,0.4,2.7,0.6C227.5,109.9,226.8,111.3,226.2,112.5z M242.1,101.3c-6.5,9.4-12.5,13.6-15.3,15.3
		C227.9,112.4,231.4,104.1,242.1,101.3z M229.6,107c-1.4-0.4-2.7-0.6-4.2-0.9c-0.4-1.8-0.8-3.6-1.5-5.3c3.3,0.5,6.6,1.3,9.8,2.4
		C232,104.4,230.7,105.7,229.6,107z M205.8,112.5c-0.5-1.2-1.3-2.6-2.2-3.9c0.8-0.2,1.8-0.4,2.7-0.6
		C206.1,109.6,205.9,111.2,205.8,112.5z M206.7,106.1c-1.4,0.2-3.1,0.6-4.3,1c-1.1-1.3-2.4-2.6-4.1-3.8c3.2-1.1,6.5-1.9,9.7-2.4
		C207.5,102.4,207.1,104.1,206.7,106.1z M205.3,116.7c-2.7-1.5-8.7-5.8-15.4-15.4C200.7,104.1,204.2,112.5,205.3,116.7z
		 M214.9,103.9c-1.3,15.5-10.6,31-15.4,38C202.5,130.5,207.5,116,214.9,103.9z M160.9,118.4c12.6,6.8,24,16.8,32.4,25.2
		C185.6,140,169.8,131.2,160.9,118.4z M173.1,121.3c-0.8-1.1-1.7-2.3-2.7-3.6c0.9-0.3,1.7-0.6,2.6-0.8
		C172.9,118.4,173,119.9,173.1,121.3z M175.6,124.6c-1.2-4.2-2.2-13.1,5.6-20.9C180.3,115,177.2,121.8,175.6,124.6z M173.3,114.8
		c-1.4,0.4-2.7,0.8-4.1,1.3c-1.2-1.4-2.5-2.7-3.9-3.9c3.1-1.2,6.3-2.1,9.7-2.8C174.1,111.3,173.6,113.1,173.3,114.8z M172.1,123.2
		c-4.3-3-8.8-5.8-13.5-8c0,0,0,0-0.1,0c-0.1,0-0.2-0.1-0.3-0.1c0,0-0.1,0-0.1,0c-0.1,0-0.3,0-0.4,0.1c-0.1,0.1-0.2,0.2-0.3,0.3
		c0,0,0,0.1-0.1,0.1c0,0.1-0.1,0.2-0.1,0.3c0,0,0,0,0,0.1c-0.4,5.2-0.2,10.5,0.2,15.7c-2.8-5.6-6.9-16-2.9-21.9
		C161.7,109.3,168.7,118,172.1,123.2z M155.4,131.5c-1.1-0.8-2.4-1.6-3.8-2.3c0.6-0.6,1.3-1.3,2-1.9
		C154.2,128.9,154.8,130.3,155.4,131.5z M152.9,125.5c-1.1,0.9-2.3,2-3.2,2.9c-1.6-0.6-3.4-1.1-5.4-1.3c2.2-2.6,4.7-4.9,7.2-7
		C151.9,122,152.4,123.8,152.9,125.5z M157,135.3c-3.2,0-10.6-0.7-20.9-5.6C146.7,126.8,153.9,132.2,157,135.3z M159,119.5
		c6.7,14.1,6.3,32.2,5.6,40.7C161.6,148.7,158.6,133.7,159,119.5z M119.5,159c14.2-0.4,29.2,2.6,40.6,5.6
		C151.6,165.3,133.5,165.7,119.5,159z M131.5,155.4c-1.2-0.6-2.6-1.2-4.1-1.8c0.6-0.7,1.2-1.4,1.8-2
		C129.9,153,130.7,154.3,131.5,155.4z M128.4,149.7c-1,1-1.9,2-2.9,3.2c-1.7-0.6-3.5-1.1-5.4-1.4c2.1-2.6,4.4-5,7-7.3
		C127.3,146.3,127.8,148.1,128.4,149.7z M117.6,170.4c1.3,1,2.5,1.9,3.6,2.7c-1.3-0.2-2.8-0.2-4.4-0.1
		C117.1,172.2,117.3,171.3,117.6,170.4z M116.1,169.1c-0.5,1.3-1,2.9-1.3,4.1c-1.7,0.3-3.5,0.8-5.3,1.6c0.6-3.3,1.6-6.6,2.8-9.6
		C113.5,166.6,114.8,168,116.1,169.1z M124.6,175.6c-2.8,1.6-9.5,4.7-20.9,5.6C111.4,173.4,120.3,174.5,124.6,175.6z M118.4,160.9
		c12.8,8.8,21.5,24.7,25.2,32.4C135.2,184.9,125.2,173.4,118.4,160.9z M103.9,214.9c12.1-7.5,26.6-12.4,38-15.5
		C135,204.3,119.5,213.7,103.9,214.9z M108.6,203.6c1.3,0.9,2.7,1.6,3.9,2.2c-1.4,0.1-2.9,0.3-4.5,0.5
		C108.2,205.4,108.4,204.5,108.6,203.6z M101.3,189.9c9.4,6.5,13.6,12.5,15.3,15.3C112.4,204.1,104.1,200.6,101.3,189.9z M107,202.4
		c-0.4,1.4-0.6,2.7-0.9,4.2c-1.8,0.4-3.6,0.8-5.3,1.5c0.5-3.3,1.3-6.6,2.4-9.8C104.4,200,105.7,201.3,107,202.4z M113.7,207.6
		c-4.8,2.2-9.4,4.8-13.7,7.7c0,0,0,0,0,0.1c-0.1,0.1-0.1,0.1-0.2,0.2c0,0,0,0.1-0.1,0.1c-0.1,0.1-0.1,0.3-0.1,0.4s0,0.3,0.1,0.4
		c0,0,0,0.1,0.1,0.1c0.1,0.1,0.1,0.2,0.2,0.2c0,0,0,0,0,0.1c4.3,2.9,9,5.4,13.7,7.7c-6.2-0.4-17.3-2-20.4-8.4
		C96.4,209.6,107.5,208,113.7,207.6z M108.6,228.4c-0.2-0.8-0.4-1.8-0.6-2.7c1.6,0.3,3.1,0.4,4.5,0.5
		C111.3,226.8,110,227.5,108.6,228.4z M106.1,225.3c0.2,1.4,0.6,3,1,4.2c-1.3,1.1-2.6,2.4-3.8,4.1c-1.1-3.2-1.9-6.5-2.4-9.7
		C102.5,224.5,104.3,225,106.1,225.3z M116.6,226.8c-1.6,2.8-5.9,8.8-15.3,15.3C104.1,231.4,112.4,227.9,116.6,226.8z M103.9,217.1
		c15.5,1.3,31,10.7,38,15.5C130.5,229.5,116.1,224.6,103.9,217.1z M118.4,271.1c6.8-12.5,16.8-24,25.2-32.4
		C139.9,246.4,131.2,262.3,118.4,271.1z M117.7,261.6c-0.3-0.9-0.6-1.7-0.8-2.6c0.6,0,1.2,0.1,1.7,0.1c1,0,1.9-0.1,2.7-0.2
		C120.1,259.7,118.9,260.6,117.7,261.6z M103.7,250.8c11.4,1,18.1,4,20.9,5.6C120.3,257.5,111.4,258.6,103.7,250.8z M114.8,258.7
		c0.4,1.4,0.8,2.7,1.3,4.1c-1.4,1.2-2.7,2.5-3.9,3.9c-1.2-3.1-2.1-6.3-2.8-9.6C111.3,257.9,113.1,258.4,114.8,258.7z M129.2,280.4
		c-0.6-0.6-1.3-1.3-1.9-2c1.5-0.6,2.9-1.2,4.2-1.8C130.7,277.7,129.9,279,129.2,280.4z M125.5,279c0.9,1.1,2.1,2.3,2.9,3.2
		c-0.6,1.6-1.1,3.4-1.3,5.4c-2.6-2.2-4.9-4.6-7-7.2C122,280.1,123.8,279.6,125.5,279z M129.7,295.9c-2.9-10.6,2.5-17.8,5.6-20.9
		C135.3,278.2,134.6,285.6,129.7,295.9z M119.5,273c14.1-6.7,32.1-6.3,40.6-5.6C148.7,270.4,133.7,273.4,119.5,273z M164.7,271.8
		c0.7,8.5,1.1,26.6-5.6,40.7C158.6,298.3,161.6,283.3,164.7,271.8z M153.6,304.6c-0.7-0.6-1.4-1.2-2-1.8c1.4-0.7,2.7-1.5,3.8-2.3
		C154.8,301.7,154.2,303.1,153.6,304.6z M136.1,302.3c10.3-4.8,17.7-5.6,20.9-5.6C153.9,299.8,146.7,305.2,136.1,302.3z
		 M149.7,303.6c1,1,2,1.9,3.2,2.9c-0.6,1.7-1.1,3.5-1.4,5.4c-2.6-2.1-5-4.4-7.3-7C146.3,304.7,148.1,304.2,149.7,303.6z
		 M154.7,322.3c-4-5.9,0.1-16.3,2.9-21.9c-0.4,5.2-0.6,10.5-0.2,15.7c0,0,0,0,0,0.1c0,0.1,0,0.2,0.1,0.3c0,0,0,0.1,0.1,0.1
		c0.1,0.1,0.2,0.2,0.3,0.3c0.1,0.1,0.3,0.1,0.5,0.1c0.1,0,0.3,0,0.4-0.1c4.7-2.3,9.2-5.1,13.5-8.1c-1,1.5-2.4,3.4-3.9,5.3
		c0,0,0,0-0.1,0.1c-1.6,1.8-3.4,3.7-5.3,5.1c-0.1,0-0.1,0.1-0.2,0.1C160.2,321.2,157.5,322.5,154.7,322.3z M173,315.2
		c-0.8-0.2-1.8-0.5-2.6-0.8c1-1.3,1.9-2.5,2.7-3.6C173,312.1,172.9,313.6,173,315.2z M169.1,315.9c1.3,0.5,3,1,4.1,1.3
		c0.3,1.7,0.8,3.5,1.6,5.3c-3.3-0.6-6.6-1.6-9.6-2.8C166.6,318.5,167.9,317.2,169.1,315.9z M175.6,307.4c1.6,2.8,4.7,9.5,5.6,20.9
		C173.4,320.6,174.5,311.7,175.6,307.4z M160.9,313.6c8.9-12.8,24.7-21.5,32.4-25.2C184.9,296.8,173.5,306.8,160.9,313.6z
		 M214.9,328.1c-7.5-12.1-12.4-26.6-15.4-38C204.3,297.1,213.7,312.6,214.9,328.1z M205.8,319.5c0.1,1.4,0.3,2.9,0.5,4.5
		c-0.9-0.2-1.8-0.4-2.7-0.6C204.5,322.1,205.2,320.7,205.8,319.5z M189.9,330.7c6.5-9.4,12.5-13.6,15.3-15.3
		C204.1,319.6,200.6,327.9,189.9,330.7z M202.4,325c1.4,0.4,2.7,0.6,4.2,0.9c0.4,1.8,0.8,3.6,1.5,5.3c-3.3-0.5-6.6-1.3-9.8-2.4
		C200,327.6,201.3,326.3,202.4,325z M226.2,319.5c0.5,1.2,1.2,2.6,2.1,3.9c-0.8,0.2-1.8,0.4-2.7,0.6
		C226,322.4,226.1,320.8,226.2,319.5z M225.4,325.9c1.4-0.2,3.1-0.6,4.2-1c1.1,1.3,2.4,2.6,4.1,3.8c-3.2,1.1-6.5,1.9-9.7,2.4
		C224.5,329.5,225,327.7,225.4,325.9z M226.8,315.4c2.8,1.6,8.8,5.9,15.3,15.3C231.4,327.9,227.9,319.6,226.8,315.4z M217.1,328.1
		c1.3-15.5,10.6-31,15.4-38C229.5,301.5,224.5,316,217.1,328.1z M271.1,313.6c-12.6-6.8-24-16.8-32.4-25.2
		C246.4,292,262.2,300.8,271.1,313.6z M258.9,310.7c0.8,1.1,1.7,2.3,2.7,3.6c-0.9,0.3-1.7,0.6-2.6,0.9
		C259.1,313.6,259,312.1,258.9,310.7z M256.4,307.4c1.2,4.2,2.2,13.1-5.6,20.9C251.7,317,254.8,310.2,256.4,307.4z M258.7,317.2
		c1.4-0.4,2.7-0.8,4.1-1.3c1.2,1.4,2.5,2.7,3.9,3.9c-3.1,1.2-6.3,2.2-9.7,2.8C257.9,320.7,258.4,318.9,258.7,317.2z M259.9,308.8
		c4.3,3,8.8,5.8,13.5,8c0.1,0.1,0.3,0.1,0.4,0.1c0.2,0,0.3,0,0.5-0.1c0.1-0.1,0.2-0.2,0.3-0.3c0,0,0-0.1,0.1-0.1
		c0-0.1,0.1-0.2,0.1-0.3c0,0,0,0,0-0.1c0.4-5.2,0.2-10.5-0.2-15.7c2.8,5.6,6.9,16,2.9,21.9C270.3,322.7,263.3,314,259.9,308.8z
		 M276.6,300.5c1.1,0.8,2.3,1.6,3.8,2.3c-0.6,0.6-1.3,1.3-2,1.9C277.8,303.1,277.2,301.7,276.6,300.5z M279.1,306.5
		c1.1-0.9,2.3-2,3.2-2.9c1.6,0.6,3.4,1.1,5.4,1.3c-2.2,2.6-4.6,4.9-7.2,7C280.1,310,279.6,308.2,279.1,306.5z M275,296.7
		c3.2,0,10.6,0.7,20.9,5.6C285.3,305.2,278.1,299.8,275,296.7z M273,312.5c-6.7-14.1-6.3-32.2-5.6-40.7
		C270.4,283.3,273.4,298.3,273,312.5z M312.5,273c-14.3,0.4-29.2-2.6-40.6-5.6C280.4,266.7,298.5,266.3,312.5,273z M300.5,276.6
		c1.2,0.6,2.6,1.2,4.1,1.8c-0.6,0.7-1.2,1.4-1.8,2C302.1,279,301.3,277.7,300.5,276.6z M303.6,282.3c1-1,1.9-2,2.9-3.2
		c1.7,0.6,3.5,1.1,5.3,1.4c-2.1,2.6-4.4,5-7,7.3C304.7,285.7,304.2,283.9,303.6,282.3z M314.4,261.6c-1.3-1-2.5-1.9-3.6-2.7
		c0.9,0.1,1.8,0.2,2.7,0.2c0.5,0,1.1,0,1.7-0.1C314.9,259.8,314.7,260.7,314.4,261.6z M315.9,262.9c0.5-1.3,1-2.9,1.3-4.1
		c1.7-0.3,3.5-0.8,5.3-1.6c-0.6,3.3-1.6,6.5-2.8,9.6C318.5,265.4,317.2,264,315.9,262.9z M307.4,256.4c2.8-1.6,9.5-4.6,20.9-5.6
		C320.6,258.6,311.7,257.5,307.4,256.4z M313.6,271.1c-12.8-8.8-21.5-24.7-25.2-32.4C296.8,247.1,306.8,258.6,313.6,271.1z
		 M328.1,217.1c-12.1,7.5-26.6,12.4-38,15.5C297,227.7,312.5,218.3,328.1,217.1z M323.4,228.4c-1.3-0.9-2.7-1.6-3.9-2.2
		c1.4-0.1,2.9-0.3,4.5-0.5C323.8,226.6,323.6,227.5,323.4,228.4z M330.7,242.1c-9.4-6.5-13.6-12.5-15.3-15.3
		C319.6,227.9,327.9,231.4,330.7,242.1z M325,229.6c0.4-1.4,0.6-2.7,0.9-4.2c1.8-0.4,3.6-0.8,5.3-1.5c-0.5,3.3-1.3,6.6-2.4,9.8
		C327.6,232,326.3,230.7,325,229.6z M318.3,224.4c4.8-2.2,9.4-4.8,13.7-7.7c0,0,0,0,0-0.1c0.1-0.1,0.1-0.1,0.2-0.2
		c0,0,0.1-0.1,0.1-0.1c0.1-0.1,0.1-0.3,0.1-0.4s0-0.3-0.1-0.4c0,0,0-0.1-0.1-0.1c-0.1-0.1-0.1-0.2-0.2-0.2c0,0,0,0,0-0.1
		c-4.3-2.9-9-5.4-13.7-7.7c6.2,0.4,17.3,2,20.4,8.4C335.6,222.4,324.5,224,318.3,224.4z M323.4,203.6c0.2,0.8,0.4,1.8,0.6,2.7
		c-1.6-0.3-3.1-0.4-4.5-0.5C320.7,205.2,322,204.5,323.4,203.6z M325.9,206.6c-0.2-1.2-0.6-2.8-0.9-4.2c1.3-1.1,2.6-2.4,3.8-4.1
		c1.1,3.2,1.9,6.5,2.4,9.7C329.5,207.5,327.7,207,325.9,206.6z M315.4,205.2c1.6-2.8,5.9-8.8,15.3-15.3
		C327.9,200.6,319.6,204.1,315.4,205.2z M328.1,214.9c-15.5-1.3-31-10.7-38-15.5C301.5,202.5,315.9,207.4,328.1,214.9z M313.6,160.9
		c-6.8,12.5-16.8,24-25.2,32.4C292.1,185.6,300.8,169.7,313.6,160.9z M328.3,181.2c-11.4-1-18.1-4-20.9-5.6
		C311.7,174.5,320.6,173.4,328.3,181.2z M324.6,176c-0.7-4.3-1.9-8.5-3.6-12.5c1.4-1.9,2.4-3.9,2.9-6.1c4.1,8.3,5.4,16.3,5.7,22.4
		C328,178.2,326.3,177,324.6,176z M314,151.3c-2.6-3.4-5.6-6.5-9-9.3c0-2-0.3-4-0.9-6.3c5.2,3.3,11.5,8.6,16.6,16.1
		C318.6,151.2,316.3,151,314,151.3z M301.6,133.1C301.6,133.1,301.6,133.1,301.6,133.1C301.6,133.1,301.6,133.1,301.6,133.1
		C301.6,133.2,301.6,133.2,301.6,133.1c0,0.1-0.1,0.1-0.1,0.1c-6.7,13.2-6.9,22.2-6.7,24.9c-9.8,1.3-19.1,3.5-26.6,5.6
		c2.1-7.5,4.3-16.8,5.6-26.6c2.8,0.2,11.7,0,24.9-6.8c0,0,0,0,0,0c2-1,4.1-2.2,6.3-3.5C303.8,129.1,302.7,131.1,301.6,133.1z
		 M290.1,127c-2.8-3.4-5.9-6.4-9.3-9c0.2-2.3,0.1-4.6-0.6-6.7c7.7,5.1,12.9,11.4,16.2,16.6C294.1,127.3,292,127.1,290.1,127z
		 M268.5,110.9c-3.9-1.6-8.1-2.8-12.4-3.5c-1-1.7-2.3-3.4-3.9-5c6.2,0.3,14.3,1.6,22.4,5.7C272.4,108.5,270.4,109.6,268.5,110.9z
		 M248.7,101.4C248.7,101.4,248.7,101.4,248.7,101.4C248.7,101.4,248.7,101.4,248.7,101.4C248.7,101.4,248.7,101.5,248.7,101.4
		c0,0.1,0,0.1,0,0.1c0.8,14.8,5.1,22.6,6.6,25c-7.9,6-14.8,12.5-20.2,18.1c-1.9-7.5-4.6-16.7-8.4-25.8c2.5-1.3,10.1-5.9,18.2-18.3
		c0,0,0,0,0,0c1.2-1.9,2.5-3.9,3.7-6.2C248.6,96.8,248.6,99.2,248.7,101.4z M235.7,101.9c-4.1-1.5-8.3-2.6-12.6-3.2
		c-1-2.1-2.2-4-3.8-5.5c9.2,0.6,16.8,3.5,22.2,6.3C239.3,100.2,237.4,101,235.7,101.9z M208.9,98.8c-4.2,0.6-8.4,1.6-12.5,3.2
		c-1.7-1-3.6-1.8-5.9-2.4c5.5-2.8,13.1-5.7,22.2-6.3C211.2,94.6,209.9,96.5,208.9,98.8z M205.3,118.9c-3.8,9.1-6.5,18.3-8.4,25.7
		c-5.4-5.6-12.4-12.2-20.2-18.1c1.5-2.3,5.8-10.2,6.6-25c0,0,0,0,0,0c0.1-2.3,0.2-4.6,0.1-7.2C192.9,111.7,202.6,117.5,205.3,118.9z
		 M176,107.4c-4.3,0.7-8.5,1.9-12.5,3.6c-1.9-1.4-3.9-2.4-6.1-2.9c8.3-4.1,16.3-5.4,22.4-5.7C178.2,104,177,105.7,176,107.4z
		 M151.3,118c-3.4,2.6-6.5,5.6-9.3,9c-2,0-4,0.3-6.3,0.9c3.3-5.2,8.6-11.5,16.1-16.6C151.2,113.4,151,115.7,151.3,118z M133.1,130.4
		C133.1,130.4,133.1,130.4,133.1,130.4C133.1,130.4,133.1,130.4,133.1,130.4C133.2,130.4,133.2,130.4,133.1,130.4
		c0.1,0,0.1,0.1,0.1,0.1c13.2,6.7,22.1,6.9,24.9,6.8c1.2,9.8,3.4,19.1,5.6,26.6c-7.4-2.1-16.7-4.3-26.6-5.6c0.2-2.8,0-11.7-6.7-24.9
		c0,0,0,0,0,0c-1-2-2.2-4.1-3.5-6.3C129.1,128.2,131.1,129.3,133.1,130.4z M127,141.9c-3.4,2.8-6.4,5.9-9,9.3
		c-2.3-0.2-4.6-0.1-6.7,0.6c5.1-7.7,11.4-12.9,16.6-16.2C127.3,137.9,127.1,140,127,141.9z M108.1,157.5c0.5,2.1,1.5,4.2,2.9,6.1
		c-1.6,3.9-2.8,8.1-3.5,12.4c-1.7,1-3.4,2.3-5,3.9C102.7,173.7,104,165.6,108.1,157.5z M101.4,183.3
		C101.4,183.3,101.4,183.3,101.4,183.3C101.4,183.3,101.4,183.3,101.4,183.3C101.4,183.3,101.4,183.3,101.4,183.3c0.1,0,0.1,0,0.1,0
		c14.8-0.8,22.7-5.1,25-6.6c6,7.9,12.6,14.8,18.1,20.2c-7.5,1.9-16.7,4.6-25.8,8.4c-1.3-2.5-5.9-10.1-18.3-18.2c0,0,0,0,0,0
		c-1.9-1.2-3.9-2.5-6.2-3.7C96.8,183.4,99.1,183.4,101.4,183.3z M99.6,190.5c0.6,2.2,1.4,4.2,2.4,5.9c-1.5,4.1-2.6,8.3-3.2,12.6
		c-2.1,1-4,2.2-5.5,3.8C93.9,203.5,96.8,195.9,99.6,190.5z M98.8,223.1c0.6,4.2,1.6,8.4,3.2,12.5c-1,1.7-1.8,3.6-2.4,5.9
		c-2.8-5.5-5.7-13.2-6.3-22.2C94.7,220.9,96.7,222.1,98.8,223.1z M100.4,245C100.4,245,100.4,245,100.4,245
		C100.4,245,100.4,245,100.4,245c12.5-8.1,17.1-15.8,18.4-18.3c9.1,3.8,18.3,6.6,25.8,8.4c-5.5,5.4-12.1,12.3-18.1,20.2
		c-2.3-1.5-10.1-5.8-25-6.6c0,0,0,0-0.1,0c-2.2-0.1-4.6-0.2-7.2-0.1C96.5,247.4,98.5,246.2,100.4,245z M107.4,256
		c0.7,4.3,1.9,8.5,3.6,12.4c-1.4,1.9-2.4,3.9-2.9,6.1c-4.1-8.3-5.4-16.3-5.7-22.4C104,253.8,105.7,255.1,107.4,256z M115.9,280.9
		c0.7,0,1.4,0,2.1-0.1c2.6,3.4,5.6,6.5,9,9.3c0,2,0.3,4,0.9,6.3c-5.2-3.3-11.5-8.6-16.6-16.1C112.8,280.6,114.3,280.9,115.9,280.9z
		 M130.4,298.9C130.4,298.9,130.4,298.9,130.4,298.9C130.4,298.9,130.4,298.9,130.4,298.9C130.4,298.8,130.4,298.8,130.4,298.9
		c0-0.1,0.1-0.1,0.1-0.1c6.7-13.2,6.9-22.2,6.7-24.9c9.8-1.3,19.1-3.5,26.6-5.6c-2.1,7.5-4.3,16.8-5.6,26.6
		c-2.8-0.2-11.7,0-24.9,6.8c0,0,0,0,0,0c-2,1-4.1,2.2-6.3,3.5C128.2,302.9,129.3,300.9,130.4,298.9z M142,305c2.8,3.4,5.9,6.4,9.3,9
		c-0.2,2.3-0.1,4.6,0.6,6.7c-7.7-5.1-12.9-11.4-16.2-16.6C137.9,304.7,140,305,142,305z M163.5,321c3.9,1.6,8.1,2.8,12.4,3.5
		c1,1.7,2.3,3.4,3.9,5c-6.2-0.3-14.3-1.6-22.4-5.7C159.6,323.5,161.6,322.4,163.5,321z M183.3,330.6
		C183.3,330.6,183.3,330.6,183.3,330.6C183.3,330.6,183.3,330.6,183.3,330.6C183.3,330.6,183.3,330.5,183.3,330.6c0-0.1,0-0.1,0-0.1
		c-0.8-14.8-5.1-22.6-6.6-25c7.9-6,14.8-12.5,20.2-18.1c1.9,7.5,4.6,16.7,8.4,25.8c-2.5,1.3-10.1,5.9-18.2,18.3c0,0,0,0,0,0
		c-1.2,1.9-2.5,3.9-3.7,6.2C183.4,335.2,183.4,332.8,183.3,330.6z M196.3,330.1c4.1,1.5,8.3,2.6,12.6,3.2c1,2.1,2.2,4,3.8,5.5
		c-9.2-0.6-16.8-3.5-22.2-6.3C192.7,331.8,194.6,331,196.3,330.1z M223.1,333.2c4.2-0.6,8.4-1.6,12.5-3.2c1.7,1,3.6,1.8,5.9,2.4
		c-5.5,2.8-13.1,5.7-22.2,6.3C220.9,337.3,222.1,335.3,223.1,333.2z M245,331.6C245,331.6,245,331.6,245,331.6
		C245,331.6,244.9,331.6,245,331.6C244.9,331.6,244.9,331.6,245,331.6c-0.1-0.1-0.1-0.1-0.1-0.1c-8.1-12.4-15.7-17.1-18.2-18.3
		c3.8-9.1,6.6-18.3,8.4-25.8c5.4,5.6,12.4,12.2,20.2,18.1c-1.5,2.3-5.8,10.2-6.6,25c0,0,0,0,0,0c-0.1,2.3-0.2,4.6-0.1,7.2
		C247.4,335.5,246.2,333.5,245,331.6z M256,324.6c4.3-0.7,8.5-1.9,12.5-3.6c1.9,1.4,3.9,2.4,6.1,2.9c-8.3,4.1-16.4,5.4-22.4,5.7
		C253.8,328,255,326.3,256,324.6z M280.7,314c3.3-2.6,6.5-5.6,9.3-9c2,0,4.1-0.3,6.3-0.9c-3.3,5.2-8.6,11.5-16.1,16.6
		C280.8,318.6,281,316.3,280.7,314z M298.9,301.6C298.9,301.6,298.9,301.6,298.9,301.6C298.9,301.6,298.9,301.6,298.9,301.6
		C298.8,301.6,298.8,301.6,298.9,301.6c-0.1,0-0.1-0.1-0.1-0.1c-13.2-6.7-22.1-6.9-24.9-6.8c-1.2-9.8-3.5-19.1-5.6-26.6
		c7.4,2.1,16.7,4.3,26.6,5.6c-0.2,2.8,0,11.7,6.7,24.9c0,0,0,0,0,0c1,2,2.2,4.1,3.5,6.3C302.9,303.8,300.9,302.7,298.9,301.6z
		 M305,290.1c3.4-2.8,6.4-5.9,9-9.3c0.7,0.1,1.4,0.1,2.1,0.1c1.6,0,3.1-0.2,4.6-0.7c-5.1,7.7-11.4,12.9-16.6,16.1
		C304.7,294.1,304.9,292,305,290.1z M323.9,274.5c-0.5-2.1-1.5-4.2-2.9-6.1c1.6-3.9,2.8-8.1,3.5-12.4c1.7-1,3.4-2.3,5-3.9
		C329.3,258.3,328,266.4,323.9,274.5z M330.6,248.7C330.6,248.7,330.6,248.7,330.6,248.7C330.6,248.7,330.6,248.7,330.6,248.7
		c-0.1,0-0.1,0-0.1,0c0,0-0.1,0-0.1,0c-14.8,0.8-22.6,5.1-24.9,6.6c-6-7.9-12.6-14.8-18.1-20.2c7.5-1.9,16.7-4.6,25.8-8.4
		c1.5,2.9,7.4,12.6,24.5,21.9C335.2,248.6,332.9,248.6,330.6,248.7z M332.4,241.5c-0.6-2.2-1.4-4.2-2.4-5.9
		c1.5-4.1,2.6-8.3,3.2-12.6c2.1-1,4-2.2,5.5-3.8C338.1,228.5,335.2,236.1,332.4,241.5z M333.2,208.9c-0.6-4.2-1.6-8.4-3.2-12.5
		c1-1.7,1.8-3.6,2.4-5.9c2.8,5.5,5.7,13.1,6.3,22.2C337.3,211.1,335.3,209.9,333.2,208.9z M331.6,187C331.6,187,331.6,187,331.6,187
		C331.6,187,331.6,187.1,331.6,187C331.6,187.1,331.5,187.1,331.6,187C331.5,187.1,331.5,187.1,331.6,187
		c-12.5,8.1-17.1,15.8-18.4,18.3c-9.1-3.8-18.3-6.6-25.8-8.4c5.5-5.4,12.1-12.3,18.1-20.2c2.3,1.5,10.2,5.8,25.1,6.6c0,0,0,0,0,0
		c0,0,0,0,0,0c2.2,0.1,4.6,0.2,7.1,0.1C335.5,184.6,333.5,185.8,331.6,187z M353.8,209.1l10.8,6.9l-10.8,6.9
		c0.3-2.2,0.5-4.5,0.5-6.9S354,211.3,353.8,209.1z M353.2,205.6c-0.4-2.3-1-4.5-1.7-6.5l9.8,1.2L353.2,205.6z M350.5,196.2
		c-1-2.8-2.2-5.2-3.3-7.3l10,0.1L350.5,196.2z M345.9,186.5c-1.4-2.3-2.5-3.8-3-4.5c0.1-0.8,0.3-2.7,0.3-5.3l8.9,2.9L345.9,186.5z
		 M353,177.8l-8.5-2.7l8.7-5.1C353.4,173.7,353.2,176.4,353,177.8z M343.2,164.1l8.5-6.4c0.8,3.4,1.2,6.6,1.4,9.4L343.2,164.1z
		 M341.8,162.9c-0.5-2.1-1-4.3-1.8-6.5l9.7,0.5L341.8,162.9z M338.8,153.1c-0.9-2.1-1.9-4.1-3.1-6.2c-1.2-2.1-2.5-4-3.9-5.8
		l12.8,0.6L338.8,153.1z M324.9,133.6l9.1-3.8l-4.4,8.6C328.1,136.6,326.5,135,324.9,133.6z M316.2,127l8.7-4.9l-2.2,9.6
		C320.3,129.7,318.1,128.2,316.2,127z M308.9,123.1c-0.3-0.7-1.1-2.5-2.4-4.8l9.2-2l-2,9.2C311.4,124.2,309.6,123.4,308.9,123.1z
		 M305,115.8c-1.2-2-2.8-4.2-4.7-6.5l9.6-2.2L305,115.8z M293.6,102.4l8.6-4.4l-3.8,9.1C297,105.5,295.4,103.9,293.6,102.4z
		 M290.3,87.3l0.6,12.8c-1.8-1.4-3.7-2.7-5.8-3.9c-2.1-1.2-4.2-2.2-6.2-3.1L290.3,87.3z M258.2,88.8l5.1-8.6l2.9,9.4
		C263.2,89.1,260.5,88.9,258.2,88.8z M165.8,89.6l2.9-9.4l5.1,8.6C171.5,88.9,168.8,89.1,165.8,89.6z M133.6,107.1l-3.8-9.1l8.6,4.4
		C136.6,103.9,135,105.5,133.6,107.1z M127,115.8l-4.9-8.7l9.6,2.2C129.7,111.7,128.2,113.9,127,115.8z M123.1,123.1
		c-0.7,0.3-2.5,1.1-4.8,2.4l-2-9.2l9.2,2C124.2,120.6,123.4,122.4,123.1,123.1z M109.4,131.6l-2.2-9.6l8.7,4.9
		C113.9,128.2,111.7,129.7,109.4,131.6z M102.4,138.4l-4.4-8.6l9.1,3.8C105.5,135,103.9,136.6,102.4,138.4z M96.3,146.9
		c-1.2,2.1-2.2,4.2-3.1,6.2l-5.9-11.4l12.8-0.6C98.8,142.9,97.5,144.8,96.3,146.9z M90.2,162.9l-7.9-6l9.7-0.5
		C91.2,158.6,90.6,160.8,90.2,162.9z M88.8,164.1l-9.9,3c0.2-2.8,0.7-6,1.4-9.4L88.8,164.1z M87.4,175.1l-8.5,2.7
		c-0.1-1.4-0.3-4.2-0.2-7.8L87.4,175.1z M88.8,176.7c0,2.7,0.2,4.5,0.3,5.3c-0.5,0.6-1.6,2.2-3,4.5l-6.3-6.9L88.8,176.7z
		 M81.5,196.2l-6.7-7.2l10-0.1C83.6,191,82.5,193.5,81.5,196.2z M78.8,205.6l-8.1-5.3l9.8-1.2C79.8,201.1,79.2,203.3,78.8,205.6z
		 M78.2,222.9L67.4,216l10.8-6.9c-0.3,2.2-0.5,4.5-0.5,6.9S78,220.7,78.2,222.9z M78.8,226.4c0.4,2.3,1,4.5,1.7,6.5l-9.8-1.2
		L78.8,226.4z M81.5,235.8c1,2.8,2.2,5.2,3.3,7.3l-10-0.1L81.5,235.8z M86.1,245.5c1.4,2.3,2.5,3.8,3,4.5c-0.1,0.8-0.3,2.7-0.3,5.3
		l-8.9-2.9L86.1,245.5z M79,254.2l8.5,2.7l-8.7,5.1C78.6,258.3,78.8,255.6,79,254.2z M88.8,267.9l-8.5,6.4c-0.8-3.4-1.2-6.6-1.4-9.4
		L88.8,267.9z M90.2,269.1c0.5,2.1,1,4.3,1.8,6.5l-9.7-0.5L90.2,269.1z M93.2,278.9c0.9,2.1,1.9,4.1,3.1,6.2c1.2,2.1,2.5,4,3.9,5.8
		l-12.8-0.6L93.2,278.9z M107.1,298.4l-9.1,3.8l4.4-8.6C103.9,295.4,105.5,297,107.1,298.4z M115.8,305l-8.7,4.9l2.2-9.6
		C111.7,302.3,113.9,303.8,115.8,305z M123.1,308.9c0.3,0.7,1.1,2.5,2.4,4.8l-9.2,2l2-9.2C120.6,307.8,122.4,308.6,123.1,308.9z
		 M127,316.2c1.2,2,2.8,4.2,4.7,6.5l-9.6,2.2L127,316.2z M138.4,329.6l-8.6,4.4l3.8-9.1C135,326.5,136.6,328.1,138.4,329.6z
		 M141.7,344.7l-0.6-12.8c1.8,1.4,3.7,2.7,5.8,3.9c2.1,1.2,4.2,2.2,6.2,3.1L141.7,344.7z M173.8,343.2l-5.1,8.6l-2.9-9.4
		C168.8,342.9,171.5,343.1,173.8,343.2z M266.2,342.4l-2.9,9.4l-5.1-8.6C260.5,343.1,263.2,342.9,266.2,342.4z M298.4,324.9l3.8,9.1
		l-8.6-4.4C295.4,328.1,297,326.5,298.4,324.9z M305,316.2l4.9,8.7l-9.6-2.2C302.3,320.3,303.8,318.1,305,316.2z M308.9,308.9
		c0.7-0.3,2.5-1.1,4.8-2.4l2,9.2l-9.2-2C307.8,311.4,308.6,309.6,308.9,308.9z M322.6,300.4l2.2,9.6l-8.7-4.9
		C318.1,303.8,320.3,302.3,322.6,300.4z M329.6,293.6l4.4,8.6l-9.1-3.8C326.5,297,328.1,295.4,329.6,293.6z M335.7,285.1
		c1.2-2.1,2.2-4.2,3.1-6.2l5.9,11.4l-12.8,0.6C333.2,289.1,334.5,287.2,335.7,285.1z M341.8,269.1l7.9,6l-9.7,0.5
		C340.8,273.4,341.4,271.2,341.8,269.1z M343.2,267.9l9.9-3c-0.2,2.8-0.7,6-1.4,9.4L343.2,267.9z M344.6,256.9l8.5-2.7
		c0.1,1.4,0.3,4.2,0.2,7.8L344.6,256.9z M343.2,255.3c0-2.7-0.2-4.5-0.3-5.3c0.5-0.6,1.6-2.2,3-4.5l6.3,6.9L343.2,255.3z
		 M350.5,235.8l6.7,7.2l-10,0.1C348.4,241,349.5,238.5,350.5,235.8z M353.2,226.4l8.1,5.3l-9.8,1.2
		C352.2,230.9,352.8,228.7,353.2,226.4z M365.3,214.3l-11-7.1l9.1-6C364.4,205.2,365.1,209.6,365.3,214.3z M352.1,197.3l7.1-7.6
		c1.2,2.6,2.4,5.5,3.5,8.9L352.1,197.3z M357.8,187.2l-10.1-0.1l6-6.6C354.6,181.7,356.1,184,357.8,187.2z M340.1,154.5l6-11.7
		c2.2,4.1,3.8,8.3,4.9,12.3L340.1,154.5z M331.3,139.2l4.9-9.7c2.9,2.9,5.7,6.4,8.2,10.3L331.3,139.2z M324.5,131.8l2.3-10.1
		c2.3,1.6,4.9,3.6,7.5,5.9L324.5,131.8z M315.7,125.1l1.9-8.7c1.3,0.6,3.8,1.8,6.9,3.7L315.7,125.1z M306.9,116.3l5-8.8
		c1.9,3.1,3.1,5.6,3.7,6.9L306.9,116.3z M300.2,107.5l4.1-9.8c2.4,2.6,4.3,5.1,5.9,7.5L300.2,107.5z M302.5,95.8l-9.7,4.9l-0.6-13.1
		C296.1,90.1,299.6,92.9,302.5,95.8z M289.2,85.8l-11.7,6L276.9,81C280.8,82.1,285,83.6,289.2,85.8z M274.3,80.3l-6.4,8.5l-3-9.9
		C267.7,79.1,270.9,79.6,274.3,80.3z M262,78.7l-5.1,8.7l-2.7-8.5C255.6,78.8,258.3,78.6,262,78.7z M251.5,78.2l-6.6,6l-0.1-10.1
		C248,75.9,250.3,77.4,251.5,78.2z M242.2,72.9l-7.6,7.1l-1.3-10.5C236.7,70.4,239.7,71.6,242.2,72.9z M230.8,68.6l-6,9.1l-7.1-11
		C222.4,66.9,226.8,67.6,230.8,68.6z M214.3,66.7l-7.1,11l-6-9.1C205.2,67.6,209.6,66.9,214.3,66.7z M198.6,69.4l-1.3,10.5l-7.6-7.1
		C192.3,71.6,195.3,70.4,198.6,69.4z M187.2,74.2l-0.1,10.1l-6.6-6C181.7,77.4,184,75.9,187.2,74.2z M177.8,79l-2.7,8.5l-5.1-8.7
		C173.7,78.6,176.4,78.8,177.8,79z M167.2,78.9l-3,9.9l-6.4-8.5C161.1,79.6,164.3,79.1,167.2,78.9z M155.1,81l-0.6,10.9l-11.7-6
		C147,83.6,151.2,82.1,155.1,81z M139.9,87.6l-0.6,13.1l-9.7-4.9C132.4,92.9,135.9,90.1,139.9,87.6z M127.6,97.7l4.1,9.8l-10.1-2.3
		C123.3,102.8,125.3,100.3,127.6,97.7z M120.1,107.6l5,8.8l-8.7-1.9C117,113.1,118.2,110.7,120.1,107.6z M114.4,116.4l1.9,8.7
		l-8.8-5C110.7,118.2,113.1,117,114.4,116.4z M105.2,121.7l2.3,10.1l-9.8-4.1C100.3,125.3,102.8,123.3,105.2,121.7z M95.8,129.5
		l4.9,9.7l-13.1,0.6C90.1,135.9,92.9,132.4,95.8,129.5z M85.8,142.8l6,11.7L81,155.1C82.1,151.2,83.6,147,85.8,142.8z M78.2,180.5
		l6,6.6l-10.1,0.1C75.9,184,77.4,181.7,78.2,180.5z M72.9,189.8l7.1,7.6l-10.5,1.3C70.4,195.3,71.6,192.3,72.9,189.8z M68.6,201.2
		l9.1,6l-11,7.1C66.9,209.6,67.6,205.2,68.6,201.2z M66.7,217.7l11,7.1l-9.1,6C67.6,226.8,66.9,222.4,66.7,217.7z M79.9,234.7
		l-7.1,7.6c-1.2-2.6-2.4-5.5-3.5-8.9L79.9,234.7z M74.2,244.8l10.1,0.1l-6,6.6C77.4,250.3,75.9,248,74.2,244.8z M91.9,277.5l-6,11.7
		c-2.2-4.1-3.8-8.3-4.9-12.3L91.9,277.5z M100.7,292.8l-4.9,9.7c-2.9-2.9-5.7-6.4-8.2-10.3L100.7,292.8z M107.5,300.2l-2.3,10.1
		c-2.3-1.6-4.9-3.6-7.5-5.9L107.5,300.2z M116.3,306.9l-1.9,8.7c-1.3-0.6-3.8-1.8-6.9-3.7L116.3,306.9z M125.1,315.7l-5,8.8
		c-1.9-3.1-3.1-5.6-3.7-6.9L125.1,315.7z M131.8,324.5l-4.1,9.8c-2.4-2.6-4.3-5.1-5.9-7.5L131.8,324.5z M129.5,336.2l9.7-4.9
		l0.6,13.1C135.9,341.9,132.4,339.1,129.5,336.2z M142.8,346.2l11.7-6l0.6,10.9C151.2,349.9,147,348.4,142.8,346.2z M157.7,351.7
		l6.4-8.5l3,9.9C164.3,352.9,161.1,352.4,157.7,351.7z M170,353.3l5.1-8.7l2.7,8.5C176.4,353.2,173.7,353.4,170,353.3z M180.5,353.8
		l6.6-6l0.1,10.1C184,356.1,181.7,354.6,180.5,353.8z M189.8,359.1l7.6-7.1l1.3,10.5C195.3,361.6,192.3,360.4,189.8,359.1z
		 M201.2,363.4l6-9.1l7.1,11C209.6,365.1,205.2,364.4,201.2,363.4z M217.7,365.3l7.1-11l6,9.1C226.8,364.4,222.4,365.1,217.7,365.3z
		 M233.4,362.6l1.3-10.5l7.6,7.1C239.7,360.4,236.7,361.6,233.4,362.6z M244.8,357.8l0.1-10.1l6.6,6
		C250.3,354.6,248,356.1,244.8,357.8z M254.2,353l2.7-8.5l5.1,8.7C258.3,353.4,255.6,353.2,254.2,353z M264.8,353.1l3-9.9l6.4,8.5
		C270.9,352.4,267.7,352.9,264.8,353.1z M276.9,351l0.6-10.9l11.7,6C285,348.4,280.8,349.9,276.9,351z M292.1,344.4l0.6-13.1
		l9.7,4.9C299.6,339.1,296.1,341.9,292.1,344.4z M304.4,334.3l-4.1-9.8l10.1,2.3C308.7,329.2,306.7,331.7,304.4,334.3z M311.9,324.4
		l-5-8.8l8.7,1.9C315,318.9,313.8,321.3,311.9,324.4z M317.6,315.6l-1.9-8.7l8.8,5C321.3,313.8,318.9,315,317.6,315.6z M326.8,310.3
		l-2.3-10.1l9.8,4.1C331.7,306.7,329.2,308.7,326.8,310.3z M336.2,302.5l-4.9-9.7l13.1-0.6C341.9,296.1,339.1,299.6,336.2,302.5z
		 M346.2,289.2l-6-11.7l10.9-0.6C349.9,280.8,348.4,285,346.2,289.2z M353.8,251.5l-6-6.6l10.1-0.1
		C356.1,248,354.6,250.3,353.8,251.5z M359.1,242.2l-7.1-7.6l10.5-1.3C361.6,236.7,360.4,239.7,359.1,242.2z"/>
	<circle class="st0" cx="193.7" cy="132.9" r="2.5"/>
	<circle class="st0" cx="190.7" cy="121.6" r="2.5"/>
	<circle class="st0" cx="187.7" cy="110.4" r="2.5"/>
	<ellipse transform="matrix(0.5 -0.866 0.866 0.5 4.0894 272.7862)" class="st0" cx="238.3" cy="132.9" rx="2.5" ry="2.5"/>
	<ellipse transform="matrix(0.5 -0.866 0.866 0.5 15.301 269.7821)" class="st0" cx="241.3" cy="121.6" rx="2.5" ry="2.5"/>
	<ellipse transform="matrix(0.5 -0.866 0.866 0.5 26.5125 266.778)" class="st0" cx="244.3" cy="110.4" rx="2.5" ry="2.5"/>
	<ellipse transform="matrix(0.866 -0.5 0.5 0.866 -40.4722 159.215)" class="st0" cx="276.9" cy="155.1" rx="2.5" ry="2.5"/>
	<ellipse transform="matrix(0.866 -0.5 0.5 0.866 -35.2691 162.219)" class="st0" cx="285.1" cy="146.9" rx="2.5" ry="2.5"/>
	<ellipse transform="matrix(0.866 -0.5 0.5 0.866 -30.066 165.2229)" class="st0" cx="293.3" cy="138.7" rx="2.5" ry="2.5"/>
	<circle class="st0" cx="299.1" cy="193.7" r="2.5"/>
	<circle class="st0" cx="310.4" cy="190.7" r="2.5"/>
	<circle class="st0" cx="321.6" cy="187.7" r="2.5"/>
	<ellipse transform="matrix(0.5 -0.866 0.866 0.5 -56.7805 378.2135)" class="st0" cx="299.1" cy="238.3" rx="2.5" ry="2.5"/>
	<ellipse transform="matrix(0.5 -0.866 0.866 0.5 -53.7764 389.4249)" class="st0" cx="310.4" cy="241.3" rx="2.5" ry="2.5"/>
	<ellipse transform="matrix(0.5 -0.866 0.866 0.5 -50.7722 400.6363)" class="st0" cx="321.6" cy="244.3" rx="2.5" ry="2.5"/>
	<ellipse transform="matrix(0.866 -0.5 0.5 0.866 -101.3391 175.521)" class="st0" cx="276.9" cy="276.9" rx="2.5" ry="2.5"/>
	<ellipse transform="matrix(0.866 -0.5 0.5 0.866 -104.3432 180.724)" class="st0" cx="285.1" cy="285.1" rx="2.5" ry="2.5"/>
	<ellipse transform="matrix(0.866 -0.5 0.5 0.866 -107.3472 185.927)" class="st0" cx="293.3" cy="293.3" rx="2.5" ry="2.5"/>
	<circle class="st0" cx="238.3" cy="299.1" r="2.5"/>
	<circle class="st0" cx="241.3" cy="310.4" r="2.5"/>
	<circle class="st0" cx="244.3" cy="321.6" r="2.5"/>
	<ellipse transform="matrix(0.5 -0.866 0.866 0.5 -162.2094 317.3476)" class="st0" cx="193.7" cy="299.1" rx="2.5" ry="2.5"/>
	
		<ellipse transform="matrix(0.5001 -0.866 0.866 0.5001 -173.4217 320.3231)" class="st0" cx="190.7" cy="310.4" rx="2.5" ry="2.5"/>
	<ellipse transform="matrix(0.5 -0.866 0.866 0.5 -184.6324 323.356)" class="st0" cx="187.7" cy="321.6" rx="2.5" ry="2.5"/>
	<ellipse transform="matrix(0.866 -0.5 0.5 0.866 -117.6491 114.6563)" class="st0" cx="155.1" cy="276.9" rx="2.5" ry="2.5"/>
	<ellipse transform="matrix(0.866 -0.5 0.5 0.866 -122.8522 111.6524)" class="st0" cx="146.9" cy="285.1" rx="2.5" ry="2.5"/>
	<ellipse transform="matrix(0.866 -0.5 0.5 0.866 -128.0553 108.6482)" class="st0" cx="138.7" cy="293.3" rx="2.5" ry="2.5"/>
	<circle class="st0" cx="132.9" cy="238.3" r="2.5"/>
	<circle class="st0" cx="121.6" cy="241.3" r="2.5"/>
	<circle class="st0" cx="110.4" cy="244.3" r="2.5"/>
	<ellipse transform="matrix(0.5 -0.866 0.866 0.5 -101.3408 211.9155)" class="st0" cx="132.9" cy="193.7" rx="2.5" ry="2.5"/>
	
		<ellipse transform="matrix(0.5001 -0.866 0.866 0.5001 -104.3456 200.6865)" class="st0" cx="121.6" cy="190.7" rx="2.5" ry="2.5"/>
	<ellipse transform="matrix(0.5 -0.866 0.866 0.5 -107.3491 189.4926)" class="st0" cx="110.4" cy="187.7" rx="2.5" ry="2.5"/>
	<ellipse transform="matrix(0.866 -0.5 0.5 0.866 -56.7809 98.3455)" class="st0" cx="155.1" cy="155.1" rx="2.5" ry="2.5"/>
	<ellipse transform="matrix(0.866 -0.5 0.5 0.866 -53.7769 93.1425)" class="st0" cx="146.9" cy="146.9" rx="2.5" ry="2.5"/>
	<ellipse transform="matrix(0.866 -0.5 0.5 0.866 -50.7729 87.9394)" class="st0" cx="138.7" cy="138.7" rx="2.5" ry="2.5"/>
	<circle class="st0" cx="191.2" cy="91.5" r="2.5"/>
	<circle class="st0" cx="216" cy="85.6" r="2.5"/>
	<circle class="st0" cx="216" cy="139.9" r="2.5"/>
	<circle class="st0" cx="216" cy="131.9" r="2.5"/>
	<ellipse transform="matrix(0.5 -0.866 0.866 0.5 -2.9337 295.0663)" class="st0" cx="254.1" cy="150.1" rx="2.5" ry="2.5"/>
	<ellipse transform="matrix(0.5 -0.866 0.866 0.5 5.0188 295.0662)" class="st0" cx="258" cy="143.2" rx="2.5" ry="2.5"/>
	<ellipse transform="matrix(0.866 -0.5 0.5 0.866 -51.1976 164.799)" class="st0" cx="281.9" cy="177.9" rx="2.5" ry="2.5"/>
	<ellipse transform="matrix(0.866 -0.5 0.5 0.866 -48.2869 167.7097)" class="st0" cx="288.8" cy="174" rx="2.5" ry="2.5"/>
	<circle class="st0" cx="292.1" cy="216" r="2.5"/>
	<circle class="st0" cx="300.1" cy="216" r="2.5"/>
	<ellipse transform="matrix(0.5 -0.866 0.866 0.5 -79.0601 371.1904)" class="st0" cx="281.9" cy="254.1" rx="2.5" ry="2.5"/>
	<ellipse transform="matrix(0.5 -0.866 0.866 0.5 -79.0601 379.1427)" class="st0" cx="288.8" cy="258" rx="2.5" ry="2.5"/>
	<ellipse transform="matrix(0.866 -0.5 0.5 0.866 -106.9266 164.8069)" class="st0" cx="254.1" cy="281.9" rx="2.5" ry="2.5"/>
	<ellipse transform="matrix(0.866 -0.5 0.5 0.866 -109.8337 167.7064)" class="st0" cx="258" cy="288.8" rx="2.5" ry="2.5"/>
	<circle class="st0" cx="216" cy="292.1" r="2.5"/>
	<circle class="st0" cx="216" cy="300.1" r="2.5"/>
	
		<ellipse transform="matrix(0.5001 -0.866 0.866 0.5001 -155.1872 295.0414)" class="st0" cx="177.9" cy="281.9" rx="2.5" ry="2.5"/>
	<ellipse transform="matrix(0.5 -0.866 0.866 0.5 -163.1387 295.0678)" class="st0" cx="174" cy="288.8" rx="2.5" ry="2.5"/>
	<ellipse transform="matrix(0.866 -0.5 0.5 0.866 -106.9237 109.0723)" class="st0" cx="150.1" cy="254.1" rx="2.5" ry="2.5"/>
	<ellipse transform="matrix(0.866 -0.5001 0.5001 0.866 -109.8464 106.1815)" class="st0" cx="143.2" cy="258" rx="2.5" ry="2.5"/>
	<circle class="st0" cx="139.9" cy="216" r="2.5"/>
	<circle class="st0" cx="131.9" cy="216" r="2.5"/>
	<ellipse transform="matrix(0.5 -0.866 0.866 0.5 -79.061 218.9389)" class="st0" cx="150.1" cy="177.9" rx="2.5" ry="2.5"/>
	<ellipse transform="matrix(0.5001 -0.866 0.866 0.5001 -79.064 210.9689)" class="st0" cx="143.2" cy="174" rx="2.5" ry="2.5"/>
	<ellipse transform="matrix(0.866 -0.5 0.5 0.866 -51.1991 109.0823)" class="st0" cx="177.9" cy="150.1" rx="2.5" ry="2.5"/>
	<ellipse transform="matrix(0.866 -0.5 0.5 0.866 -48.2863 106.1601)" class="st0" cx="174" cy="143.2" rx="2.5" ry="2.5"/>
	<circle class="st0" cx="203.6" cy="86.9" r="2.5"/>
	<circle class="st0" cx="240.8" cy="91.5" r="2.5"/>
	<circle class="st0" cx="228.4" cy="86.9" r="2.5"/>
	<ellipse transform="matrix(0.5 -0.866 0.866 0.5 45.4841 270.2948)" class="st0" cx="256.8" cy="95.8" rx="2.5" ry="2.5"/>
	<ellipse transform="matrix(0.5 -0.866 0.866 0.5 51.3319 295.0658)" class="st0" cx="281.2" cy="103.1" rx="2.5" ry="2.5"/>
	<ellipse transform="matrix(0.5001 -0.866 0.866 0.5001 49.981 282.6629)" class="st0" cx="269.8" cy="98" rx="2.5" ry="2.5"/>
	<ellipse transform="matrix(0.5001 -0.866 0.866 0.5001 45.4688 319.8169)" class="st0" cx="299.7" cy="120.5" rx="2.5" ry="2.5"/>
	<ellipse transform="matrix(0.5001 -0.866 0.866 0.5001 49.9803 307.4323)" class="st0" cx="291.3" cy="110.4" rx="2.5" ry="2.5"/>
	<ellipse transform="matrix(0.866 -0.5 0.5 0.866 -24.4095 173.4542)" class="st0" cx="311.5" cy="132.3" rx="2.5" ry="2.5"/>
	<ellipse transform="matrix(0.866 -0.5 0.5 0.866 -31.3358 184.6609)" class="st0" cx="328.9" cy="150.8" rx="2.5" ry="2.5"/>
	<ellipse transform="matrix(0.866 -0.5 0.5 0.866 -27.2916 179.6386)" class="st0" cx="321.6" cy="140.7" rx="2.5" ry="2.5"/>
	<ellipse transform="matrix(0.866 -0.5 0.5 0.866 -42.5427 191.5872)" class="st0" cx="336.2" cy="175.2" rx="2.5" ry="2.5"/>
	<ellipse transform="matrix(0.866 -0.5 0.5 0.866 -36.3582 188.7051)" class="st0" cx="334" cy="162.2" rx="2.5" ry="2.5"/>
	<circle class="st0" cx="340.5" cy="191.2" r="2.5"/>
	<circle class="st0" cx="346.4" cy="216" r="2.5"/>
	<circle class="st0" cx="345.1" cy="203.6" r="2.5"/>
	<circle class="st0" cx="340.5" cy="240.8" r="2.5"/>
	<circle class="st0" cx="345.1" cy="228.4" r="2.5"/>
	<ellipse transform="matrix(0.5 -0.866 0.866 0.5 -54.2891 419.6079)" class="st0" cx="336.2" cy="256.8" rx="2.5" ry="2.5"/>
	<ellipse transform="matrix(0.5 -0.866 0.866 0.5 -79.06 425.4553)" class="st0" cx="328.9" cy="281.2" rx="2.5" ry="2.5"/>
	<ellipse transform="matrix(0.5 -0.866 0.866 0.5 -66.6745 424.1192)" class="st0" cx="334" cy="269.8" rx="2.5" ry="2.5"/>
	<ellipse transform="matrix(0.5 -0.866 0.866 0.5 -103.8308 419.6081)" class="st0" cx="311.5" cy="299.7" rx="2.5" ry="2.5"/>
	<ellipse transform="matrix(0.5 -0.866 0.866 0.5 -91.4454 424.1193)" class="st0" cx="321.6" cy="291.3" rx="2.5" ry="2.5"/>
	<ellipse transform="matrix(0.866 -0.5 0.5 0.866 -115.5765 191.5773)" class="st0" cx="299.7" cy="311.5" rx="2.5" ry="2.5"/>
	<ellipse transform="matrix(0.866 -0.5 0.5 0.866 -126.7848 184.6572)" class="st0" cx="281.2" cy="328.9" rx="2.5" ry="2.5"/>
	
		<ellipse transform="matrix(0.866 -0.5001 0.5001 0.866 -121.7731 188.7339)" class="st0" cx="291.3" cy="321.6" rx="2.5" ry="2.5"/>
	<ellipse transform="matrix(0.866 -0.5 0.5 0.866 -133.7109 173.4505)" class="st0" cx="256.8" cy="336.2" rx="2.5" ry="2.5"/>
	<ellipse transform="matrix(0.866 -0.5001 0.5001 0.866 -130.8411 179.6664)" class="st0" cx="269.8" cy="334" rx="2.5" ry="2.5"/>
	<circle class="st0" cx="240.8" cy="340.5" r="2.5"/>
	<circle class="st0" cx="216" cy="346.4" r="2.5"/>
	<circle class="st0" cx="228.4" cy="345.1" r="2.5"/>
	<circle class="st0" cx="191.2" cy="340.5" r="2.5"/>
	<circle class="st0" cx="203.6" cy="345.1" r="2.5"/>
	
		<ellipse transform="matrix(0.5001 -0.866 0.866 0.5001 -203.6027 319.8093)" class="st0" cx="175.2" cy="336.2" rx="2.5" ry="2.5"/>
	<ellipse transform="matrix(0.5001 -0.866 0.866 0.5001 -209.449 295.0398)" class="st0" cx="150.8" cy="328.9" rx="2.5" ry="2.5"/>
	<ellipse transform="matrix(0.5 -0.866 0.866 0.5 -208.1155 307.4537)" class="st0" cx="162.2" cy="334" rx="2.5" ry="2.5"/>
	<ellipse transform="matrix(0.5 -0.866 0.866 0.5 -203.6045 270.297)" class="st0" cx="132.3" cy="311.5" rx="2.5" ry="2.5"/>
	<ellipse transform="matrix(0.5 -0.866 0.866 0.5 -208.1157 282.6826)" class="st0" cx="140.7" cy="321.6" rx="2.5" ry="2.5"/>
	<ellipse transform="matrix(0.866 -0.5 0.5 0.866 -133.7118 100.4171)" class="st0" cx="120.5" cy="299.7" rx="2.5" ry="2.5"/>
	<ellipse transform="matrix(0.866 -0.5 0.5 0.866 -126.7855 89.2103)" class="st0" cx="103.1" cy="281.2" rx="2.5" ry="2.5"/>
	<ellipse transform="matrix(0.866 -0.5 0.5 0.866 -130.8298 94.2325)" class="st0" cx="110.4" cy="291.3" rx="2.5" ry="2.5"/>
	<ellipse transform="matrix(0.866 -0.5 0.5 0.866 -115.5787 82.2841)" class="st0" cx="95.8" cy="256.8" rx="2.5" ry="2.5"/>
	<ellipse transform="matrix(0.866 -0.5 0.5 0.866 -121.7631 85.1662)" class="st0" cx="98" cy="269.8" rx="2.5" ry="2.5"/>
	<circle class="st0" cx="91.5" cy="240.8" r="2.5"/>
	<circle class="st0" cx="85.6" cy="216" r="2.5"/>
	<circle class="st0" cx="86.9" cy="228.4" r="2.5"/>
	<circle class="st0" cx="91.5" cy="191.2" r="2.5"/>
	<circle class="st0" cx="86.9" cy="203.6" r="2.5"/>
	<ellipse transform="matrix(0.5 -0.866 0.866 0.5 -103.8321 170.5213)" class="st0" cx="95.8" cy="175.2" rx="2.5" ry="2.5"/>
	<ellipse transform="matrix(0.5 -0.866 0.866 0.5 -79.0612 164.6737)" class="st0" cx="103.1" cy="150.8" rx="2.5" ry="2.5"/>
	<ellipse transform="matrix(0.5 -0.866 0.866 0.5 -91.4466 166.01)" class="st0" cx="98" cy="162.2" rx="2.5" ry="2.5"/>
	<ellipse transform="matrix(0.5 -0.866 0.866 0.5 -54.2903 170.5211)" class="st0" cx="120.5" cy="132.3" rx="2.5" ry="2.5"/>
	<ellipse transform="matrix(0.5 -0.866 0.866 0.5 -66.6759 166.0096)" class="st0" cx="110.4" cy="140.7" rx="2.5" ry="2.5"/>
	<ellipse transform="matrix(0.866 -0.5 0.5 0.866 -42.5437 82.2919)" class="st0" cx="132.3" cy="120.5" rx="2.5" ry="2.5"/>
	<ellipse transform="matrix(0.866 -0.5001 0.5001 0.866 -31.3363 89.2237)" class="st0" cx="150.8" cy="103.1" rx="2.5" ry="2.5"/>
	<ellipse transform="matrix(0.866 -0.5 0.5 0.866 -36.3574 85.1651)" class="st0" cx="140.7" cy="110.4" rx="2.5" ry="2.5"/>
	<ellipse transform="matrix(0.866 -0.5001 0.5001 0.866 -24.4088 100.4317)" class="st0" cx="175.2" cy="95.8" rx="2.5" ry="2.5"/>
	<ellipse transform="matrix(0.866 -0.5 0.5 0.866 -27.2911 94.2316)" class="st0" cx="162.2" cy="98" rx="2.5" ry="2.5"/>
</g>
<g>
	<g>
		<path class="st2" d="M246.7,244.2v-12.7v-30.9v-12.7c3.4,3.7,6.2,8,8.1,12.7h9.9c-3.2-10.2-9.6-19-18-25.2c-3-2.2-6.2-4.1-9.6-5.7
			v10.5v20.4v30.9v20.4v10.5c3.4-1.5,6.7-3.4,9.6-5.7c8.4-6.3,14.7-15,18-25.2h-9.9C252.8,236.2,250.1,240.5,246.7,244.2z"/>
	</g>
	<g>
		<path class="st2" d="M165.6,211.3c-0.1,1.6-0.2,3.2-0.2,4.8c0,1.6,0.1,3.2,0.2,4.8c1.1,12.2,6.6,23.1,14.8,31.2V237
			c-2.8-4.8-4.7-10.3-5.4-16.1h10.8v12v11.4v12.5c3,2.2,6.2,4.1,9.6,5.7V252v-31v-9.6v-31v-10.5c-3.4,1.5-6.7,3.4-9.6,5.7
			C174.5,183.9,166.9,196.7,165.6,211.3z M175,211.3c1-9,4.9-17.1,10.8-23.3v23.3H175z"/>
	</g>
	<g>
		<path class="st2" d="M216.2,165.3c-1.9,0-3.8,0.1-5.7,0.3c-3.3,0.4-6.5,1.1-9.6,2v9.9v33.7v9.6v33.7v9.9c3.1,1,6.3,1.7,9.6,2
			c1.9,0.2,3.8,0.3,5.7,0.3c1.9,0,3.8-0.1,5.7-0.3c3.3-0.4,6.5-1.1,9.6-2v-9.9v-33.7l-6.8-4.8l6.8-4.8v-33.7v-9.9
			c-3.1-1-6.3-1.7-9.6-2C220,165.4,218.1,165.3,216.2,165.3z M221.9,257c-1.9,0.3-3.8,0.4-5.7,0.4c-1.9,0-3.8-0.1-5.7-0.4v-36.2
			h11.4V257z M221.9,211.2h-11.4V175c1.9-0.3,3.8-0.4,5.7-0.4c1.9,0,3.8,0.1,5.7,0.4V211.2z"/>
	</g>
</g>
</svg>
